<?xml version="1.0" encoding="utf-8"?>
<!-- Generator: Adobe Illustrator 16.0.0, SVG Export Plug-In . SVG Version: 6.00 Build 0)  -->
<!DOCTYPE svg PUBLIC "-//W3C//DTD SVG 1.1//EN" "http://www.w3.org/Graphics/SVG/1.1/DTD/svg11.dtd">
<svg version="1.1" id="Слой_1" xmlns="http://www.w3.org/2000/svg" xmlns:xlink="http://www.w3.org/1999/xlink" x="0px" y="0px"
	 width="700px" height="100px" viewBox="0 0 700 100" enable-background="new 0 0 700 100" xml:space="preserve">
<line fill="none" stroke="#297FC3" stroke-width="2" stroke-linecap="round" stroke-linejoin="round" stroke-miterlimit="10" x1="1" y1="98" x2="120.901" y2="98"/>
<polyline fill="none" stroke="#297FC3" stroke-width="2" stroke-linecap="round" stroke-linejoin="round" stroke-miterlimit="10" points="
	20.479,80.369 20.479,46.24 74.645,46.24 74.645,98 20.479,98 "/>
<rect x="74.645" y="68.142" fill="none" stroke="#297FC3" stroke-width="2" stroke-linecap="round" stroke-linejoin="round" stroke-miterlimit="10" width="27.01" height="29.858"/>
<rect x="54.688" y="76.524" fill="none" stroke="#297FC3" stroke-width="2" stroke-linecap="round" stroke-linejoin="round" stroke-miterlimit="10" width="11.766" height="21.476"/>
<rect x="82" y="76.524" fill="none" stroke="#297FC3" stroke-width="2" stroke-linecap="round" stroke-linejoin="round" stroke-miterlimit="10" width="12.299" height="13.066"/>
<line fill="none" stroke="#297FC3" stroke-width="2" stroke-linecap="round" stroke-linejoin="round" stroke-miterlimit="10" x1="88.15" y1="76.524" x2="88.15" y2="89.591"/>
<polyline fill="none" stroke="#297FC3" stroke-width="2" stroke-linecap="round" stroke-linejoin="round" stroke-miterlimit="10" points="
	74.645,56.676 106.325,68.142 74.645,68.142 "/>
<polyline fill="none" stroke="#297FC3" stroke-width="2" stroke-linecap="round" stroke-linejoin="round" stroke-miterlimit="10" points="
	74.645,46.24 47.521,35.555 20.479,46.24 "/>
<line fill="none" stroke="#297FC3" stroke-width="2" stroke-linecap="round" stroke-linejoin="round" stroke-miterlimit="10" x1="58.404" y1="86.277" x2="58.404" y2="88.367"/>
<rect x="28.588" y="54.796" fill="none" stroke="#297FC3" stroke-width="2" stroke-linecap="round" stroke-linejoin="round" stroke-miterlimit="10" width="11.727" height="13.272"/>
<rect x="54.727" y="54.796" fill="none" stroke="#297FC3" stroke-width="2" stroke-linecap="round" stroke-linejoin="round" stroke-miterlimit="10" width="11.727" height="13.272"/>
<line fill="none" stroke="#297FC3" stroke-width="2" stroke-linecap="round" stroke-linejoin="round" stroke-miterlimit="10" x1="34.452" y1="54.796" x2="34.452" y2="68.068"/>
<rect x="28.588" y="76.524" fill="none" stroke="#297FC3" stroke-width="2" stroke-linecap="round" stroke-linejoin="round" stroke-miterlimit="10" width="11.727" height="13.272"/>
<line fill="none" stroke="#297FC3" stroke-width="2" stroke-linecap="round" stroke-linejoin="round" stroke-miterlimit="10" x1="34.452" y1="76.524" x2="34.452" y2="89.797"/>
<line fill="none" stroke="#297FC3" stroke-width="2" stroke-linecap="round" stroke-linejoin="round" stroke-miterlimit="10" x1="60.59" y1="54.796" x2="60.59" y2="68.068"/>
<polyline fill="none" stroke="#297FC3" stroke-width="2" stroke-linecap="round" stroke-linejoin="round" stroke-miterlimit="10" points="
	15.876,94.687 7.985,94.687 13.831,82.928 9.933,82.928 15.876,71.587 21.82,82.928 17.922,82.928 23.768,94.687 15.876,94.687 
	15.876,98 "/>
<line fill="none" stroke="#297FC3" stroke-width="2" stroke-linecap="round" stroke-linejoin="round" stroke-miterlimit="10" x1="17.922" y1="82.928" x2="13.831" y2="82.928"/>
<path fill="none" stroke="#297FC3" stroke-width="2" stroke-linecap="round" stroke-linejoin="round" stroke-miterlimit="10" d="
	M101.655,84.794c0,0,5.173-0.604,5.369,4.415c0,0,6.449-0.291,5.22,8.791"/>
<line fill="none" stroke="#297FC3" stroke-width="2" stroke-linecap="round" stroke-linejoin="round" stroke-miterlimit="10" x1="82" y1="83.161" x2="94.299" y2="83.161"/>
<line fill="none" stroke="#297FC3" stroke-width="2" stroke-linecap="round" stroke-linejoin="round" stroke-miterlimit="10" x1="54.727" y1="61.432" x2="66.454" y2="61.432"/>
<line fill="none" stroke="#297FC3" stroke-width="2" stroke-linecap="round" stroke-linejoin="round" stroke-miterlimit="10" x1="28.588" y1="61.432" x2="40.315" y2="61.432"/>
<line fill="none" stroke="#297FC3" stroke-width="2" stroke-linecap="round" stroke-linejoin="round" stroke-miterlimit="10" x1="28.588" y1="83.058" x2="40.315" y2="83.058"/>
<line fill="none" stroke="#297FC3" stroke-width="2" stroke-linecap="round" stroke-linejoin="round" stroke-miterlimit="10" x1="91.866" y1="63.448" x2="91.866" y2="68.068"/>
<line fill="none" stroke="#297FC3" stroke-width="2" stroke-linecap="round" stroke-linejoin="round" stroke-miterlimit="10" x1="86.229" y1="60.868" x2="86.229" y2="68.068"/>
<line fill="none" stroke="#297FC3" stroke-width="2" stroke-linecap="round" stroke-linejoin="round" stroke-miterlimit="10" x1="80.59" y1="58.828" x2="80.59" y2="68.068"/>
<line fill="none" stroke="#297FC3" stroke-width="2" stroke-linecap="round" stroke-linejoin="round" stroke-miterlimit="10" x1="60.186" y1="40.695" x2="60.186" y2="46.24"/>
<line fill="none" stroke="#297FC3" stroke-width="2" stroke-linecap="round" stroke-linejoin="round" stroke-miterlimit="10" x1="53.874" y1="38.394" x2="53.874" y2="46.24"/>
<line fill="none" stroke="#297FC3" stroke-width="2" stroke-linecap="round" stroke-linejoin="round" stroke-miterlimit="10" x1="47.562" y1="36.495" x2="47.562" y2="46.24"/>
<line fill="none" stroke="#297FC3" stroke-width="2" stroke-linecap="round" stroke-linejoin="round" stroke-miterlimit="10" x1="41.25" y1="38.394" x2="41.25" y2="46.24"/>
<line fill="none" stroke="#297FC3" stroke-width="2" stroke-linecap="round" stroke-linejoin="round" stroke-miterlimit="10" x1="34.938" y1="40.695" x2="34.938" y2="46.24"/>
<g>
	
		<polygon fill="none" stroke="#297FC3" stroke-width="2" stroke-linecap="round" stroke-linejoin="round" stroke-miterlimit="10" points="
		241.801,98.56 231.94,98.56 229.303,85.089 244.439,85.089 	"/>
	<path fill="none" stroke="#297FC3" stroke-width="2" stroke-linecap="round" stroke-linejoin="round" stroke-miterlimit="10" d="
		M236.871,85.089c0,0,2.893-5.508-1.088-9.305c-3.981-3.795-3.333-7.721-1.111-10.896"/>
	<path fill="none" stroke="#297FC3" stroke-width="2" stroke-linecap="round" stroke-linejoin="round" stroke-miterlimit="10" d="
		M237.196,77.705c-0.183,0.01-0.465-8.447,9.534-8.864C246.73,68.841,248.354,77.126,237.196,77.705z"/>
	
		<circle fill="none" stroke="#297FC3" stroke-width="2" stroke-linecap="round" stroke-linejoin="round" stroke-miterlimit="10" cx="235.065" cy="60.861" r="4.027"/>
	
		<line fill="none" stroke="#297FC3" stroke-width="2" stroke-linecap="round" stroke-linejoin="round" stroke-miterlimit="10" x1="252.367" y1="98.56" x2="156.645" y2="98.56"/>
	
		<rect x="176.283" y="21.971" fill="none" stroke="#297FC3" stroke-width="2" stroke-linecap="round" stroke-linejoin="round" stroke-miterlimit="10" width="45.573" height="50.312"/>
	
		<rect x="180.545" y="26.46" fill="none" stroke="#297FC3" stroke-width="2" stroke-linecap="round" stroke-linejoin="round" stroke-miterlimit="10" width="37.05" height="41.334"/>
	
		<line fill="none" stroke="#297FC3" stroke-width="2" stroke-linecap="round" stroke-linejoin="round" stroke-miterlimit="10" x1="199.069" y1="26.46" x2="199.069" y2="67.794"/>
	
		<line fill="none" stroke="#297FC3" stroke-width="2" stroke-linecap="round" stroke-linejoin="round" stroke-miterlimit="10" x1="195.01" y1="49.745" x2="195.01" y2="53.422"/>
	
		<line fill="none" stroke="#297FC3" stroke-width="2" stroke-linecap="round" stroke-linejoin="round" stroke-miterlimit="10" x1="202.978" y1="49.745" x2="202.978" y2="53.422"/>
	<g>
		
			<rect x="180.479" y="77.994" fill="none" stroke="#297FC3" stroke-width="2" stroke-linecap="round" stroke-linejoin="round" stroke-miterlimit="10" width="4.262" height="14.854"/>
		
			<rect x="188.469" y="77.994" fill="none" stroke="#297FC3" stroke-width="2" stroke-linecap="round" stroke-linejoin="round" stroke-miterlimit="10" width="4.262" height="14.854"/>
		
			<rect x="196.46" y="77.994" fill="none" stroke="#297FC3" stroke-width="2" stroke-linecap="round" stroke-linejoin="round" stroke-miterlimit="10" width="4.262" height="14.854"/>
		
			<rect x="204.45" y="77.994" fill="none" stroke="#297FC3" stroke-width="2" stroke-linecap="round" stroke-linejoin="round" stroke-miterlimit="10" width="4.262" height="14.854"/>
		
			<rect x="212.44" y="77.994" fill="none" stroke="#297FC3" stroke-width="2" stroke-linecap="round" stroke-linejoin="round" stroke-miterlimit="10" width="4.262" height="14.854"/>
		
			<line fill="none" stroke="#297FC3" stroke-width="2" stroke-linecap="round" stroke-linejoin="round" stroke-miterlimit="10" x1="180.479" y1="80.953" x2="176.283" y2="80.953"/>
		
			<line fill="none" stroke="#297FC3" stroke-width="2" stroke-linecap="round" stroke-linejoin="round" stroke-miterlimit="10" x1="216.702" y1="79.929" x2="221.856" y2="79.929"/>
		
			<line fill="none" stroke="#297FC3" stroke-width="2" stroke-linecap="round" stroke-linejoin="round" stroke-miterlimit="10" x1="216.702" y1="88.921" x2="221.856" y2="88.921"/>
	</g>
	
		<rect x="142" y="36.94" fill="none" stroke="#297FC3" stroke-width="2" stroke-linecap="round" stroke-linejoin="round" stroke-miterlimit="10" width="26.26" height="18.391"/>
	<path fill="none" stroke="#297FC3" stroke-width="2" stroke-linecap="round" stroke-linejoin="round" stroke-miterlimit="10" d="
		M142,49.853c0,0,2.045,2.306,5.972,0c3.927-2.305,5.72-2.976,9.135-1.359c3.415,1.615,8.989,3.408,11.153,2.384"/>
	
		<circle fill="none" stroke="#297FC3" stroke-width="2" stroke-linecap="round" stroke-linejoin="round" stroke-miterlimit="10" cx="161.67" cy="42.974" r="2.134"/>
	<path fill="none" stroke="#297FC3" stroke-width="2" stroke-linecap="round" stroke-linejoin="round" stroke-miterlimit="10" d="
		M217.594,98.56"/>
</g>
<line fill="none" stroke="#297FC3" stroke-width="2" stroke-linecap="round" stroke-linejoin="round" stroke-miterlimit="10" x1="284.484" y1="98.326" x2="400.325" y2="98.326"/>
<path fill="none" stroke="#297FC3" stroke-width="2" stroke-linecap="round" stroke-linejoin="round" stroke-miterlimit="10" d="
	M366.109,25.665h-19.888c-1.291,0-2.338-1.047-2.338-2.339V3.439c0-1.292,1.047-2.339,2.338-2.339h19.888
	c1.292,0,2.339,1.047,2.339,2.339v19.887C368.448,24.618,367.401,25.665,366.109,25.665z"/>
<polyline fill="none" stroke="#297FC3" stroke-width="2" stroke-linecap="round" stroke-linejoin="round" stroke-miterlimit="10" points="
	319.687,59.15 319.687,29.636 391.62,29.636 391.62,97.675 "/>
<line fill="none" stroke="#297FC3" stroke-width="2" stroke-linecap="round" stroke-linejoin="round" stroke-miterlimit="10" x1="319.687" y1="98.326" x2="319.687" y2="65.533"/>
<polyline fill="none" stroke="#297FC3" stroke-width="2" stroke-linecap="round" stroke-linejoin="round" stroke-miterlimit="10" points="
	349.914,19.08 351.955,7.686 355.908,16.299 360.376,7.686 362.417,19.08 "/>
<line fill="none" stroke="#297FC3" stroke-width="2" stroke-linecap="round" stroke-linejoin="round" stroke-miterlimit="10" x1="356.166" y1="25.665" x2="356.166" y2="29.636"/>
<line fill="none" stroke="#297FC3" stroke-width="2" stroke-linecap="round" stroke-linejoin="round" stroke-miterlimit="10" x1="344.188" y1="32.74" x2="344.188" y2="98.326"/>
<line fill="none" stroke="#297FC3" stroke-width="2" stroke-linecap="round" stroke-linejoin="round" stroke-miterlimit="10" x1="367.035" y1="32.74" x2="367.035" y2="98.326"/>
<g>
	
		<line fill="none" stroke="#297FC3" stroke-width="2" stroke-linecap="round" stroke-linejoin="round" stroke-miterlimit="10" x1="340.181" y1="61.616" x2="340.181" y2="65.557"/>
	
		<line fill="none" stroke="#297FC3" stroke-width="2" stroke-linecap="round" stroke-linejoin="round" stroke-miterlimit="10" x1="348.197" y1="61.616" x2="348.197" y2="65.557"/>
</g>
<g>
	
		<line fill="none" stroke="#297FC3" stroke-width="2" stroke-linecap="round" stroke-linejoin="round" stroke-miterlimit="10" x1="363.026" y1="61.616" x2="363.026" y2="65.557"/>
	
		<line fill="none" stroke="#297FC3" stroke-width="2" stroke-linecap="round" stroke-linejoin="round" stroke-miterlimit="10" x1="371.044" y1="61.616" x2="371.044" y2="65.557"/>
</g>
<polyline fill="none" stroke="#297FC3" stroke-width="2" stroke-linecap="round" stroke-linejoin="round" stroke-miterlimit="10" points="
	322.794,59.434 322.794,32.74 388.429,32.74 388.429,98.326 "/>
<g>
	<path fill="none" stroke="#297FC3" stroke-width="2" stroke-linecap="round" stroke-linejoin="round" stroke-miterlimit="10" d="
		M313.302,46.226c0,3.089-1.938,7.324-4.612,7.324s-4.612-4.235-4.612-7.324s1.938-4.747,4.612-4.747S313.302,43.137,313.302,46.226
		z"/>
	<path fill="none" stroke="#297FC3" stroke-width="2" stroke-linecap="round" stroke-linejoin="round" stroke-miterlimit="10" d="
		M310.097,53.139v2.764c0,0.584-0.63,1.058-1.407,1.058l0,0c-0.777,0-1.408-0.474-1.408-1.058v-2.764"/>
	<path fill="none" stroke="#297FC3" stroke-width="2" stroke-linecap="round" stroke-linejoin="round" stroke-miterlimit="10" d="
		M307.281,54.383c-1.463,0-3.94,0.242-5.708,1.014c-6.424,2.807-7.761,12.203-7.761,12.203l2.852,1.353l2.337-5.842
		c0.877-1.785,2.035-3.536,5.293-2.938c-0.217,3.755-0.665,13.152-0.665,13.152h11.522l-0.485-12.109l4.069,3.385
		c1.589,1.323,3.94,1.15,5.32-0.39l4.28-4.776l-2.527-2.417l-4.037,3.765l-5.349-4.183c-1.674-1.43-4.124-2.216-6.326-2.216"/>
	<path fill="none" stroke="#297FC3" stroke-width="2" stroke-linecap="round" stroke-linejoin="round" stroke-miterlimit="10" d="
		M303.629,73.324L303.629,73.324c0.447,2.769,1.756,5.326,3.739,7.309l3.169,3.169c1.178,1.177,1.741,2.835,1.523,4.485
		l-1.321,10.039h9.698l-0.808-1.975c-0.519-1.269-1.754-2.098-3.124-2.098l0,0l0.949-8.616c0.132-1.196-0.144-2.402-0.78-3.423
		l-5.551-8.891"/>
	
		<line fill="none" stroke="#297FC3" stroke-width="2" stroke-linecap="round" stroke-linejoin="round" stroke-miterlimit="10" x1="315.151" y1="73.324" x2="314.032" y2="77.982"/>
	<path fill="none" stroke="#297FC3" stroke-width="2" stroke-linecap="round" stroke-linejoin="round" stroke-miterlimit="10" d="
		M310.537,83.802l-0.925,2.251c-1.092,2.482-3.029,4.497-5.467,5.686l-3.772,1.841l0.337,2.545l0.642,0.991
		c0.338,0.521-0.036,1.211-0.658,1.211h-4.549l-0.646-6.168c-0.083-0.791,0.299-1.559,0.979-1.97l4.589-2.772
		c2.207-1.333,3.71-3.576,4.103-6.124l0.438-2.838"/>
	<path fill="none" stroke="#297FC3" stroke-width="2" stroke-linecap="round" stroke-linejoin="round" stroke-miterlimit="10" d="
		M304.317,48.248c5.599-0.395,6.977-6.102,6.977-6.102s1.535,0.246,2.738-0.45"/>
	<path fill="none" stroke="#297FC3" stroke-width="2" stroke-linecap="round" stroke-linejoin="round" stroke-miterlimit="10" d="
		M296.664,68.952l-1.302,4.759c0,0-2.727-1.439-1.55-6.111"/>
	<path fill="none" stroke="#297FC3" stroke-width="2" stroke-linecap="round" stroke-linejoin="round" stroke-miterlimit="10" d="
		M325.809,57.017l4.131-4.255c0,0,0.718,4.081-1.604,6.672"/>
	<line fill="none" stroke="#297FC3" stroke-width="2" stroke-miterlimit="10" x1="300.373" y1="93.579" x2="297.455" y2="89.598"/>
	<path fill="none" stroke="#297FC3" stroke-width="2" stroke-miterlimit="10" d="M303.429,92.089"/>
	<path fill="none" stroke="#297FC3" stroke-width="2" stroke-miterlimit="10" d="M300.215,87.931"/>
	<line fill="none" stroke="#297FC3" stroke-width="2" stroke-miterlimit="10" x1="316.506" y1="94.254" x2="311.275" y2="94.254"/>
</g>
<line fill="none" stroke="#297FC3" stroke-width="2" stroke-linecap="round" stroke-linejoin="round" stroke-miterlimit="10" x1="322.794" y1="65.139" x2="322.794" y2="98.326"/>
<g>
	<path fill="none" stroke="#297FC3" stroke-width="2" stroke-linecap="round" stroke-linejoin="round" stroke-miterlimit="10" d="
		M504.678,44.333c0,9.248-5.815,19.951-12.988,19.951c-7.174,0-12.989-10.703-12.989-19.951c0-9.249,5.815-13.541,12.989-13.541
		C498.862,30.792,504.678,35.084,504.678,44.333z"/>
	<path fill="none" stroke="#297FC3" stroke-width="2" stroke-linecap="round" stroke-linejoin="round" stroke-miterlimit="10" d="
		M513.427,47.83c0.878-6.587,5.613-9.665,11.322-9.665c5.628,0,10.31,2.992,11.282,9.389"/>
	<path fill="none" stroke="#297FC3" stroke-width="2" stroke-linecap="round" stroke-linejoin="round" stroke-miterlimit="10" d="
		M533.811,60.251c-2.098,4.285-5.377,7.483-9.062,7.483c-3.604,0-6.821-3.06-8.923-7.202"/>
	<path fill="none" stroke="#297FC3" stroke-width="2" stroke-linecap="round" stroke-linejoin="round" stroke-miterlimit="10" d="
		M465.109,49.048c0,7.994-3.307,18.106-10.842,18.106s-10.75-10.112-10.75-18.106"/>
	<path fill="none" stroke="#297FC3" stroke-width="2" stroke-linecap="round" stroke-linejoin="round" stroke-miterlimit="10" d="
		M491.689,97.917h-23.758l2.291-17.287c0.711-5.878,4.439-10.824,10.051-12.715l4.821-1.49"/>
	<path fill="none" stroke="#297FC3" stroke-width="2" stroke-linecap="round" stroke-linejoin="round" stroke-miterlimit="10" d="
		M491.689,97.917h23.758l-2.293-17.287c-0.711-5.878-4.439-10.824-10.049-12.715l-5.262-1.662"/>
	<g>
		
			<polygon fill="none" stroke="#297FC3" stroke-width="2" stroke-linecap="round" stroke-linejoin="round" stroke-miterlimit="10" points="
			491.689,69.033 486.947,73.077 482.258,69.358 486.336,65.141 		"/>
		
			<polygon fill="none" stroke="#297FC3" stroke-width="2" stroke-linecap="round" stroke-linejoin="round" stroke-miterlimit="10" points="
			491.689,69.033 496.43,73.077 501.043,69.509 496.877,65.269 		"/>
	</g>
	
		<polyline fill="none" stroke="#297FC3" stroke-width="2" stroke-linecap="round" stroke-linejoin="round" stroke-miterlimit="10" points="
		486.947,73.077 491.689,76.893 496.43,73.077 	"/>
	
		<line fill="none" stroke="#297FC3" stroke-width="2" stroke-linecap="round" stroke-linejoin="round" stroke-miterlimit="10" x1="491.689" y1="76.893" x2="487.632" y2="97.917"/>
	
		<line fill="none" stroke="#297FC3" stroke-width="2" stroke-linecap="round" stroke-linejoin="round" stroke-miterlimit="10" x1="491.689" y1="76.893" x2="495.746" y2="97.917"/>
	<g>
		
			<line fill="none" stroke="#297FC3" stroke-width="2" stroke-linecap="round" stroke-linejoin="round" stroke-miterlimit="10" x1="477.512" y1="82.916" x2="476.835" y2="97.917"/>
		
			<line fill="none" stroke="#297FC3" stroke-width="2" stroke-linecap="round" stroke-linejoin="round" stroke-miterlimit="10" x1="505.865" y1="82.916" x2="506.543" y2="97.917"/>
	</g>
	<path fill="none" stroke="#297FC3" stroke-width="2" stroke-linecap="round" stroke-linejoin="round" stroke-miterlimit="10" d="
		M504.258,46.376c-7.166,0-10.25-5.475-10.25-5.475l0.792,5.021c-6.54,0.132-9.909-6.474-9.909-6.474s-1.273,6.67-6.119,6.67"/>
	<path fill="none" stroke="#297FC3" stroke-width="2" stroke-linecap="round" stroke-linejoin="round" stroke-miterlimit="10" d="
		M488.275,55.947c0,0,0.896,1.575,3.449,1.572c2.486-0.003,3.379-1.572,3.379-1.572"/>
	<path fill="none" stroke="#297FC3" stroke-width="2" stroke-linecap="round" stroke-linejoin="round" stroke-miterlimit="10" d="
		M451.76,59.92c0,0,0.671,0.912,2.58,0.911c1.861-0.002,2.528-0.911,2.528-0.911"/>
	<path fill="none" stroke="#297FC3" stroke-width="2" stroke-linecap="round" stroke-linejoin="round" stroke-miterlimit="10" d="
		M522.313,59.285c0,0,0.718,1.014,2.758,1.012c1.986-0.002,2.7-1.012,2.7-1.012"/>
	<path fill="none" stroke="#297FC3" stroke-width="2" stroke-linecap="round" stroke-linejoin="round" stroke-miterlimit="10" d="
		M513.998,45.326c0,0,8.939,7.101,22.088,7.089"/>
	
		<polyline fill="none" stroke="#297FC3" stroke-width="2" stroke-linecap="round" stroke-linejoin="round" stroke-miterlimit="10" points="
		513.427,47.83 509.725,66.343 519.993,66.343 	"/>
	
		<polyline fill="none" stroke="#297FC3" stroke-width="2" stroke-linecap="round" stroke-linejoin="round" stroke-miterlimit="10" points="
		536.031,47.555 539.773,66.343 529.362,66.343 	"/>
	
		<line fill="none" stroke="#297FC3" stroke-width="2" stroke-linecap="round" stroke-linejoin="round" stroke-miterlimit="10" x1="421.9" y1="97.917" x2="560.59" y2="97.917"/>
	<g>
		<path fill="none" stroke="#297FC3" stroke-width="2" stroke-linecap="round" stroke-linejoin="round" stroke-miterlimit="10" d="
			M521.509,66.871v2.394c0,0.499-0.259,0.963-0.683,1.225l-8.895,5.49"/>
		<path fill="none" stroke="#297FC3" stroke-width="2" stroke-linecap="round" stroke-linejoin="round" stroke-miterlimit="10" d="
			M527.988,66.871v2.319c0,0.539,0.302,1.032,0.781,1.279l6.099,3.141c2.918,1.502,5.028,4.212,5.771,7.408l3.166,16.898"/>
	</g>
	
		<polyline fill="none" stroke="#297FC3" stroke-width="2" stroke-linecap="round" stroke-linejoin="round" stroke-miterlimit="10" points="
		516.301,73.282 524.749,79.845 533.904,73.282 	"/>
	
		<line fill="none" stroke="#297FC3" stroke-width="2" stroke-linecap="round" stroke-linejoin="round" stroke-miterlimit="10" x1="536.277" y1="97.917" x2="534.639" y2="85.471"/>
	<path fill="none" stroke="#297FC3" stroke-width="2" stroke-linecap="round" stroke-linejoin="round" stroke-miterlimit="10" d="
		M521.509,70.067c0,0,0.826,1.939,3.24,1.939s3.239-1.939,3.239-1.939"/>
	<g>
		<path fill="none" stroke="#297FC3" stroke-width="2" stroke-linecap="round" stroke-linejoin="round" stroke-miterlimit="10" d="
			M449.221,66.345v2.509c0,1.335-1.043,2.522-2.597,2.96l-6.69,1.88c-3.688,1.036-6.195,3.819-6.294,6.985l-0.583,17.045"/>
		<path fill="none" stroke="#297FC3" stroke-width="2" stroke-linecap="round" stroke-linejoin="round" stroke-miterlimit="10" d="
			M459.084,66.345v2.509c0,1.335,1.042,2.522,2.596,2.96l9.711,2.452"/>
	</g>
	
		<line fill="none" stroke="#297FC3" stroke-width="2" stroke-linecap="round" stroke-linejoin="round" stroke-miterlimit="10" x1="533.162" y1="52.3" x2="534.289" y2="66.343"/>
	
		<line fill="none" stroke="#297FC3" stroke-width="2" stroke-linecap="round" stroke-linejoin="round" stroke-miterlimit="10" x1="516.801" y1="47.166" x2="515.252" y2="66.343"/>
	
		<line fill="none" stroke="#297FC3" stroke-width="2" stroke-linecap="round" stroke-linejoin="round" stroke-miterlimit="10" x1="486.336" y1="65.141" x2="486.336" y2="62.679"/>
	
		<line fill="none" stroke="#297FC3" stroke-width="2" stroke-linecap="round" stroke-linejoin="round" stroke-miterlimit="10" x1="496.877" y1="65.141" x2="496.877" y2="62.679"/>
	
		<line fill="none" stroke="#297FC3" stroke-width="2" stroke-linecap="round" stroke-linejoin="round" stroke-miterlimit="10" x1="447.492" y1="71.456" x2="460.316" y2="97.917"/>
	
		<polyline fill="none" stroke="#297FC3" stroke-width="2" stroke-linecap="round" stroke-linejoin="round" stroke-miterlimit="10" points="
		443.904,72.577 444.678,83.326 449.221,84.687 446.242,88.018 453.326,97.917 	"/>
	
		<line fill="none" stroke="#297FC3" stroke-width="2" stroke-linecap="round" stroke-linejoin="round" stroke-miterlimit="10" x1="461.68" y1="71.813" x2="455.451" y2="87.88"/>
	
		<polyline fill="none" stroke="#297FC3" stroke-width="2" stroke-linecap="round" stroke-linejoin="round" stroke-miterlimit="10" points="
		448.053,71.456 454.314,74.266 454.314,68.57 	"/>
	
		<line fill="none" stroke="#297FC3" stroke-width="2" stroke-linecap="round" stroke-linejoin="round" stroke-miterlimit="10" x1="454.314" y1="74.266" x2="460.316" y2="71.813"/>
	
		<polyline fill="none" stroke="#297FC3" stroke-width="2" stroke-linecap="round" stroke-linejoin="round" stroke-miterlimit="10" points="
		465.747,72.908 464.542,84.343 461.098,84.687 463.422,88.514 459.52,96.274 	"/>
	
		<line fill="none" stroke="#297FC3" stroke-width="2" stroke-linecap="round" stroke-linejoin="round" stroke-miterlimit="10" x1="439.85" y1="97.724" x2="439.85" y2="86.453"/>
	
		<line fill="none" stroke="#297FC3" stroke-width="2" stroke-linecap="round" stroke-linejoin="round" stroke-miterlimit="10" x1="443.518" y1="49.048" x2="453.848" y2="49.048"/>
	<path fill="none" stroke="#297FC3" stroke-width="2" stroke-linecap="round" stroke-linejoin="round" stroke-miterlimit="10" d="
		M453.848,49.048l6.023,4.995c0,0,1.339-2.552,0.586-4.995h4.652c2.883-3.327,2.232-8.287,2.232-8.287l-7.119,1.729
		c2.168-3.044,0.282-6.64,0.282-6.64l-15.833,5.701c-0.839,0.31-1.4,1.136-1.4,2.062l0.246,5.436"/>
</g>
<g>
	
		<line fill="none" stroke="#297FC3" stroke-width="2" stroke-linecap="round" stroke-linejoin="round" stroke-miterlimit="10" x1="577.604" y1="98.183" x2="700" y2="98.183"/>
	<path fill="none" stroke="#297FC3" stroke-width="2" stroke-linecap="round" stroke-linejoin="round" stroke-miterlimit="10" d="
		M639.371,94.242h-32.269c-6.438,0-12.35-2.528-15.359-6.568l-2.287-3.07h67.562l-2.287,3.07
		C651.721,91.714,645.811,94.242,639.371,94.242z"/>
	<path fill="none" stroke="#297FC3" stroke-width="2" stroke-linecap="round" stroke-linejoin="round" stroke-miterlimit="10" d="
		M650.359,93.631"/>
	<path fill="none" stroke="#297FC3" stroke-width="2" stroke-linecap="round" stroke-linejoin="round" stroke-miterlimit="10" d="
		M595.38,93.631"/>
	<path fill="none" stroke="#297FC3" stroke-width="2" stroke-linecap="round" stroke-linejoin="round" stroke-miterlimit="10" d="
		M615.018,84.604l-31.856-16.81c-1.15-0.607-2.572-0.286-3.351,0.758l0,0c-1.01,1.354-0.507,3.294,1.033,3.987l26.785,12.064
		H615.018z"/>
	<g>
		<path fill="none" stroke="#297FC3" stroke-width="2" stroke-linecap="round" stroke-linejoin="round" stroke-miterlimit="10" d="
			M657.819,47.912c0,3.699-2,3.699-2,7.398c0,3.7,2,3.7,2,7.399"/>
	</g>
	<g>
		<path fill="none" stroke="#297FC3" stroke-width="2" stroke-linecap="round" stroke-linejoin="round" stroke-miterlimit="10" d="
			M666.774,44.579c0,3.699-2,3.699-2,7.398c0,3.7,2,3.7,2,7.399"/>
	</g>
	<g>
		<path fill="none" stroke="#297FC3" stroke-width="2" stroke-linecap="round" stroke-linejoin="round" stroke-miterlimit="10" d="
			M675.706,47.912c0,3.699-2,3.699-2,7.398c0,3.7,2,3.7,2,7.399"/>
	</g>
	<path fill="none" stroke="#297FC3" stroke-width="2" stroke-linecap="round" stroke-linejoin="round" stroke-miterlimit="10" d="
		M609.471,81.676c0,0,3.512-4.003,8.79-3.853c0,0,2.563-3.619,7.238-3.469c4.675,0.151,7.271,3.658,7.271,3.658
		s5.033-2.953,8.538,1.464c0,0,8.471-0.761,9.525,5.127"/>
	<path fill="none" stroke="#297FC3" stroke-width="2" stroke-linecap="round" stroke-linejoin="round" stroke-miterlimit="10" d="
		M605.436,78.613"/>
	
		<polyline fill="none" stroke="#297FC3" stroke-width="2" stroke-linecap="round" stroke-linejoin="round" stroke-miterlimit="10" points="
		632.278,76.964 632.278,35.149 600.825,35.149 593.183,35.149 600.464,41.645 600.464,76.471 	"/>
	
		<line fill="none" stroke="#297FC3" stroke-width="2" stroke-linecap="round" stroke-linejoin="round" stroke-miterlimit="10" x1="616.459" y1="53.037" x2="616.459" y2="24.524"/>
	
		<line fill="none" stroke="#297FC3" stroke-width="2" stroke-linecap="round" stroke-linejoin="round" stroke-miterlimit="10" x1="611.133" y1="24.524" x2="621.785" y2="24.524"/>
	
		<line fill="none" stroke="#297FC3" stroke-width="2" stroke-linecap="round" stroke-linejoin="round" stroke-miterlimit="10" x1="604.183" y1="53.037" x2="628.735" y2="53.037"/>
	<path fill="none" stroke="#297FC3" stroke-width="2" stroke-linecap="round" stroke-linejoin="round" stroke-miterlimit="10" d="
		M653.32,91.16c2.981,1.882,7.012,3.082,12.442,3.082c25.148,0,20.272-25.734,20.272-25.734H645.49c0,0-1.035,5.462,0.308,11.354"/>
	
		<polyline fill="none" stroke="#297FC3" stroke-width="2" stroke-linecap="round" stroke-linejoin="round" stroke-miterlimit="10" points="
		655.641,93.865 655.641,98.183 675.885,98.183 675.885,93.514 	"/>
	<path fill="none" stroke="#297FC3" stroke-width="2" stroke-linecap="round" stroke-linejoin="round" stroke-miterlimit="10" d="
		M686.554,74.231h10.388c1.233,0,2.232,1,2.232,2.232v1.079c0,6.062-4.914,10.976-10.976,10.976h-6.397"/>
	<path fill="none" stroke="#297FC3" stroke-width="2" stroke-linecap="round" stroke-linejoin="round" stroke-miterlimit="10" d="
		M684.692,84.138h3.506c3.271,0,5.995-2.396,6.508-5.524h-8.151"/>
	<g>
		<path fill="none" stroke="#297FC3" stroke-width="2" stroke-linecap="round" stroke-linejoin="round" stroke-miterlimit="10" d="
			M600.64,57.765c3.163,0,3.163,2,6.325,2c3.161,0,3.161-2,6.322-2c3.164,0,3.164,2,6.327,2c3.166,0,3.166-2,6.332-2
			s3.166,2,6.332,2"/>
	</g>
	
		<line fill="none" stroke="#297FC3" stroke-width="2" stroke-linecap="round" stroke-linejoin="round" stroke-miterlimit="10" x1="632.771" y1="78.013" x2="629.126" y2="80.065"/>
	
		<polyline fill="none" stroke="#297FC3" stroke-width="2" stroke-linecap="round" stroke-linejoin="round" stroke-miterlimit="10" points="
		600.576,93.574 600.576,98.183 645.897,98.183 645.897,94.242 	"/>
	<path fill="none" stroke="#297FC3" stroke-width="2" stroke-linecap="round" stroke-linejoin="round" stroke-miterlimit="10" d="
		M632.278,40.511h7.058c1.134,0,2.054,1.064,2.054,2.377v21.439c0,1.313-0.92,2.377-2.054,2.377h-7.058"/>
	<path fill="none" stroke="#297FC3" stroke-width="2" stroke-linecap="round" stroke-linejoin="round" stroke-miterlimit="10" d="
		M632.278,44.347h4.656c0.427,0,0.773,0.347,0.773,0.774v16.974c0,0.427-0.347,0.773-0.773,0.773h-4.656"/>
</g>
</svg>
