<?xml version="1.0" encoding="utf-8"?>
<!-- Generator: Adobe Illustrator 16.0.0, SVG Export Plug-In . SVG Version: 6.00 Build 0)  -->
<!DOCTYPE svg PUBLIC "-//W3C//DTD SVG 1.1//EN" "http://www.w3.org/Graphics/SVG/1.1/DTD/svg11.dtd">
<svg version="1.1" id="Слой_1" xmlns="http://www.w3.org/2000/svg" xmlns:xlink="http://www.w3.org/1999/xlink" x="0px" y="0px"
	 width="200px" height="200px" viewBox="0 0 200 200" enable-background="new 0 0 200 200" xml:space="preserve">
<g>
	
		<circle fill="none" stroke="#297FC3" stroke-width="2" stroke-linecap="round" stroke-linejoin="round" stroke-miterlimit="10" cx="16.702" cy="13.19" r="11.19"/>
	
		<polyline fill="none" stroke="#297FC3" stroke-width="2" stroke-linecap="round" stroke-linejoin="round" stroke-miterlimit="10" points="
		6.231,17.144 2.134,17.144 2.134,9.236 6.231,9.236 	"/>
	
		<polyline fill="none" stroke="#297FC3" stroke-width="2" stroke-linecap="round" stroke-linejoin="round" stroke-miterlimit="10" points="
		27.172,9.236 31.268,9.236 31.268,17.144 27.172,17.144 	"/>
	
		<rect x="8.985" y="9.236" fill="none" stroke="#297FC3" stroke-width="2" stroke-linecap="round" stroke-linejoin="round" stroke-miterlimit="10" width="15.434" height="4.147"/>
	
		<line fill="none" stroke="#297FC3" stroke-width="2" stroke-linecap="round" stroke-linejoin="round" stroke-miterlimit="10" x1="12.443" y1="9.236" x2="12.443" y2="13.384"/>
	
		<line fill="none" stroke="#297FC3" stroke-width="2" stroke-linecap="round" stroke-linejoin="round" stroke-miterlimit="10" x1="16.702" y1="9.236" x2="16.702" y2="13.384"/>
	
		<line fill="none" stroke="#297FC3" stroke-width="2" stroke-linecap="round" stroke-linejoin="round" stroke-miterlimit="10" x1="20.96" y1="9.236" x2="20.96" y2="13.384"/>
	<circle fill="#297FC3" cx="23.489" cy="16.748" r="1.248"/>
</g>
<g>
	
		<rect x="2" y="36.113" fill="none" stroke="#297FC3" stroke-width="2" stroke-linecap="round" stroke-linejoin="round" stroke-miterlimit="10" width="20.795" height="22.209"/>
	
		<line fill="none" stroke="#297FC3" stroke-width="2" stroke-linecap="round" stroke-linejoin="round" stroke-miterlimit="10" x1="5.985" y1="34.271" x2="5.985" y2="37.763"/>
	
		<line fill="none" stroke="#297FC3" stroke-width="2" stroke-linecap="round" stroke-linejoin="round" stroke-miterlimit="10" x1="12.397" y1="34.271" x2="12.397" y2="37.763"/>
	
		<line fill="none" stroke="#297FC3" stroke-width="2" stroke-linecap="round" stroke-linejoin="round" stroke-miterlimit="10" x1="18.809" y1="34.271" x2="18.809" y2="37.763"/>
	<path fill="none" stroke="#297FC3" stroke-width="2" stroke-linecap="round" stroke-linejoin="round" stroke-miterlimit="10" d="
		M9.732,45.342c0,0,0.478-2.734,3.145-2.433c2.024,0.228,3.579,3.174-0.181,5.487c-3.248,1.999-3.072,4.161-3.072,4.161h5.747"/>
	
		<line fill="none" stroke="#297FC3" stroke-width="2" stroke-linecap="round" stroke-linejoin="round" stroke-miterlimit="10" x1="2" y1="61.502" x2="22.795" y2="61.502"/>
</g>
<g>
	
		<rect x="2" y="73.311" fill="none" stroke="#297FC3" stroke-width="2" stroke-linecap="round" stroke-linejoin="round" stroke-miterlimit="10" width="25.554" height="15.604"/>
	
		<circle fill="none" stroke="#297FC3" stroke-width="2" stroke-linecap="round" stroke-linejoin="round" stroke-miterlimit="10" cx="14.777" cy="81.113" r="3.998"/>
	<path fill="none" stroke="#297FC3" stroke-width="2" stroke-linecap="round" stroke-linejoin="round" stroke-miterlimit="10" d="
		M27.554,77.604c-2.371,0-4.294-1.922-4.294-4.294"/>
	<path fill="none" stroke="#297FC3" stroke-width="2" stroke-linecap="round" stroke-linejoin="round" stroke-miterlimit="10" d="
		M23.26,88.915c0-2.371,1.923-4.294,4.294-4.294"/>
	<path fill="none" stroke="#297FC3" stroke-width="2" stroke-linecap="round" stroke-linejoin="round" stroke-miterlimit="10" d="
		M2,84.621c2.371,0,4.294,1.923,4.294,4.294"/>
	<path fill="none" stroke="#297FC3" stroke-width="2" stroke-linecap="round" stroke-linejoin="round" stroke-miterlimit="10" d="
		M6.294,73.311c0,2.372-1.923,4.294-4.294,4.294"/>
	
		<polyline fill="none" stroke="#297FC3" stroke-width="2" stroke-linecap="round" stroke-linejoin="round" stroke-miterlimit="10" points="
		30.348,75.043 30.348,91.705 3.711,91.705 	"/>
</g>
<g>
	<g>
		
			<polyline fill="none" stroke="#297FC3" stroke-width="2" stroke-linecap="round" stroke-linejoin="round" stroke-miterlimit="10" points="
			11.624,103.57 16.949,109.562 11.624,115.552 		"/>
		
			<line fill="none" stroke="#297FC3" stroke-width="2" stroke-linecap="round" stroke-linejoin="round" stroke-miterlimit="10" x1="16.949" y1="109.562" x2="2" y2="109.562"/>
	</g>
	
		<line fill="none" stroke="#297FC3" stroke-width="2" stroke-linecap="round" stroke-linejoin="round" stroke-miterlimit="10" x1="2" y1="113.888" x2="5.481" y2="113.888"/>
</g>
<path fill="none" stroke="#FFFFFF" stroke-width="2" stroke-linecap="round" stroke-linejoin="round" stroke-miterlimit="10" d="
	M60,44.698L60,44.698c-7.001,0-12.677-5.676-12.677-12.676V14.677C47.323,7.676,52.999,2,60,2l0,0
	c7.001,0,12.677,5.676,12.677,12.677v17.345C72.677,39.022,66.999,44.698,60,44.698z"/>
<path fill="none" stroke="#FFFFFF" stroke-width="2" stroke-linecap="round" stroke-linejoin="round" stroke-miterlimit="10" d="
	M59.735,23.349L59.735,23.349c-1.207,0-2.186-0.979-2.186-2.185v-7.645c0-1.207,0.979-2.186,2.186-2.186l0,0
	c1.207,0,2.185,0.979,2.185,2.186v7.645C61.92,22.371,60.942,23.349,59.735,23.349z"/>
<g>
	
		<rect x="110.057" y="1" fill="none" stroke="#FFFFFF" stroke-width="2" stroke-linecap="round" stroke-linejoin="round" stroke-miterlimit="10" width="28.137" height="28.137"/>
	
		<polyline fill="none" stroke="#FFFFFF" stroke-width="2" stroke-linecap="round" stroke-linejoin="round" stroke-miterlimit="10" points="
		113.809,19.02 113.809,25.385 120.174,25.385 	"/>
	
		<line fill="none" stroke="#FFFFFF" stroke-width="2" stroke-linecap="round" stroke-linejoin="round" stroke-miterlimit="10" x1="113.809" y1="25.385" x2="120.837" y2="18.356"/>
	
		<polyline fill="none" stroke="#FFFFFF" stroke-width="2" stroke-linecap="round" stroke-linejoin="round" stroke-miterlimit="10" points="
		134.441,11.117 134.441,4.752 128.076,4.752 	"/>
	
		<line fill="none" stroke="#FFFFFF" stroke-width="2" stroke-linecap="round" stroke-linejoin="round" stroke-miterlimit="10" x1="134.441" y1="4.752" x2="127.413" y2="11.781"/>
</g>
<g id="_x38__1_">
	<g>
		<path fill="#F89536" d="M24.067,134.637c-1.469-2.977-4.524-5.029-8.067-5.029c-4.749,0-8.63,3.682-8.967,8.344
			C3.542,138.947,1,141.996,1,145.607c0,4.26,3.54,7.73,8,7.977l17,0.023c3.437-1.492,7-5.649,7-9.5
			C33,139.053,29.049,134.932,24.067,134.637z M23.718,143.219c-0.393,0.391-1.03,0.391-1.423,0L18,138.943v9.649
			c0,0.553-0.447,1.001-1,1.001s-1-0.448-1-1.001v-9.618l-4.264,4.244c-0.393,0.391-1.029,0.391-1.423,0
			c-0.393-0.391-0.393-1.025,0-1.418l5.94-5.912c0.21-0.209,0.487-0.298,0.762-0.284c0.274-0.014,0.553,0.075,0.762,0.284
			l5.94,5.912C24.11,142.193,24.11,142.828,23.718,143.219z"/>
	</g>
</g>
<g>
	<path fill="#FFFFFF" d="M4.737,171.8l5.855,7.862l-2.526,0.057l0.002-0.004l7.174-10.865c0.311-0.471,0.943-0.6,1.412-0.289
		c0.447,0.296,0.584,0.887,0.328,1.348l-6.352,11.366l-0.002,0.003l-0.038,0.063c-0.417,0.686-1.313,0.904-2,0.486
		c-0.206-0.125-0.373-0.299-0.49-0.49l-5.064-8.395c-0.292-0.484-0.137-1.114,0.348-1.406C3.84,171.26,4.425,171.385,4.737,171.8z"
		/>
</g>
<g>
	
		<polyline fill="none" stroke="#297FC3" stroke-width="2" stroke-linecap="round" stroke-linejoin="round" stroke-miterlimit="10" points="
		49,95.899 64,80.524 79,95.899 	"/>
	
		<line fill="none" stroke="#297FC3" stroke-width="2" stroke-linecap="round" stroke-linejoin="round" stroke-miterlimit="10" x1="64" y1="80.524" x2="64" y2="112.225"/>
	
		<line fill="none" stroke="#297FC3" stroke-width="2" stroke-linecap="round" stroke-linejoin="round" stroke-miterlimit="10" x1="49" y1="73.225" x2="79" y2="73.225"/>
</g>
</svg>
