<?xml version="1.0" encoding="utf-8"?>
<!-- Generator: Adobe Illustrator 16.0.0, SVG Export Plug-In . SVG Version: 6.00 Build 0)  -->
<!DOCTYPE svg PUBLIC "-//W3C//DTD SVG 1.1//EN" "http://www.w3.org/Graphics/SVG/1.1/DTD/svg11.dtd">
<svg version="1.1" id="Слой_1" xmlns="http://www.w3.org/2000/svg" xmlns:xlink="http://www.w3.org/1999/xlink" x="0px" y="0px"
	 width="1200px" height="720px" viewBox="0 0 1200 720" enable-background="new 0 0 1200 720" xml:space="preserve">
<g>
	<defs>
		<path id="SVGID_1_" d="M1160.857-1.003c-20.001,0-20.001,10-40.002,10c-19.998,0-19.998-10-39.996-10
			c-20.001,0-20.001,10-40.002,10s-20.001-10-40.002-10c-19.998,0-19.998,10-39.996,10c-20.001,0-20.001-10-40.002-10
			s-20.001,10-40.002,10c-19.998,0-19.998-10-39.996-10c-20.001,0-20.001,10-40.002,10s-20.001-10-40.002-10
			c-19.998,0-19.998,10-39.996,10c-20.001,0-20.001-10-40.002-10s-20.001,10-40.002,10c-19.998,0-19.998-10-39.996-10
			c-20.001,0-20.001,10-40.002,10s-20.001-10-40.002-10c-19.998,0-19.998,10-39.996,10c-20.001,0-20.001-10-40.002-10
			s-20.001,10-40.002,10c-19.998,0-19.998-10-39.996-10c-20.001,0-20.001,10-40.002,10s-20.001-10-40.002-10
			c-19.998,0-19.998,10-39.996,10c-20.001,0-20.001-10-40.002-10s-20.001,10-40.002,10c-19.998,0-19.998-10-39.996-10
			c-20.001,0-20.001,10-40.002,10s-20.001-10-40.002-10c-19.998,0-19.998,10-39.996,10v700c19.998,0,19.998,10,39.996,10
			c20.001,0,20.001-10,40.002-10s20.001,10,40.002,10c19.998,0,19.998-10,39.996-10c20.001,0,20.001,10,40.002,10
			s20.001-10,40.002-10c19.998,0,19.998,10,39.996,10c20.001,0,20.001-10,40.002-10s20.001,10,40.002,10
			c19.998,0,19.998-10,39.996-10c20.001,0,20.001,10,40.002,10s20.001-10,40.002-10c19.998,0,19.998,10,39.996,10
			c20.001,0,20.001-10,40.002-10s20.001,10,40.002,10c19.998,0,19.998-10,39.996-10c20.001,0,20.001,10,40.002,10
			s20.001-10,40.002-10c19.998,0,19.998,10,39.996,10c20.001,0,20.001-10,40.002-10s20.001,10,40.002,10
			c19.998,0,19.998-10,39.996-10c20.001,0,20.001,10,40.002,10s20.001-10,40.002-10c19.998,0,19.998,10,39.996,10
			c20.001,0,20.001-10,40.002-10s20.001,10,40.002,10c19.998,0,19.998-10,39.996-10c20.001,0,20.001,10,40.002,10
			s20.001-10,40.002-10v-700C1180.858,8.997,1180.858-1.003,1160.857-1.003z"/>
	</defs>
	<clipPath id="SVGID_2_">
		<use xlink:href="#SVGID_1_"  overflow="visible"/>
	</clipPath>
	<g opacity="0.5" clip-path="url(#SVGID_2_)">
		<path fill="#CDE1E7" d="M-100.973-22.037c-2.286-1.708-3.566-4.445-3.41-7.294l0.885-16.197c0.09-1.641-2.104-2.27-2.896-0.83
			l-12.735,23.104c-6.275-3.372-18.443-6.144-28.834-1.284c-10.325,4.827-15.899,16.031-17.401,22.971l-25.998-5.061
			c-1.613-0.314-2.537,1.771-1.22,2.755l12.998,9.706c2.286,1.707,3.565,4.445,3.41,7.293l-0.885,16.198
			c-0.089,1.641,2.104,2.27,2.896,0.83l12.786-23.196c6.288,3.298,18.459,6.203,28.784,1.375
			c10.392-4.858,16.066-15.973,17.502-22.95l28.087,5.468c1.081,0.211,1.7-1.188,0.817-1.847L-100.973-22.037z"/>
		<path fill="#CDE1E7" d="M-225.398,8.405l-40.584,15.807l-2.981,16.511l42.91,26.004l14.018-48.177L-225.398,8.405z
			 M-232.11,52.868c0,0-20.738-7.032-23.949-15.277c-4.446-11.416,10.703-18.732,15.355-6.789
			c-4.652-11.943,11.547-16.566,15.902-5.385C-221.591,33.662-232.11,52.868-232.11,52.868z"/>
		<polygon fill="#CDE1E7" points="-21.875,-2.886 -6.23,10.893 14.578,12.146 6.309,31.282 11.546,51.46 -9.208,49.509 
			-26.78,60.726 -31.337,40.383 -47.435,27.138 -29.497,16.518 		"/>
		<path fill="#CDE1E7" d="M-66.7,94.978c-0.331-0.236-0.729-0.26-1.062-0.124c-0.333,0.135-0.601,0.43-0.673,0.829l-3.585,19.869
			c-0.099,0.55-0.04,1.116,0.17,1.634l12.441,30.587l8.081,3.08c4.094-1.666,6.794-2.764,10.888-4.429l3.637-7.846l-12.441-30.587
			c-0.21-0.518-0.563-0.964-1.018-1.289L-66.7,94.978z M-68.558,107.714c0,0,1.862,0.954,5.77-0.635
			c3.908-1.59,4.575-3.572,4.575-3.572l5.585,3.984c0.307,0.219,0.415,0.626,0.256,0.968l-2.326,5.019l-9.417,3.83l-5.168-1.97
			c-0.353-0.134-0.56-0.501-0.493-0.872L-68.558,107.714z"/>
		<path fill="#CDE1E7" d="M512.947-23.92L472.364-8.113l-2.981,16.511l42.91,26.004l14.018-48.177L512.947-23.92z M506.236,20.542
			c0,0-20.738-7.031-23.949-15.276c-4.446-11.416,10.703-18.732,15.354-6.79c-4.651-11.942,11.547-16.565,15.902-5.384
			C516.754,1.337,506.236,20.542,506.236,20.542z"/>
		<polygon fill="#CDE1E7" points="-85.031,193.874 -69.387,207.652 -48.578,208.906 -56.848,228.042 -51.61,248.22 -72.365,246.268 
			-89.937,257.485 -94.494,237.143 -110.592,223.897 -92.653,213.277 		"/>
		<path fill="#CDE1E7" d="M52.741,170.615l-40.584,15.807l-2.981,16.511l42.91,26.004l14.018-48.176L52.741,170.615z
			 M46.029,215.077c0,0-20.737-7.031-23.949-15.276c-4.446-11.416,10.703-18.732,15.354-6.789
			c-4.651-11.943,11.547-16.566,15.902-5.385C56.548,195.872,46.029,215.077,46.029,215.077z"/>
		<path fill="#CDE1E7" d="M212.209,135.023l-24.062-10.53c-4.154-1.82-7.445-5.015-9.266-8.996
			c-1.931-4.224-2.005-8.811-0.207-12.913c1.659-3.787,4.76-6.728,8.732-8.28c2.643-1.032,5.558-1.392,8.474-1.051
			c1.912-2.228,4.298-3.939,6.941-4.972c3.972-1.553,8.246-1.493,12.032,0.166c4.104,1.798,7.159,5.219,8.603,9.634
			c1.36,4.161,1.108,8.739-0.711,12.892L212.209,135.023z"/>
		<path fill="#CDE1E7" d="M-113.709,170.677l-24.062-10.53c-4.154-1.82-7.444-5.015-9.265-8.996
			c-1.932-4.225-2.005-8.811-0.208-12.914c1.659-3.787,4.76-6.728,8.732-8.279c2.643-1.033,5.558-1.393,8.474-1.051
			c1.912-2.228,4.298-3.939,6.941-4.973c3.972-1.552,8.246-1.493,12.032,0.166c4.104,1.798,7.159,5.22,8.603,9.634
			c1.361,4.161,1.108,8.74-0.711,12.893L-113.709,170.677z"/>
		<path fill="#CDE1E7" d="M297.428,60.195c-8.45-1.041-16.523,4.47-18.63,12.719c-1.022,4.004-0.555,7.992,1.029,11.421
			c1.467,3.177,1.873,6.753,1.069,10.158c-0.089,0.376-0.159,0.761-0.209,1.154c-0.199,1.562-0.042,3.102,0.401,4.542
			c0.212,0.69,0.609,1.317,1.18,1.761c1.107,0.859,3.362,1.995,7.928,2.85c4.856,0.91,7.517,0.422,8.849-0.092
			c0.667-0.257,1.225-0.722,1.637-1.306c0.888-1.258,1.527-2.722,1.829-4.335c0.033-0.177,0.062-0.354,0.086-0.529
			c0.489-3.54,2.31-6.718,4.845-9.236c2.373-2.358,4.08-5.435,4.743-8.972C313.991,70.685,307.321,61.415,297.428,60.195z
			 M300.31,65.082c-8.262-1.02-16.157,4.356-18.235,12.417c-0.316,1.226-0.422,2.929-0.461,4.299
			c-0.04,1.361-1.053-0.335-1.26-1.747c-0.277-1.891-0.19-3.874,0.322-5.862c1.834-7.116,8.805-11.861,16.099-10.962
			C299.279,63.535,301.401,65.216,300.31,65.082z"/>
		<path fill="#CDE1E7" d="M289.803,106.902c-3.481-0.651-5.831-1.497-7.418-2.351c-0.355-0.191-0.783,0.063-0.777,0.466l0.054,3.886
			c0.018,1.227,3.731,5.967,6.551,6.495c2.818,0.527,7.997-2.548,8.456-3.686l1.507-3.729c0.153-0.38-0.165-0.774-0.57-0.714
			C295.788,107.546,293.265,107.551,289.803,106.902z"/>
		<path fill="#CDE1E7" d="M-60.413,284.506c-8.45-1.041-16.523,4.47-18.63,12.719c-1.022,4.003-0.554,7.991,1.029,11.421
			c1.467,3.176,1.873,6.753,1.069,10.158c-0.089,0.376-0.159,0.761-0.209,1.154c-0.199,1.562-0.042,3.102,0.401,4.542
			c0.212,0.69,0.609,1.317,1.18,1.761c1.107,0.859,3.362,1.995,7.928,2.85c4.856,0.91,7.517,0.422,8.849-0.092
			c0.667-0.257,1.225-0.722,1.637-1.306c0.889-1.258,1.527-2.722,1.829-4.335c0.033-0.177,0.062-0.354,0.086-0.529
			c0.489-3.54,2.31-6.718,4.845-9.236c2.373-2.358,4.08-5.435,4.743-8.972C-43.851,294.995-50.521,285.725-60.413,284.506z
			 M-57.531,289.392c-8.262-1.019-16.157,4.357-18.235,12.418c-0.316,1.226-0.422,2.929-0.461,4.298
			c-0.039,1.362-1.053-0.334-1.26-1.746c-0.277-1.891-0.19-3.874,0.322-5.862c1.834-7.116,8.805-11.862,16.099-10.963
			C-58.563,287.846-56.44,289.526-57.531,289.392z"/>
		<path fill="#CDE1E7" d="M-68.038,331.213c-3.481-0.652-5.831-1.497-7.418-2.351c-0.355-0.191-0.783,0.063-0.777,0.466l0.054,3.886
			c0.017,1.227,3.731,5.967,6.55,6.494c2.819,0.528,7.997-2.547,8.457-3.685l1.507-3.729c0.154-0.38-0.165-0.775-0.57-0.714
			C-62.053,331.856-64.577,331.86-68.038,331.213z"/>
		<polygon fill="#CDE1E7" points="775.693,93.164 790.841,106.462 810.963,107.64 802.997,126.155 808.094,145.656 788.023,143.803 
			771.052,154.676 766.613,135.015 751.027,122.234 768.354,111.937 		"/>
		<path fill="#CDE1E7" d="M-143.985,322.538l-40.558,15.873l-2.954,16.516l42.953,25.934l13.938-48.2L-143.985,322.538z
			 M-150.623,367.011c0,0-20.749-6.997-23.974-15.237c-4.465-11.408,10.672-18.749,15.343-6.814
			c-4.671-11.935,11.52-16.585,15.893-5.411C-140.136,347.788-150.623,367.011-150.623,367.011z"/>
		<path fill="#CDE1E7" d="M160.304,163.999c-8.452-1.026-16.516,4.497-18.609,12.75c-1.016,4.005-0.542,7.992,1.048,11.419
			c1.472,3.174,1.884,6.749,1.086,10.156c-0.088,0.376-0.157,0.762-0.207,1.154c-0.196,1.562-0.036,3.103,0.409,4.542
			c0.213,0.689,0.612,1.316,1.183,1.758c1.109,0.858,3.365,1.99,7.932,2.838c4.858,0.901,7.518,0.409,8.849-0.106
			c0.666-0.259,1.223-0.725,1.635-1.309c0.886-1.26,1.522-2.725,1.822-4.338c0.033-0.177,0.061-0.354,0.085-0.53
			c0.483-3.54,2.299-6.722,4.83-9.244c2.369-2.361,4.071-5.441,4.728-8.979C176.883,174.461,170.198,165.202,160.304,163.999z
			 M163.193,168.881c-8.264-1.005-16.15,4.384-18.215,12.447c-0.314,1.226-0.417,2.93-0.455,4.299
			c-0.037,1.362-1.053-0.332-1.263-1.744c-0.28-1.891-0.196-3.874,0.313-5.862c1.822-7.119,8.786-11.877,16.081-10.989
			C162.16,167.336,164.285,169.014,163.193,168.881z"/>
		<path fill="#CDE1E7" d="M152.755,210.719c-3.482-0.646-5.833-1.487-7.422-2.339c-0.355-0.19-0.782,0.064-0.776,0.468l0.06,3.885
			c0.019,1.228,3.741,5.962,6.561,6.484c2.819,0.523,7.992-2.561,8.45-3.699l1.501-3.73c0.153-0.381-0.167-0.774-0.572-0.713
			C158.741,211.353,156.218,211.361,152.755,210.719z"/>
		<path fill="#CDE1E7" d="M-119.737,410.33c-0.332-0.235-0.729-0.259-1.062-0.122c-0.333,0.136-0.6,0.431-0.672,0.83l-3.553,19.876
			c-0.098,0.55-0.038,1.116,0.173,1.633l12.492,30.566l8.085,3.066c4.091-1.672,6.789-2.774,10.88-4.446l3.624-7.852l-12.492-30.566
			c-0.211-0.518-0.565-0.964-1.021-1.287L-119.737,410.33z M-121.574,423.07c0,0,1.863,0.95,5.769-0.646s4.569-3.58,4.569-3.58
			l5.592,3.976c0.308,0.219,0.416,0.625,0.258,0.968l-2.318,5.022l-9.411,3.846l-5.172-1.961c-0.353-0.134-0.561-0.5-0.494-0.872
			L-121.574,423.07z"/>
		<path fill="#CDE1E7" d="M227.621,266.311l-40.558,15.874l-2.954,16.516l42.953,25.933L241,276.434L227.621,266.311z
			 M220.982,310.784c0,0-20.749-6.998-23.974-15.237c-4.465-11.408,10.672-18.75,15.343-6.814
			c-4.671-11.936,11.52-16.586,15.893-5.411C231.47,291.562,220.982,310.784,220.982,310.784z"/>
		<path fill="#CDE1E7" d="M418.028,229.979l-24.079-10.491c-4.157-1.813-7.453-5.002-9.28-8.98
			c-1.938-4.221-2.02-8.807-0.229-12.913c1.653-3.79,4.749-6.735,8.719-8.294c2.642-1.037,5.556-1.401,8.472-1.064
			c1.908-2.231,4.292-3.947,6.933-4.984c3.97-1.559,8.243-1.506,12.033,0.146c4.107,1.791,7.167,5.207,8.618,9.619
			c1.368,4.159,1.123,8.738-0.689,12.894L418.028,229.979z"/>
		<path fill="#CDE1E7" d="M709.211,17.693L686.61,7.847c-3.902-1.701-6.995-4.695-8.711-8.429
			c-1.819-3.962-1.896-8.267-0.214-12.121c1.551-3.557,4.457-6.321,8.184-7.785c2.479-0.973,5.214-1.315,7.951-0.999
			c1.791-2.094,4.028-3.704,6.508-4.678c3.726-1.463,7.736-1.414,11.294,0.138c3.854,1.681,6.728,4.887,8.089,9.028
			c1.284,3.903,1.054,8.201-0.647,12.102L709.211,17.693z"/>
		<polygon fill="#CDE1E7" points="-123.654,499.495 -107.987,513.248 -87.176,514.468 -95.415,533.617 -90.143,553.786 
			-110.901,551.868 -128.454,563.114 -133.045,542.779 -149.165,529.562 -131.244,518.911 		"/>
		<path fill="#CDE1E7" d="M418.324,302.349l-0.3-0.454l0.017-0.058c0.845-3.081-1.09-6.235-4.221-6.876l-0.072-0.015
			c-0.865-0.178-1.763-0.107-2.591,0.201l-12.926,4.822l-0.004-0.073c-0.174-3.166-0.814-6.28-1.916-9.233
			c-3.483-9.338-10.377-6.44-11.072-5.228c-0.211,0.369-0.257,0.809-0.126,1.213l2.521,7.77l-0.009,0.088
			c-0.611,5.716-2.541,11.21-5.637,16.054l-0.038,0.059l-0.054-0.145c-0.479-1.282-1.907-1.935-3.189-1.456l-12.817,4.781
			c-1.283,0.479-1.935,1.907-1.457,3.189l8.023,21.505c0.479,1.283,1.906,1.936,3.189,1.456l12.817-4.781
			c1.283-0.479,1.934-1.906,1.456-3.189l-0.653-1.751c1.51,1.536,3.836,2.132,5.985,1.33l21.239-7.924
			c0.699-0.261,1.354-0.628,1.94-1.089l0.009-0.007c1.4-2.066,1.792-4.654,1.064-7.042l-0.012-0.038l0.018-0.032
			c1.055-2.053,1.024-4.494-0.083-6.519l-0.084-0.154l0.009-0.035C419.938,306.546,419.564,304.226,418.324,302.349z"/>
		<path fill="#CDE1E7" d="M501.859,80.962l-0.3-0.453l0.017-0.058c0.845-3.081-1.09-6.235-4.221-6.876l-0.072-0.015
			c-0.865-0.177-1.763-0.107-2.591,0.201l-12.926,4.822l-0.004-0.073c-0.174-3.166-0.814-6.28-1.916-9.233
			c-3.483-9.338-10.377-6.44-11.072-5.228c-0.211,0.369-0.257,0.809-0.126,1.213l2.521,7.77l-0.009,0.088
			c-0.611,5.715-2.541,11.21-5.637,16.053l-0.038,0.06l-0.054-0.145c-0.479-1.282-1.906-1.935-3.189-1.456l-12.817,4.781
			c-1.283,0.479-1.935,1.907-1.457,3.189l8.023,21.505c0.479,1.283,1.906,1.936,3.189,1.456l12.817-4.781
			c1.283-0.479,1.934-1.906,1.456-3.189l-0.653-1.751c1.51,1.536,3.836,2.132,5.985,1.33l21.239-7.924
			c0.698-0.261,1.353-0.628,1.94-1.089l0.009-0.008c1.4-2.064,1.792-4.653,1.065-7.041l-0.012-0.038l0.017-0.032
			c1.055-2.053,1.024-4.494-0.083-6.519l-0.084-0.154l0.009-0.035C503.474,85.16,503.099,82.84,501.859,80.962z"/>
		<path fill="#CDE1E7" d="M321.415,0.376l-0.3-0.453l0.017-0.058c0.845-3.081-1.09-6.235-4.221-6.876l-0.072-0.016
			c-0.865-0.177-1.763-0.106-2.591,0.202l-12.927,4.822l-0.004-0.073c-0.174-3.166-0.814-6.28-1.916-9.233
			c-3.483-9.338-10.377-6.44-11.072-5.228c-0.211,0.369-0.257,0.809-0.126,1.213l2.521,7.77l-0.009,0.088
			c-0.611,5.715-2.541,11.21-5.637,16.053l-0.038,0.06l-0.054-0.145c-0.479-1.282-1.906-1.935-3.189-1.456l-12.817,4.781
			c-1.283,0.479-1.935,1.907-1.456,3.189l8.023,21.505c0.479,1.283,1.906,1.936,3.189,1.456l12.817-4.781
			c1.283-0.479,1.935-1.906,1.456-3.189l-0.653-1.751c1.51,1.536,3.837,2.132,5.985,1.33l21.239-7.924
			c0.698-0.261,1.353-0.628,1.94-1.089l0.009-0.008c1.4-2.065,1.792-4.653,1.065-7.041l-0.012-0.038l0.017-0.032
			c1.055-2.053,1.024-4.494-0.083-6.519l-0.084-0.154l0.009-0.035C323.029,4.574,322.655,2.254,321.415,0.376z"/>
		<path fill="#CDE1E7" d="M3.172,533.953l-40.558,15.874l-2.954,16.516l42.953,25.933l13.938-48.199L3.172,533.953z M-3.466,578.427
			c0,0-20.75-6.998-23.974-15.237c-4.465-11.409,10.672-18.75,15.343-6.815c-4.671-11.935,11.52-16.585,15.893-5.41
			C7.021,559.204-3.466,578.427-3.466,578.427z"/>
		<path fill="#CDE1E7" d="M982.205,90.895c-0.331-0.235-0.729-0.259-1.062-0.122c-0.333,0.136-0.601,0.431-0.672,0.831
			l-3.553,19.875c-0.099,0.55-0.038,1.116,0.173,1.633l12.491,30.566l8.086,3.066c4.091-1.672,6.789-2.774,10.88-4.446l3.624-7.852
			l-12.491-30.566c-0.212-0.518-0.565-0.963-1.021-1.287L982.205,90.895z M980.368,103.635c0,0,1.863,0.95,5.769-0.646
			s4.569-3.579,4.569-3.579l5.592,3.975c0.308,0.219,0.415,0.625,0.257,0.968l-2.317,5.022l-9.411,3.846l-5.172-1.961
			c-0.353-0.134-0.561-0.5-0.494-0.872L980.368,103.635z"/>
		<path fill="#CDE1E7" d="M953.32,204.214l-26.908-11.723c-4.646-2.026-8.328-5.59-10.37-10.036
			c-2.166-4.717-2.257-9.841-0.255-14.43c1.846-4.235,5.307-7.526,9.742-9.269c2.952-1.159,6.208-1.566,9.467-1.189
			c2.133-2.493,4.796-4.41,7.748-5.569c4.436-1.742,9.211-1.684,13.445,0.163c4.59,2.002,8.01,5.819,9.631,10.749
			c1.528,4.647,1.255,9.765-0.771,14.408L953.32,204.214z"/>
		<path fill="#CDE1E7" d="M222.875,234.066c-1.043,0.064-2.1-0.375-2.783-1.269c-1.09-1.425-0.82-3.463,0.605-4.554
			c7.373-5.644,19.227-10.369,29.155-8.26c5.261-8.679,16.82-14.083,25.982-15.594c1.767-0.29,3.442,0.905,3.734,2.678
			c0.292,1.77-0.907,3.442-2.678,3.734c-7.476,1.231-17.405,5.713-21.537,12.641c-1.388,2.329-4.1,3.504-6.749,2.919
			c-7.877-1.729-17.941,2.436-23.958,7.041C224.114,233.81,223.497,234.027,222.875,234.066z"/>
		<path fill="#CDE1E7" d="M260.001,167.841c-3.129-0.166-6.976,0.764-10.744,2.356l12.285,28.397l0.316,0.715
			c0.353,0.8,0.053,1.737-0.703,2.175c-1.893,1.097-5.291,3.278-6.815,5.596c-2.223,3.379-2.943,6.145-3.138,7.985
			c4.974-6.666,14.644-11.377,22.638-13.074c0.843-0.179,1.309-1.079,0.967-1.869l-13.608-31.457
			C260.99,168.184,260.525,167.869,260.001,167.841z"/>
		<path fill="#CDE1E7" d="M242.869,166.276c-1.648,0.816-4.33,2.581-6.568,6.105c-3.634,5.724-2.802,10.714-2.802,10.714
			s-3.067-4.023-9.727-5.294c-4.101-0.782-7.224-0.036-8.946,0.606c-0.848,0.316-1.25,1.282-0.891,2.112l7.051,16.301l6.208,14.35
			c0.449,1.037,1.595,1.569,2.686,1.271c1.641-0.448,4.244-0.877,7.284-0.348c5.71,0.994,8.883,3.307,10.394,4.784
			c0.356,0.349,0.947,0.093,0.937-0.405c-0.043-2.112,0.445-6.008,3.63-10.851c1.697-2.58,3.792-4.185,5.243-5.073
			c0.964-0.59,1.358-1.789,0.909-2.826l-13.259-30.649C244.659,166.243,243.679,165.875,242.869,166.276z"/>
		<path fill="#CDE1E7" d="M204.234,191.966c2.022-2.395,5.333-4.562,9.073-6.217l12.285,28.397l0.305,0.72
			c0.341,0.805,1.23,1.229,2.067,0.977c2.095-0.629,6.011-1.611,8.745-1.136c3.985,0.693,6.494,2.062,7.968,3.181
			c-8.264-0.939-18.318,2.882-25.029,7.547c-0.708,0.491-1.683,0.215-2.025-0.575l-13.608-31.457
			C203.807,192.921,203.896,192.366,204.234,191.966z"/>
		<path fill="#CDE1E7" d="M-393.627,298.113c-1.043,0.065-2.1-0.374-2.783-1.268c-1.09-1.425-0.82-3.464,0.605-4.554
			c7.373-5.645,19.227-10.369,29.155-8.261c5.261-8.679,16.819-14.082,25.982-15.593c1.767-0.29,3.442,0.905,3.734,2.678
			c0.292,1.77-0.907,3.442-2.677,3.733c-7.477,1.232-17.405,5.714-21.538,12.642c-1.388,2.329-4.1,3.504-6.749,2.918
			c-7.877-1.728-17.941,2.437-23.958,7.042C-392.388,297.857-393.005,298.075-393.627,298.113z"/>
		<path fill="#CDE1E7" d="M-356.5,231.889c-3.129-0.166-6.976,0.763-10.744,2.355l12.285,28.397l0.315,0.716
			c0.353,0.799,0.053,1.737-0.703,2.175c-1.893,1.096-5.291,3.277-6.815,5.596c-2.223,3.379-2.943,6.145-3.138,7.985
			c4.974-6.666,14.643-11.378,22.638-13.074c0.843-0.18,1.309-1.079,0.967-1.87l-13.608-31.456
			C-355.512,232.23-355.977,231.916-356.5,231.889z"/>
		<path fill="#CDE1E7" d="M-373.633,230.324c-1.648,0.815-4.33,2.581-6.568,6.105c-3.634,5.724-2.802,10.714-2.802,10.714
			s-3.067-4.023-9.727-5.294c-4.101-0.782-7.224-0.036-8.947,0.606c-0.848,0.315-1.25,1.281-0.891,2.112l7.051,16.3l6.208,14.35
			c0.449,1.038,1.595,1.57,2.686,1.272c1.641-0.449,4.244-0.877,7.284-0.348c5.71,0.994,8.884,3.307,10.394,4.784
			c0.355,0.348,0.947,0.092,0.937-0.405c-0.043-2.112,0.445-6.009,3.63-10.851c1.697-2.58,3.793-4.185,5.244-5.073
			c0.963-0.59,1.357-1.789,0.909-2.826l-13.259-30.649C-371.843,230.291-372.822,229.923-373.633,230.324z"/>
		<path fill="#CDE1E7" d="M-412.267,256.013c2.022-2.394,5.333-4.561,9.073-6.217l12.285,28.398l0.305,0.72
			c0.341,0.804,1.23,1.228,2.067,0.977c2.095-0.629,6.011-1.612,8.744-1.136c3.985,0.693,6.494,2.062,7.969,3.181
			c-8.264-0.939-18.318,2.882-25.029,7.546c-0.708,0.492-1.683,0.216-2.025-0.575l-13.608-31.456
			C-412.695,256.968-412.605,256.414-412.267,256.013z"/>
		<path fill="#CDE1E7" d="M-281.097,5.234c-1.044,0.064-2.1-0.374-2.783-1.268c-1.09-1.426-0.82-3.464,0.605-4.555
			c7.373-5.644,19.227-10.369,29.154-8.26c5.261-8.679,16.82-14.083,25.983-15.593c1.767-0.291,3.442,0.905,3.734,2.678
			c0.292,1.77-0.907,3.441-2.678,3.733c-7.477,1.231-17.405,5.713-21.538,12.641c-1.388,2.329-4.099,3.505-6.749,2.919
			c-7.877-1.728-17.941,2.437-23.958,7.041C-279.858,4.979-280.475,5.196-281.097,5.234z"/>
		<path fill="#CDE1E7" d="M-243.971-60.991c-3.129-0.165-6.976,0.764-10.743,2.356l12.285,28.397l0.316,0.715
			c0.353,0.8,0.053,1.737-0.703,2.176c-1.893,1.096-5.291,3.277-6.816,5.595c-2.223,3.38-2.943,6.145-3.138,7.985
			c4.974-6.665,14.644-11.377,22.638-13.074c0.843-0.179,1.31-1.078,0.967-1.869l-13.608-31.457
			C-242.981-60.648-243.446-60.963-243.971-60.991z"/>
		<path fill="#CDE1E7" d="M-261.103-62.556c-1.648,0.816-4.33,2.581-6.568,6.105c-3.634,5.724-2.802,10.715-2.802,10.715
			s-3.067-4.023-9.727-5.295c-4.101-0.782-7.224-0.036-8.947,0.606c-0.848,0.316-1.25,1.282-0.891,2.112l7.052,16.301l6.208,14.35
			c0.449,1.038,1.595,1.57,2.686,1.271c1.641-0.448,4.244-0.876,7.284-0.348c5.71,0.994,8.884,3.307,10.394,4.784
			c0.355,0.349,0.947,0.093,0.937-0.405c-0.043-2.112,0.444-6.008,3.63-10.851c1.697-2.58,3.793-4.184,5.244-5.072
			c0.963-0.591,1.357-1.79,0.909-2.827l-13.259-30.649C-259.313-62.588-260.292-62.957-261.103-62.556z"/>
		<path fill="#CDE1E7" d="M-299.737-36.866c2.021-2.394,5.333-4.562,9.073-6.217l12.285,28.397l0.305,0.72
			c0.341,0.805,1.229,1.229,2.066,0.978c2.095-0.63,6.011-1.612,8.745-1.137c3.985,0.694,6.494,2.063,7.968,3.181
			c-8.263-0.938-18.318,2.883-25.029,7.547c-0.708,0.492-1.683,0.216-2.025-0.575l-13.608-31.456
			C-300.165-35.911-300.076-36.465-299.737-36.866z"/>
		<path fill="#CDE1E7" d="M356.559,94.043c-1.043,0.064-2.1-0.375-2.783-1.269c-1.09-1.425-0.82-3.463,0.605-4.554
			c7.374-5.644,19.227-10.369,29.155-8.26c5.261-8.679,16.82-14.083,25.982-15.594c1.768-0.29,3.442,0.905,3.734,2.678
			c0.292,1.77-0.906,3.442-2.677,3.734c-7.477,1.231-17.405,5.713-21.538,12.641c-1.388,2.329-4.099,3.505-6.749,2.919
			c-7.877-1.729-17.941,2.436-23.958,7.041C357.798,93.786,357.181,94.004,356.559,94.043z"/>
		<path fill="#CDE1E7" d="M393.686,27.817c-3.129-0.166-6.976,0.764-10.744,2.355l12.285,28.398l0.315,0.715
			c0.353,0.8,0.053,1.737-0.703,2.176c-1.893,1.096-5.291,3.276-6.815,5.595c-2.223,3.379-2.943,6.145-3.138,7.985
			c4.974-6.666,14.644-11.377,22.638-13.074c0.843-0.179,1.309-1.079,0.967-1.869l-13.608-31.457
			C394.674,28.16,394.209,27.846,393.686,27.817z"/>
		<path fill="#CDE1E7" d="M376.553,26.253c-1.648,0.816-4.33,2.581-6.568,6.105c-3.634,5.724-2.802,10.714-2.802,10.714
			s-3.067-4.023-9.727-5.294c-4.101-0.782-7.224-0.036-8.947,0.606c-0.848,0.316-1.25,1.282-0.891,2.112l7.052,16.3l6.208,14.351
			c0.449,1.038,1.595,1.569,2.686,1.271c1.641-0.449,4.244-0.877,7.284-0.348c5.71,0.994,8.884,3.307,10.394,4.784
			c0.356,0.349,0.947,0.093,0.937-0.405c-0.043-2.112,0.445-6.008,3.63-10.851c1.697-2.58,3.793-4.185,5.244-5.073
			c0.963-0.59,1.357-1.789,0.909-2.826l-13.259-30.649C378.343,26.22,377.364,25.852,376.553,26.253z"/>
		<path fill="#CDE1E7" d="M337.919,51.942c2.022-2.395,5.333-4.562,9.073-6.217l12.285,28.397l0.305,0.72
			c0.341,0.805,1.23,1.229,2.067,0.977c2.095-0.629,6.011-1.611,8.745-1.136c3.985,0.693,6.494,2.062,7.968,3.181
			c-8.263-0.939-18.318,2.882-25.029,7.547c-0.708,0.491-1.683,0.215-2.025-0.575L337.7,53.379
			C337.491,52.897,337.581,52.343,337.919,51.942z"/>
		<path fill="#CDE1E7" d="M916.413,40.529l-50.391,23.958c-3.741,1.779-5.165,6.604-3.181,10.777l12.898,27.131
			c1.984,4.173,6.626,6.114,10.367,4.336l4.619-2.197c1.296-0.615,3.237-0.371,4.333,1.934c0.428,0.899,1.06,2.233,2.775,5.846
			c0.747,1.577,1.558,1.393,1.769,1.321c0.837-0.275,1.388-1.329,2.729-4.16c0.555-1.173,2.04-4.344,4.414-9.449
			c1.034-2.223,3.78-4.904,4.73-5.356l25.019-11.896c3.742-1.778,5.167-6.605,3.182-10.779l-12.898-27.129
			C924.795,40.692,920.153,38.751,916.413,40.529z"/>
		<path fill="#CDE1E7" d="M131.117,33.763L80.726,57.721c-3.741,1.778-5.165,6.604-3.181,10.777l12.899,27.13
			c1.984,4.174,6.625,6.115,10.366,4.336l4.62-2.196c1.295-0.616,3.237-0.372,4.333,1.933c0.427,0.899,1.059,2.233,2.775,5.846
			c0.748,1.578,1.558,1.393,1.769,1.321c0.836-0.274,1.388-1.329,2.728-4.16c0.555-1.173,2.04-4.343,4.415-9.448
			c1.034-2.224,3.78-4.905,4.73-5.356l25.019-11.896c3.742-1.779,5.167-6.605,3.182-10.78l-12.898-27.128
			C139.498,33.925,134.857,31.983,131.117,33.763z"/>
		<path fill="#CDE1E7" d="M-203.956,215.725l-50.39,23.959c-3.741,1.778-5.166,6.604-3.181,10.777l12.899,27.13
			c1.984,4.174,6.626,6.114,10.367,4.336l4.62-2.196c1.296-0.616,3.237-0.372,4.333,1.933c0.428,0.899,1.06,2.233,2.776,5.846
			c0.748,1.578,1.558,1.393,1.769,1.321c0.836-0.274,1.387-1.329,2.728-4.16c0.555-1.173,2.04-4.343,4.415-9.448
			c1.034-2.224,3.78-4.905,4.73-5.357l25.019-11.895c3.742-1.779,5.166-6.605,3.182-10.78l-12.898-27.129
			C-195.574,215.888-200.215,213.946-203.956,215.725z"/>
		<path fill="#CDE1E7" d="M73.042,329.739l-50.39,23.958c-3.741,1.779-5.166,6.604-3.181,10.777l12.899,27.13
			c1.984,4.174,6.625,6.115,10.367,4.336l4.62-2.196c1.296-0.616,3.237-0.372,4.333,1.933c0.428,0.899,1.06,2.233,2.775,5.846
			c0.748,1.578,1.558,1.393,1.77,1.322c0.836-0.275,1.387-1.329,2.728-4.161c0.555-1.173,2.04-4.343,4.415-9.448
			c1.034-2.223,3.78-4.905,4.73-5.356l25.019-11.896c3.742-1.779,5.167-6.605,3.182-10.78l-12.898-27.128
			C81.424,329.901,76.783,327.961,73.042,329.739z"/>
		<polygon fill="#CDE1E7" points="492.4,311.608 508.044,325.388 528.853,326.641 520.583,345.776 525.821,365.954 505.066,364.003 
			487.495,375.22 482.938,354.878 466.839,341.632 484.778,331.012 		"/>
		<path fill="#CDE1E7" d="M729.572,266.588c-2.286-1.708-3.566-4.445-3.41-7.294l0.885-16.197c0.09-1.642-2.104-2.27-2.896-0.831
			l-12.735,23.105c-6.275-3.372-18.443-6.144-28.835-1.284c-10.324,4.827-15.898,16.031-17.4,22.971l-25.998-5.062
			c-1.613-0.313-2.536,1.772-1.22,2.755l12.997,9.707c2.286,1.707,3.566,4.444,3.41,7.293l-0.885,16.198
			c-0.09,1.641,2.104,2.269,2.896,0.83l12.785-23.196c6.289,3.298,18.46,6.203,28.785,1.375
			c10.392-4.858,16.066-15.973,17.502-22.95l28.087,5.468c1.081,0.21,1.7-1.188,0.817-1.847L729.572,266.588z"/>
		<path fill="#CDE1E7" d="M605.146,297.03l-40.583,15.807l-2.981,16.511l42.91,26.004l14.019-48.177L605.146,297.03z
			 M598.435,341.492c0,0-20.738-7.031-23.949-15.276c-4.446-11.416,10.703-18.732,15.355-6.789
			c-4.652-11.943,11.547-16.566,15.901-5.385C608.954,322.287,598.435,341.492,598.435,341.492z"/>
		<polygon fill="#CDE1E7" points="808.671,285.739 824.314,299.518 845.123,300.771 836.854,319.907 842.092,340.085 
			821.337,338.134 803.765,349.351 799.208,329.008 783.109,315.763 801.048,305.143 		"/>
		<path fill="#CDE1E7" d="M549.317,386.839c-0.331-0.236-0.729-0.26-1.062-0.125c-0.333,0.136-0.601,0.431-0.673,0.83l-3.585,19.869
			c-0.099,0.55-0.04,1.116,0.17,1.634l12.441,30.587l8.081,3.079c4.094-1.665,6.794-2.763,10.888-4.428l3.637-7.846l-12.441-30.587
			c-0.21-0.518-0.563-0.965-1.018-1.289L549.317,386.839z M547.459,399.575c0,0,1.862,0.954,5.77-0.636
			c3.908-1.589,4.575-3.571,4.575-3.571l5.585,3.983c0.307,0.22,0.415,0.626,0.256,0.969l-2.326,5.019l-9.417,3.83l-5.168-1.97
			c-0.353-0.135-0.56-0.501-0.492-0.872L547.459,399.575z"/>
		<path fill="#CDE1E7" d="M998.339,228.646l-40.583,15.806l-2.981,16.511l42.909,26.005l14.019-48.177L998.339,228.646z
			 M991.627,273.107c0,0-20.737-7.032-23.948-15.277c-4.446-11.415,10.703-18.731,15.354-6.789
			c-4.651-11.942,11.547-16.566,15.901-5.385C1002.146,253.901,991.627,273.107,991.627,273.107z"/>
		<polygon fill="#CDE1E7" points="530.986,485.735 546.63,499.514 567.438,500.767 559.169,519.903 564.407,540.081 
			543.652,538.129 526.081,549.347 521.523,529.004 505.425,515.759 523.363,505.138 		"/>
		<path fill="#CDE1E7" d="M668.758,462.477l-40.583,15.807l-2.981,16.511l42.91,26.004l14.018-48.177L668.758,462.477z
			 M662.047,506.938c0,0-20.738-7.031-23.949-15.276c-4.446-11.416,10.703-18.732,15.354-6.789
			c-4.651-11.943,11.547-16.566,15.901-5.385C672.565,487.733,662.047,506.938,662.047,506.938z"/>
		<path fill="#CDE1E7" d="M502.308,462.538l-24.062-10.531c-4.154-1.819-7.445-5.014-9.265-8.995
			c-1.932-4.225-2.005-8.811-0.208-12.914c1.659-3.787,4.76-6.728,8.732-8.279c2.643-1.033,5.558-1.393,8.474-1.051
			c1.912-2.228,4.298-3.939,6.941-4.973c3.972-1.552,8.246-1.493,12.032,0.166c4.104,1.798,7.159,5.22,8.603,9.634
			c1.361,4.161,1.108,8.739-0.711,12.893L502.308,462.538z"/>
		<polygon fill="#CDE1E7" points="1391.711,385.025 1406.858,398.322 1426.979,399.501 1419.014,418.017 1424.111,437.518 
			1404.04,435.664 1387.068,446.537 1382.63,426.876 1367.044,414.095 1384.371,403.798 		"/>
		<path fill="#CDE1E7" d="M944.587,420.949l-40.558,15.874l-2.954,16.515l42.952,25.934l13.939-48.199L944.587,420.949z
			 M937.948,465.423c0,0-20.749-6.998-23.975-15.237c-4.465-11.409,10.673-18.75,15.344-6.815
			c-4.671-11.935,11.52-16.585,15.894-5.41C948.436,446.2,937.948,465.423,937.948,465.423z"/>
		<path fill="#CDE1E7" d="M479.238,569.699l-40.558,15.874l-2.954,16.516l42.953,25.933l13.938-48.199L479.238,569.699z
			 M472.6,614.173c0,0-20.749-6.997-23.974-15.237c-4.465-11.408,10.672-18.75,15.343-6.814
			c-4.671-11.936,11.52-16.586,15.893-5.411C483.087,594.95,472.6,614.173,472.6,614.173z"/>
		<path fill="#CDE1E7" d="M776.32,455.86c-8.452-1.027-16.516,4.496-18.608,12.749c-1.017,4.006-0.542,7.993,1.048,11.42
			c1.473,3.174,1.884,6.749,1.086,10.156c-0.088,0.376-0.157,0.761-0.207,1.154c-0.196,1.562-0.036,3.103,0.409,4.541
			c0.213,0.69,0.611,1.317,1.183,1.759c1.108,0.857,3.365,1.99,7.933,2.838c4.857,0.9,7.517,0.409,8.848-0.107
			c0.666-0.258,1.224-0.724,1.635-1.308c0.887-1.26,1.522-2.725,1.822-4.338c0.032-0.177,0.061-0.354,0.085-0.53
			c0.483-3.54,2.299-6.722,4.829-9.244c2.369-2.362,4.071-5.441,4.729-8.979C792.9,466.322,786.215,457.063,776.32,455.86z
			 M779.21,460.742c-8.263-1.006-16.149,4.383-18.215,12.447c-0.313,1.226-0.417,2.93-0.454,4.299
			c-0.037,1.362-1.054-0.333-1.263-1.744c-0.28-1.891-0.196-3.874,0.313-5.862c1.823-7.119,8.786-11.877,16.081-10.989
			C778.177,459.197,780.302,460.874,779.21,460.742z"/>
		<path fill="#CDE1E7" d="M768.772,502.58c-3.481-0.646-5.833-1.487-7.423-2.339c-0.355-0.19-0.782,0.064-0.775,0.468l0.06,3.885
			c0.02,1.228,3.741,5.962,6.562,6.484c2.819,0.523,7.992-2.561,8.45-3.699l1.501-3.73c0.152-0.381-0.166-0.775-0.571-0.713
			C774.758,503.214,772.235,503.223,768.772,502.58z"/>
		<polygon fill="#CDE1E7" points="737.811,586.28 753.478,600.033 774.288,601.252 766.05,620.401 771.321,640.571 750.563,638.653 
			733.01,649.899 728.419,629.564 712.3,616.346 730.221,605.696 		"/>
		<path fill="#CDE1E7" d="M975.57,691.176c-0.332-0.235-0.729-0.259-1.062-0.123c-0.333,0.136-0.601,0.431-0.672,0.831
			l-3.553,19.875c-0.099,0.55-0.039,1.116,0.173,1.634l12.491,30.565l8.086,3.066c4.091-1.672,6.789-2.774,10.88-4.446l3.624-7.852
			l-12.491-30.566c-0.212-0.517-0.565-0.963-1.021-1.286L975.57,691.176z M973.732,703.915c0,0,1.863,0.951,5.769-0.645
			c3.905-1.597,4.569-3.58,4.569-3.58l5.592,3.975c0.308,0.219,0.416,0.626,0.258,0.969l-2.317,5.021l-9.411,3.846l-5.172-1.961
			c-0.353-0.134-0.561-0.5-0.494-0.871L973.732,703.915z"/>
		<path fill="#CDE1E7" d="M1034.046,521.84l-24.08-10.491c-4.157-1.813-7.452-5.002-9.28-8.98c-1.938-4.221-2.02-8.807-0.228-12.913
			c1.652-3.79,4.748-6.735,8.718-8.294c2.642-1.037,5.556-1.401,8.473-1.064c1.908-2.231,4.291-3.947,6.933-4.984
			c3.97-1.559,8.243-1.507,12.033,0.146c4.106,1.791,7.167,5.207,8.618,9.619c1.367,4.159,1.122,8.738-0.69,12.894L1034.046,521.84z
			"/>
		<path fill="#CDE1E7" d="M1122.526,424.975l-24.079-10.491c-4.157-1.813-7.453-5.002-9.28-8.98
			c-1.938-4.221-2.02-8.807-0.229-12.914c1.652-3.789,4.749-6.734,8.719-8.293c2.642-1.037,5.556-1.401,8.472-1.065
			c1.908-2.23,4.292-3.946,6.934-4.983c3.97-1.559,8.243-1.507,12.032,0.146c4.106,1.791,7.167,5.207,8.618,9.619
			c1.368,4.159,1.123,8.738-0.689,12.894L1122.526,424.975z"/>
		<path fill="#CDE1E7" d="M1325.229,309.555l-22.602-9.847c-3.902-1.701-6.995-4.695-8.71-8.43
			c-1.819-3.961-1.896-8.266-0.215-12.12c1.551-3.557,4.457-6.322,8.184-7.785c2.479-0.974,5.215-1.315,7.952-0.999
			c1.791-2.094,4.027-3.705,6.507-4.678c3.727-1.463,7.737-1.414,11.294,0.137c3.854,1.682,6.728,4.888,8.09,9.029
			c1.283,3.903,1.054,8.201-0.647,12.102L1325.229,309.555z"/>
		<path fill="#CDE1E7" d="M1093.44,446.837c-8.452-1.027-16.516,4.497-18.609,12.749c-1.016,4.006-0.541,7.993,1.049,11.42
			c1.472,3.174,1.884,6.749,1.086,10.156c-0.089,0.376-0.157,0.761-0.207,1.154c-0.196,1.562-0.036,3.103,0.408,4.541
			c0.214,0.69,0.611,1.317,1.184,1.759c1.108,0.857,3.365,1.99,7.932,2.838c4.858,0.901,7.518,0.409,8.849-0.107
			c0.666-0.258,1.224-0.724,1.635-1.308c0.887-1.26,1.522-2.725,1.822-4.338c0.032-0.177,0.061-0.354,0.085-0.53
			c0.482-3.54,2.299-6.722,4.829-9.244c2.369-2.362,4.071-5.441,4.728-8.979C1110.02,457.299,1103.335,448.04,1093.44,446.837z
			 M1096.33,451.719c-8.264-1.006-16.15,4.383-18.215,12.447c-0.313,1.226-0.418,2.93-0.454,4.299
			c-0.037,1.362-1.054-0.333-1.263-1.744c-0.28-1.891-0.197-3.874,0.313-5.862c1.822-7.119,8.785-11.877,16.081-10.989
			C1095.296,450.174,1097.422,451.852,1096.33,451.719z"/>
		<path fill="#CDE1E7" d="M1085.893,493.557c-3.482-0.646-5.834-1.487-7.423-2.339c-0.355-0.19-0.782,0.064-0.776,0.468l0.061,3.885
			c0.02,1.228,3.741,5.961,6.561,6.484c2.82,0.523,7.993-2.561,8.451-3.699l1.5-3.73c0.153-0.381-0.166-0.774-0.571-0.713
			C1091.878,494.19,1089.354,494.199,1085.893,493.557z"/>
		<polygon fill="#CDE1E7" points="166.943,628.164 182.609,641.917 203.42,643.136 195.182,662.285 200.454,682.454 
			179.695,680.537 162.143,691.783 157.551,671.448 141.432,658.229 159.353,647.579 		"/>
		<path fill="#CDE1E7" d="M1084.598,561.843c-2.289-1.704-3.574-4.439-3.423-7.288l0.858-16.199
			c0.087-1.641-2.107-2.266-2.897-0.825l-12.697,23.125c-6.28-3.36-18.453-6.112-28.837-1.235
			c-10.316,4.844-15.872,16.057-17.362,22.998l-26.007-5.018c-1.613-0.312-2.533,1.776-1.215,2.757l13.014,9.686
			c2.288,1.703,3.572,4.438,3.422,7.287l-0.858,16.199c-0.087,1.641,2.107,2.267,2.897,0.826l12.748-23.218
			c6.293,3.288,18.469,6.173,28.786,1.327c10.384-4.875,16.04-15.999,17.464-22.979l28.097,5.421
			c1.081,0.209,1.697-1.19,0.814-1.848L1084.598,561.843z"/>
		<polygon fill="#CDE1E7" points="1169.374,497.91 1185.041,511.662 1205.852,512.882 1197.613,532.031 1202.885,552.2 
			1182.127,550.283 1164.574,561.529 1159.982,541.194 1143.863,527.976 1161.784,517.325 		"/>
		<path fill="#CDE1E7" d="M984.013,532.992l-0.3-0.453l0.017-0.058c0.845-3.081-1.091-6.235-4.221-6.876l-0.072-0.015
			c-0.865-0.178-1.763-0.107-2.591,0.201l-12.927,4.822l-0.004-0.073c-0.174-3.166-0.813-6.28-1.916-9.233
			c-3.482-9.338-10.377-6.44-11.072-5.228c-0.211,0.369-0.257,0.809-0.126,1.213l2.521,7.77l-0.009,0.088
			c-0.611,5.716-2.541,11.21-5.638,16.054l-0.037,0.059l-0.054-0.145c-0.479-1.282-1.907-1.935-3.189-1.456l-12.816,4.781
			c-1.283,0.479-1.935,1.907-1.457,3.189l8.023,21.505c0.479,1.283,1.906,1.936,3.189,1.456l12.816-4.781
			c1.283-0.479,1.935-1.906,1.456-3.189l-0.653-1.751c1.511,1.536,3.837,2.131,5.985,1.33l21.238-7.924
			c0.699-0.261,1.354-0.628,1.94-1.089l0.009-0.007c1.4-2.066,1.792-4.654,1.065-7.042l-0.012-0.038l0.017-0.033
			c1.055-2.052,1.024-4.493-0.082-6.518l-0.085-0.154l0.01-0.035C985.627,537.19,985.253,534.87,984.013,532.992z"/>
		<path fill="#CDE1E7" d="M226.896,576.554l-0.3-0.453l0.016-0.058c0.846-3.081-1.09-6.235-4.22-6.876l-0.072-0.016
			c-0.865-0.177-1.763-0.107-2.591,0.202l-12.927,4.822l-0.003-0.074c-0.174-3.165-0.814-6.28-1.916-9.232
			c-3.483-9.338-10.378-6.44-11.073-5.228c-0.211,0.369-0.257,0.809-0.125,1.213l2.521,7.77l-0.009,0.088
			c-0.611,5.715-2.541,11.21-5.637,16.053l-0.038,0.059l-0.054-0.144c-0.478-1.283-1.906-1.935-3.188-1.456l-12.817,4.781
			c-1.283,0.479-1.935,1.906-1.457,3.189l8.023,21.505c0.479,1.283,1.906,1.935,3.189,1.456l12.817-4.782
			c1.283-0.478,1.934-1.905,1.456-3.188l-0.654-1.751c1.511,1.535,3.837,2.131,5.985,1.33l21.239-7.925
			c0.699-0.26,1.354-0.627,1.94-1.089l0.009-0.007c1.401-2.065,1.792-4.653,1.065-7.041l-0.012-0.038l0.017-0.033
			c1.055-2.052,1.024-4.493-0.083-6.518l-0.084-0.154l0.009-0.035C228.511,580.752,228.136,578.432,226.896,576.554z"/>
		<path fill="#CDE1E7" d="M937.432,292.237l-0.3-0.453l0.016-0.058c0.846-3.081-1.09-6.235-4.22-6.876l-0.072-0.016
			c-0.865-0.177-1.764-0.107-2.591,0.202l-12.927,4.822l-0.004-0.074c-0.175-3.165-0.814-6.28-1.916-9.232
			c-3.483-9.338-10.378-6.44-11.072-5.228c-0.211,0.369-0.257,0.809-0.126,1.213l2.521,7.77l-0.009,0.088
			c-0.611,5.715-2.541,11.21-5.638,16.053l-0.038,0.059l-0.054-0.144c-0.478-1.283-1.906-1.935-3.188-1.456l-12.816,4.781
			c-1.283,0.479-1.936,1.906-1.457,3.189l8.023,21.505c0.479,1.283,1.906,1.935,3.189,1.456l12.816-4.782
			c1.283-0.478,1.935-1.905,1.456-3.188l-0.653-1.751c1.51,1.535,3.837,2.131,5.985,1.33l21.238-7.925
			c0.699-0.26,1.354-0.627,1.94-1.089l0.009-0.007c1.4-2.065,1.792-4.653,1.064-7.041l-0.012-0.038l0.018-0.033
			c1.055-2.052,1.023-4.493-0.083-6.518l-0.084-0.155l0.009-0.034C939.046,296.436,938.672,294.115,937.432,292.237z"/>
		<path fill="#CDE1E7" d="M679.704,387.443l-0.301-0.453l0.017-0.058c0.846-3.081-1.09-6.235-4.221-6.876l-0.072-0.015
			c-0.865-0.178-1.763-0.107-2.591,0.201l-12.927,4.822l-0.003-0.074c-0.175-3.165-0.814-6.28-1.916-9.232
			c-3.483-9.338-10.378-6.44-11.073-5.228c-0.211,0.369-0.257,0.809-0.125,1.213l2.521,7.77l-0.01,0.088
			c-0.611,5.715-2.541,11.21-5.637,16.053l-0.038,0.059l-0.054-0.144c-0.479-1.283-1.906-1.935-3.188-1.456l-12.817,4.781
			c-1.283,0.479-1.935,1.907-1.456,3.189l8.023,21.505c0.479,1.283,1.905,1.936,3.188,1.456l12.817-4.782
			c1.282-0.478,1.934-1.906,1.456-3.188l-0.654-1.751c1.511,1.535,3.837,2.131,5.985,1.33l21.239-7.924
			c0.698-0.261,1.354-0.628,1.939-1.09l0.009-0.007c1.401-2.065,1.792-4.653,1.065-7.041l-0.012-0.038l0.017-0.033
			c1.056-2.052,1.024-4.493-0.082-6.518l-0.085-0.154l0.01-0.035C681.318,391.642,680.943,389.321,679.704,387.443z"/>
		<path fill="#CDE1E7" d="M616.092,684.872l-0.3-0.454l0.017-0.058c0.846-3.081-1.09-6.234-4.221-6.876l-0.072-0.015
			c-0.865-0.178-1.763-0.107-2.591,0.201l-12.926,4.822l-0.004-0.073c-0.174-3.166-0.814-6.28-1.916-9.233
			c-3.483-9.338-10.377-6.439-11.072-5.228c-0.211,0.369-0.257,0.809-0.126,1.213l2.521,7.77l-0.009,0.088
			c-0.611,5.716-2.541,11.21-5.637,16.054l-0.038,0.059l-0.054-0.145c-0.479-1.282-1.906-1.935-3.189-1.456l-12.817,4.781
			c-1.283,0.479-1.935,1.907-1.457,3.19l8.023,21.504c0.479,1.283,1.906,1.936,3.189,1.457l12.817-4.782
			c1.283-0.479,1.934-1.906,1.456-3.188l-0.654-1.752c1.511,1.536,3.837,2.132,5.985,1.33l21.239-7.924
			c0.698-0.261,1.354-0.628,1.939-1.089l0.009-0.007c1.401-2.066,1.792-4.654,1.065-7.042l-0.012-0.038l0.017-0.032
			c1.055-2.053,1.024-4.494-0.082-6.519l-0.085-0.154l0.01-0.035C617.707,689.069,617.332,686.749,616.092,684.872z"/>
		<path fill="#CDE1E7" d="M293.769,662.622l-40.558,15.873l-2.954,16.516l42.953,25.934l13.938-48.2L293.769,662.622z
			 M287.131,707.095c0,0-20.749-6.997-23.974-15.237c-4.465-11.408,10.672-18.75,15.343-6.814
			c-4.671-11.936,11.52-16.585,15.893-5.411C297.618,687.872,287.131,707.095,287.131,707.095z"/>
		<path fill="#CDE1E7" d="M1598.223,382.756c-0.332-0.235-0.729-0.259-1.063-0.122c-0.332,0.136-0.6,0.431-0.672,0.83l-3.553,19.876
			c-0.098,0.55-0.038,1.116,0.174,1.633l12.491,30.566l8.085,3.066c4.092-1.672,6.79-2.775,10.881-4.446l3.624-7.852l-12.492-30.566
			c-0.211-0.518-0.565-0.964-1.021-1.287L1598.223,382.756z M1596.385,395.496c0,0,1.863,0.95,5.769-0.646s4.569-3.58,4.569-3.58
			l5.592,3.976c0.308,0.219,0.416,0.625,0.258,0.968l-2.318,5.022l-9.41,3.846l-5.172-1.961c-0.354-0.134-0.561-0.5-0.494-0.872
			L1596.385,395.496z"/>
		<path fill="#CDE1E7" d="M1302.203,382.756c-0.331-0.235-0.729-0.259-1.062-0.122c-0.333,0.136-0.601,0.431-0.672,0.83
			l-3.553,19.876c-0.099,0.55-0.038,1.116,0.173,1.633l12.492,30.566l8.085,3.066c4.091-1.672,6.79-2.775,10.881-4.446l3.623-7.852
			l-12.491-30.566c-0.211-0.518-0.565-0.964-1.021-1.287L1302.203,382.756z M1300.366,395.496c0,0,1.863,0.95,5.769-0.646
			s4.569-3.58,4.569-3.58l5.592,3.976c0.308,0.219,0.415,0.625,0.258,0.968l-2.318,5.022l-9.411,3.846l-5.172-1.961
			c-0.353-0.134-0.56-0.5-0.493-0.872L1300.366,395.496z"/>
		<path fill="#CDE1E7" d="M1260.185,457.8l-40.558,15.873l-2.954,16.516l42.953,25.934l13.938-48.199L1260.185,457.8z
			 M1253.547,502.272c0,0-20.75-6.997-23.975-15.236c-4.465-11.409,10.672-18.75,15.344-6.815
			c-4.672-11.935,11.52-16.585,15.893-5.41C1264.033,483.05,1253.547,502.272,1253.547,502.272z"/>
		<path fill="#CDE1E7" d="M1569.337,496.075l-26.907-11.723c-4.646-2.026-8.329-5.59-10.371-10.036
			c-2.166-4.717-2.257-9.842-0.255-14.431c1.847-4.234,5.307-7.526,9.743-9.268c2.951-1.159,6.208-1.566,9.467-1.189
			c2.132-2.493,4.795-4.411,7.747-5.569c4.437-1.742,9.212-1.684,13.446,0.163c4.589,2.001,8.009,5.818,9.631,10.749
			c1.527,4.647,1.254,9.765-0.771,14.408L1569.337,496.075z"/>
		<path fill="#CDE1E7" d="M842.694,652.425c-8.451-1.027-16.516,4.496-18.608,12.749c-1.016,4.005-0.541,7.993,1.048,11.419
			c1.473,3.174,1.884,6.75,1.086,10.156c-0.088,0.377-0.157,0.762-0.207,1.155c-0.196,1.562-0.036,3.103,0.409,4.541
			c0.213,0.69,0.611,1.316,1.183,1.759c1.109,0.857,3.365,1.99,7.933,2.837c4.857,0.901,7.518,0.409,8.848-0.106
			c0.667-0.258,1.224-0.725,1.635-1.309c0.887-1.259,1.523-2.725,1.822-4.338c0.033-0.177,0.061-0.354,0.085-0.529
			c0.483-3.541,2.299-6.722,4.829-9.244c2.369-2.362,4.071-5.441,4.729-8.98C859.274,662.886,852.589,653.627,842.694,652.425z
			 M845.585,657.306c-8.264-1.005-16.15,4.384-18.215,12.447c-0.314,1.227-0.418,2.93-0.455,4.3
			c-0.037,1.362-1.054-0.333-1.263-1.745c-0.279-1.89-0.196-3.873,0.313-5.862c1.823-7.119,8.786-11.876,16.081-10.989
			C844.551,655.761,846.676,657.438,845.585,657.306z"/>
		<path fill="#CDE1E7" d="M835.146,699.144c-3.481-0.646-5.833-1.487-7.422-2.338c-0.355-0.19-0.782,0.063-0.776,0.467l0.061,3.886
			c0.019,1.228,3.741,5.961,6.561,6.484c2.819,0.522,7.992-2.561,8.45-3.699l1.501-3.731c0.153-0.38-0.166-0.774-0.571-0.712
			C841.133,699.778,838.609,699.786,835.146,699.144z"/>
		<path fill="#CDE1E7" d="M838.892,525.927c-1.044,0.065-2.1-0.374-2.783-1.268c-1.091-1.425-0.82-3.464,0.605-4.554
			c7.373-5.644,19.227-10.369,29.154-8.261c5.261-8.679,16.819-14.082,25.982-15.593c1.768-0.29,3.442,0.905,3.733,2.678
			c0.292,1.77-0.906,3.442-2.677,3.733c-7.477,1.232-17.405,5.714-21.538,12.642c-1.388,2.329-4.099,3.504-6.748,2.918
			c-7.878-1.728-17.941,2.437-23.959,7.042C840.131,525.671,839.514,525.889,838.892,525.927z"/>
		<path fill="#CDE1E7" d="M876.018,459.702c-3.129-0.166-6.976,0.764-10.743,2.355l12.285,28.397l0.315,0.716
			c0.353,0.799,0.053,1.737-0.703,2.175c-1.893,1.096-5.291,3.277-6.815,5.596c-2.223,3.379-2.943,6.145-3.138,7.985
			c4.974-6.666,14.644-11.377,22.638-13.074c0.843-0.18,1.309-1.079,0.967-1.87l-13.608-31.456
			C877.007,460.044,876.542,459.729,876.018,459.702z"/>
		<path fill="#CDE1E7" d="M858.886,458.138c-1.648,0.815-4.33,2.581-6.568,6.105c-3.634,5.724-2.802,10.714-2.802,10.714
			s-3.067-4.023-9.727-5.294c-4.102-0.782-7.224-0.036-8.947,0.606c-0.848,0.315-1.249,1.282-0.891,2.112l7.052,16.3l6.208,14.35
			c0.449,1.038,1.595,1.57,2.686,1.272c1.642-0.449,4.244-0.877,7.284-0.348c5.71,0.994,8.884,3.307,10.394,4.784
			c0.355,0.348,0.947,0.092,0.938-0.405c-0.043-2.112,0.444-6.008,3.63-10.851c1.697-2.58,3.793-4.185,5.243-5.073
			c0.964-0.59,1.357-1.789,0.909-2.826l-13.259-30.649C860.676,458.104,859.696,457.736,858.886,458.138z"/>
		<path fill="#CDE1E7" d="M820.252,483.827c2.021-2.395,5.332-4.562,9.072-6.217l12.285,28.396l0.305,0.721
			c0.342,0.805,1.23,1.229,2.067,0.977c2.095-0.629,6.011-1.611,8.744-1.136c3.985,0.693,6.494,2.062,7.969,3.181
			c-8.264-0.939-18.318,2.882-25.029,7.547c-0.707,0.491-1.683,0.215-2.024-0.576l-13.608-31.456
			C819.824,484.782,819.913,484.228,820.252,483.827z"/>
		<path fill="#CDE1E7" d="M827.642,254.909c-1.044,0.064-2.1-0.374-2.783-1.268c-1.091-1.426-0.82-3.464,0.604-4.555
			c7.373-5.644,19.227-10.369,29.155-8.26c5.261-8.679,16.819-14.082,25.982-15.593c1.767-0.29,3.442,0.905,3.733,2.677
			c0.292,1.771-0.906,3.443-2.678,3.734c-7.476,1.231-17.404,5.713-21.537,12.641c-1.388,2.329-4.1,3.505-6.748,2.919
			c-7.878-1.728-17.941,2.437-23.959,7.041C828.881,254.653,828.264,254.871,827.642,254.909z"/>
		<path fill="#CDE1E7" d="M864.768,188.685c-3.129-0.166-6.976,0.763-10.743,2.355l12.284,28.397l0.316,0.716
			c0.353,0.799,0.053,1.736-0.703,2.175c-1.894,1.096-5.291,3.277-6.815,5.595c-2.224,3.38-2.944,6.145-3.139,7.985
			c4.974-6.665,14.644-11.377,22.638-13.074c0.844-0.179,1.31-1.078,0.968-1.869l-13.608-31.457
			C865.757,189.026,865.292,188.712,864.768,188.685z"/>
		<path fill="#CDE1E7" d="M847.635,187.12c-1.647,0.815-4.33,2.58-6.567,6.105c-3.634,5.723-2.802,10.713-2.802,10.713
			s-3.067-4.022-9.728-5.293c-4.101-0.783-7.224-0.036-8.946,0.605c-0.848,0.316-1.25,1.282-0.891,2.113l7.052,16.3l6.208,14.35
			c0.448,1.038,1.595,1.57,2.686,1.271c1.641-0.448,4.244-0.876,7.284-0.347c5.71,0.994,8.883,3.307,10.394,4.783
			c0.355,0.349,0.947,0.093,0.937-0.405c-0.043-2.112,0.444-6.008,3.631-10.851c1.696-2.58,3.792-4.184,5.243-5.072
			c0.964-0.59,1.357-1.789,0.909-2.826l-13.26-30.65C849.425,187.087,848.446,186.718,847.635,187.12z"/>
		<path fill="#CDE1E7" d="M809.001,212.809c2.022-2.394,5.333-4.562,9.073-6.217l12.285,28.397l0.305,0.72
			c0.341,0.805,1.23,1.229,2.066,0.978c2.096-0.63,6.012-1.612,8.745-1.137c3.985,0.694,6.494,2.063,7.969,3.181
			c-8.264-0.938-18.319,2.883-25.029,7.547c-0.708,0.492-1.683,0.216-2.025-0.575l-13.607-31.456
			C808.573,213.764,808.663,213.21,809.001,212.809z"/>
		<path fill="#CDE1E7" d="M549.448,293.859c-1.043,0.064-2.099-0.375-2.783-1.269c-1.091-1.425-0.82-3.463,0.605-4.554
			c7.373-5.644,19.227-10.369,29.154-8.26c5.261-8.679,16.82-14.083,25.983-15.594c1.767-0.29,3.442,0.905,3.733,2.678
			c0.292,1.77-0.906,3.442-2.678,3.734c-7.476,1.231-17.404,5.713-21.537,12.641c-1.388,2.329-4.099,3.505-6.749,2.919
			c-7.877-1.729-17.941,2.437-23.958,7.041C550.687,293.604,550.07,293.82,549.448,293.859z"/>
		<path fill="#CDE1E7" d="M586.574,227.634c-3.129-0.165-6.976,0.764-10.743,2.356l12.285,28.397l0.316,0.715
			c0.353,0.8,0.053,1.737-0.703,2.176c-1.893,1.096-5.291,3.277-6.816,5.595c-2.223,3.379-2.943,6.145-3.138,7.985
			c4.974-6.666,14.644-11.377,22.638-13.074c0.843-0.179,1.31-1.079,0.967-1.869l-13.608-31.457
			C587.563,227.977,587.099,227.662,586.574,227.634z"/>
		<path fill="#CDE1E7" d="M569.442,226.069c-1.648,0.816-4.33,2.581-6.568,6.105c-3.634,5.724-2.802,10.714-2.802,10.714
			s-3.067-4.022-9.727-5.294c-4.101-0.782-7.224-0.036-8.947,0.606c-0.848,0.316-1.25,1.282-0.891,2.112l7.052,16.301l6.208,14.35
			c0.449,1.038,1.595,1.569,2.686,1.271c1.641-0.448,4.244-0.877,7.284-0.348c5.71,0.994,8.884,3.307,10.394,4.784
			c0.356,0.349,0.947,0.093,0.938-0.405c-0.043-2.112,0.444-6.008,3.63-10.851c1.697-2.58,3.793-4.185,5.244-5.072
			c0.963-0.591,1.357-1.79,0.909-2.827l-13.259-30.649C571.232,226.036,570.253,225.668,569.442,226.069z"/>
		<path fill="#CDE1E7" d="M530.808,251.759c2.021-2.395,5.333-4.562,9.073-6.217l12.285,28.397l0.305,0.72
			c0.341,0.805,1.229,1.229,2.066,0.977c2.095-0.629,6.011-1.611,8.745-1.136c3.985,0.693,6.494,2.063,7.968,3.181
			c-8.263-0.939-18.318,2.883-25.029,7.547c-0.708,0.491-1.683,0.216-2.025-0.575l-13.608-31.457
			C530.38,252.714,530.469,252.16,530.808,251.759z"/>
		<path fill="#CDE1E7" d="M972.576,385.904c-1.044,0.064-2.1-0.375-2.783-1.269c-1.09-1.425-0.82-3.464,0.605-4.554
			c7.373-5.644,19.227-10.369,29.154-8.26c5.261-8.68,16.819-14.083,25.982-15.594c1.768-0.29,3.442,0.905,3.734,2.678
			c0.291,1.77-0.907,3.442-2.678,3.733c-7.477,1.232-17.405,5.714-21.537,12.642c-1.388,2.329-4.1,3.504-6.749,2.918
			c-7.878-1.728-17.941,2.437-23.959,7.042C973.815,385.647,973.198,385.865,972.576,385.904z"/>
		<path fill="#CDE1E7" d="M1009.702,319.679c-3.129-0.166-6.976,0.764-10.743,2.355l12.285,28.398l0.315,0.715
			c0.353,0.799,0.053,1.737-0.703,2.175c-1.893,1.096-5.291,3.277-6.815,5.596c-2.223,3.379-2.943,6.145-3.138,7.985
			c4.974-6.666,14.644-11.377,22.638-13.074c0.843-0.179,1.31-1.079,0.967-1.87l-13.607-31.456
			C1010.691,320.021,1010.227,319.706,1009.702,319.679z"/>
		<path fill="#CDE1E7" d="M992.57,318.114c-1.648,0.816-4.33,2.581-6.568,6.105c-3.634,5.724-2.802,10.714-2.802,10.714
			s-3.067-4.023-9.727-5.294c-4.101-0.782-7.224-0.036-8.947,0.606c-0.848,0.315-1.249,1.282-0.89,2.112l7.051,16.3l6.208,14.35
			c0.449,1.038,1.595,1.57,2.686,1.272c1.642-0.449,4.244-0.877,7.284-0.348c5.71,0.994,8.884,3.307,10.394,4.784
			c0.355,0.348,0.947,0.092,0.938-0.405c-0.043-2.112,0.444-6.008,3.63-10.851c1.697-2.58,3.793-4.185,5.243-5.073
			c0.964-0.59,1.357-1.789,0.909-2.826l-13.259-30.65C994.36,318.081,993.381,317.713,992.57,318.114z"/>
		<path fill="#CDE1E7" d="M953.937,343.804c2.021-2.395,5.332-4.562,9.073-6.217l12.284,28.397l0.306,0.72
			c0.341,0.805,1.229,1.229,2.066,0.977c2.095-0.629,6.011-1.612,8.744-1.136c3.985,0.693,6.494,2.062,7.969,3.181
			c-8.264-0.939-18.318,2.882-25.029,7.547c-0.707,0.491-1.683,0.215-2.024-0.576l-13.608-31.456
			C953.509,344.759,953.598,344.204,953.937,343.804z"/>
		<path fill="#CDE1E7" d="M869.178,550.034l-50.391,23.959c-3.741,1.778-5.165,6.604-3.181,10.777l12.898,27.13
			c1.984,4.173,6.626,6.114,10.367,4.336l4.619-2.196c1.296-0.616,3.237-0.372,4.333,1.933c0.428,0.899,1.06,2.233,2.775,5.846
			c0.748,1.578,1.558,1.393,1.77,1.321c0.836-0.275,1.387-1.329,2.728-4.16c0.555-1.173,2.04-4.344,4.414-9.448
			c1.034-2.224,3.78-4.905,4.73-5.356l25.019-11.896c3.742-1.779,5.167-6.605,3.182-10.78l-12.898-27.129
			C877.56,550.197,872.918,548.256,869.178,550.034z"/>
		<path fill="#CDE1E7" d="M1532.43,332.391l-50.391,23.958c-3.741,1.779-5.165,6.604-3.181,10.777l12.899,27.13
			c1.984,4.174,6.625,6.115,10.366,4.337l4.62-2.197c1.295-0.616,3.236-0.372,4.332,1.933c0.428,0.899,1.06,2.233,2.775,5.846
			c0.748,1.578,1.559,1.394,1.77,1.322c0.836-0.275,1.388-1.329,2.728-4.161c0.555-1.172,2.04-4.343,4.415-9.448
			c1.033-2.224,3.779-4.905,4.729-5.356l25.02-11.896c3.741-1.779,5.166-6.605,3.182-10.779l-12.898-27.129
			C1540.812,332.554,1536.171,330.612,1532.43,332.391z"/>
		<path fill="#CDE1E7" d="M747.134,325.624l-50.391,23.958c-3.741,1.778-5.165,6.604-3.181,10.777l12.898,27.13
			c1.984,4.174,6.626,6.114,10.367,4.336l4.619-2.196c1.296-0.616,3.237-0.372,4.333,1.933c0.428,0.899,1.06,2.233,2.775,5.846
			c0.747,1.578,1.558,1.393,1.769,1.321c0.837-0.274,1.388-1.329,2.729-4.16c0.555-1.173,2.04-4.343,4.414-9.448
			c1.034-2.224,3.78-4.905,4.73-5.356l25.019-11.896c3.742-1.779,5.167-6.605,3.182-10.78l-12.898-27.129
			C755.516,325.786,750.874,323.845,747.134,325.624z"/>
		<path fill="#CDE1E7" d="M668.667,576.502l-50.391,23.959c-3.741,1.778-5.165,6.604-3.181,10.777l12.899,27.13
			c1.984,4.173,6.625,6.114,10.366,4.336l4.62-2.197c1.296-0.615,3.236-0.371,4.332,1.934c0.428,0.899,1.06,2.233,2.775,5.846
			c0.748,1.577,1.559,1.393,1.77,1.321c0.836-0.275,1.388-1.329,2.728-4.16c0.556-1.173,2.04-4.344,4.415-9.449
			c1.033-2.223,3.779-4.904,4.729-5.356l25.02-11.895c3.741-1.779,5.166-6.605,3.182-10.78l-12.898-27.129
			C677.049,576.665,672.408,574.724,668.667,576.502z"/>
	</g>
</g>
</svg>
