<?xml version="1.0" encoding="utf-8"?>
<!-- Generator: Adobe Illustrator 16.0.0, SVG Export Plug-In . SVG Version: 6.00 Build 0)  -->
<!DOCTYPE svg PUBLIC "-//W3C//DTD SVG 1.1//EN" "http://www.w3.org/Graphics/SVG/1.1/DTD/svg11.dtd">
<svg version="1.1" id="Слой_1" xmlns="http://www.w3.org/2000/svg" xmlns:xlink="http://www.w3.org/1999/xlink" x="0px" y="0px"
	 width="1200px" height="800px" viewBox="0 0 1200 800" enable-background="new 0 0 1200 800" xml:space="preserve">
<g>
	<defs>
		<path id="SVGID_1_" d="M1159.998,1c-20.001,0-20.001,10-40.002,10c-19.998,0-19.998-10-39.996-10c-20.001,0-20.001,10-40.002,10
			s-20.001-10-40.002-10C979.998,1,979.998,11,960,11c-20.001,0-20.001-10-40.002-10s-20.001,10-40.002,10
			C859.998,11,859.998,1,840,1c-20.001,0-20.001,10-40.002,10S779.997,1,759.996,1C739.998,1,739.998,11,720,11
			c-20.001,0-20.001-10-40.002-10s-20.001,10-40.002,10C619.998,11,619.998,1,600,1c-20.001,0-20.001,10-40.002,10
			S539.997,1,519.996,1C499.998,1,499.998,11,480,11c-20.001,0-20.001-10-40.002-10s-20.001,10-40.002,10
			C379.998,11,379.998,1,360,1c-20.001,0-20.001,10-40.002,10S299.997,1,279.996,1C259.998,1,259.998,11,240,11
			c-20.001,0-20.001-10-40.002-10s-20.001,10-40.002,10C139.998,11,139.998,1,120,1C99.999,1,99.999,11,79.998,11S59.997,1,39.996,1
			C19.998,1,19.998,11,0,11v780.006c19.998,0,19.998,10,39.996,10c20.001,0,20.001-10,40.002-10s20.001,10,40.002,10
			c19.998,0,19.998-10,39.996-10c20.001,0,20.001,10,40.002,10s20.001-10,40.002-10c19.998,0,19.998,10,39.996,10
			c20.001,0,20.001-10,40.002-10s20.001,10,40.002,10c19.998,0,19.998-10,39.996-10c20.001,0,20.001,10,40.002,10
			s20.001-10,40.002-10c19.998,0,19.998,10,39.996,10c20.001,0,20.001-10,40.002-10s20.001,10,40.002,10
			c19.998,0,19.998-10,39.996-10c20.001,0,20.001,10,40.002,10s20.001-10,40.002-10c19.998,0,19.998,10,39.996,10
			c20.001,0,20.001-10,40.002-10s20.001,10,40.002,10c19.998,0,19.998-10,39.996-10c20.001,0,20.001,10,40.002,10
			s20.001-10,40.002-10c19.998,0,19.998,10,39.996,10c20.001,0,20.001-10,40.002-10s20.001,10,40.002,10
			c19.998,0,19.998-10,39.996-10c20.001,0,20.001,10,40.002,10s20.001-10,40.002-10V11C1179.999,11,1179.999,1,1159.998,1z"/>
	</defs>
	<clipPath id="SVGID_2_">
		<use xlink:href="#SVGID_1_"  overflow="visible"/>
	</clipPath>
	<g opacity="0.5" clip-path="url(#SVGID_2_)">
		<path fill="#1471B9" d="M-101.833,16.566c-2.286-1.708-3.566-4.445-3.41-7.295l0.885-16.197c0.09-1.641-2.104-2.27-2.896-0.83
			l-12.735,23.105c-6.275-3.372-18.443-6.145-28.834-1.284c-10.325,4.827-15.899,16.03-17.401,22.97l-25.998-5.061
			c-1.613-0.314-2.537,1.771-1.22,2.755l12.998,9.706c2.286,1.707,3.565,4.445,3.41,7.294l-0.885,16.198
			c-0.089,1.641,2.104,2.269,2.896,0.83l12.786-23.196c6.288,3.298,18.459,6.202,28.784,1.374
			c10.392-4.857,16.066-15.973,17.502-22.949l28.087,5.467c1.081,0.211,1.7-1.188,0.817-1.846L-101.833,16.566z"/>
		<path fill="#1471B9" d="M-226.257,47.008l-40.584,15.808l-2.981,16.511l42.91,26.004l14.018-48.177L-226.257,47.008z
			 M-232.969,91.471c0,0-20.738-7.031-23.949-15.277c-4.446-11.415,10.703-18.731,15.355-6.789
			c-4.652-11.942,11.547-16.566,15.902-5.385C-222.45,72.266-232.969,91.471-232.969,91.471z"/>
		<polygon fill="#1471B9" points="-22.734,35.717 -7.09,49.496 13.719,50.75 5.449,69.886 10.687,90.063 -10.068,88.111 
			-27.639,99.328 -32.197,78.986 -48.294,65.74 -30.356,55.121 		"/>
		<path fill="#1471B9" d="M-67.559,133.58c-0.331-0.236-0.729-0.26-1.062-0.124s-0.601,0.43-0.673,0.83l-3.585,19.869
			c-0.099,0.55-0.04,1.116,0.17,1.634l12.441,30.586l8.081,3.08c4.094-1.665,6.794-2.764,10.888-4.429l3.637-7.845l-12.441-30.588
			c-0.21-0.517-0.563-0.964-1.018-1.288L-67.559,133.58z M-69.417,146.317c0,0,1.862,0.954,5.77-0.636s4.575-3.572,4.575-3.572
			l5.585,3.984c0.307,0.219,0.415,0.626,0.256,0.969l-2.326,5.018l-9.417,3.83l-5.168-1.969c-0.353-0.135-0.56-0.501-0.493-0.873
			L-69.417,146.317z"/>
		<path fill="#1471B9" d="M512.088,14.684L471.504,30.49L468.523,47l42.91,26.004l14.018-48.176L512.088,14.684z M505.376,59.145
			c0,0-20.738-7.031-23.949-15.275c-4.446-11.416,10.703-18.732,15.354-6.79c-4.651-11.942,11.547-16.566,15.902-5.384
			C515.895,39.939,505.376,59.145,505.376,59.145z"/>
		<polygon fill="#1471B9" points="-85.891,232.477 -70.247,246.256 -49.438,247.51 -57.708,266.645 -52.469,286.822 
			-73.225,284.871 -90.796,296.088 -95.354,275.746 -111.451,262.5 -93.513,251.88 		"/>
		<path fill="#1471B9" d="M51.882,209.219l-40.584,15.807l-2.981,16.51l42.91,26.005l14.018-48.177L51.882,209.219z M45.17,253.681
			c0,0-20.737-7.032-23.949-15.276c-4.446-11.416,10.703-18.732,15.354-6.789c-4.651-11.943,11.547-16.566,15.902-5.385
			C55.689,234.475,45.17,253.681,45.17,253.681z"/>
		<path fill="#1471B9" d="M211.35,173.627l-24.062-10.531c-4.154-1.819-7.445-5.014-9.266-8.996
			c-1.931-4.223-2.005-8.81-0.207-12.913c1.659-3.786,4.76-6.728,8.732-8.279c2.643-1.032,5.558-1.393,8.474-1.051
			c1.912-2.228,4.298-3.94,6.941-4.972c3.972-1.553,8.246-1.494,12.032,0.166c4.104,1.797,7.159,5.219,8.603,9.633
			c1.36,4.161,1.108,8.74-0.711,12.893L211.35,173.627z"/>
		<path fill="#1471B9" d="M-114.569,209.279l-24.062-10.529c-4.154-1.82-7.444-5.016-9.265-8.996
			c-1.932-4.225-2.005-8.811-0.208-12.914c1.659-3.787,4.76-6.728,8.732-8.279c2.643-1.033,5.558-1.393,8.474-1.051
			c1.912-2.229,4.298-3.939,6.941-4.973c3.972-1.553,8.246-1.493,12.032,0.166c4.104,1.797,7.159,5.219,8.603,9.633
			c1.361,4.162,1.108,8.74-0.711,12.893L-114.569,209.279z"/>
		<path fill="#1471B9" d="M296.569,98.799c-8.45-1.041-16.523,4.469-18.63,12.719c-1.022,4.003-0.555,7.991,1.029,11.42
			c1.467,3.177,1.873,6.754,1.069,10.158c-0.089,0.377-0.159,0.762-0.209,1.154c-0.199,1.563-0.042,3.103,0.401,4.543
			c0.212,0.689,0.609,1.316,1.18,1.76c1.107,0.859,3.362,1.996,7.928,2.851c4.856,0.909,7.517,0.421,8.849-0.092
			c0.667-0.257,1.225-0.722,1.637-1.306c0.888-1.258,1.527-2.723,1.829-4.335c0.033-0.177,0.062-0.354,0.086-0.53
			c0.489-3.539,2.31-6.717,4.845-9.236c2.373-2.357,4.08-5.434,4.743-8.971C313.131,109.287,306.461,100.018,296.569,98.799z
			 M299.451,103.685c-8.262-1.019-16.157,4.356-18.235,12.417c-0.316,1.226-0.422,2.93-0.461,4.299
			c-0.04,1.362-1.053-0.334-1.26-1.746c-0.277-1.891-0.19-3.875,0.322-5.862c1.834-7.116,8.805-11.862,16.099-10.963
			C298.419,102.138,300.542,103.819,299.451,103.685z"/>
		<path fill="#1471B9" d="M288.944,145.506c-3.481-0.652-5.831-1.498-7.418-2.352c-0.355-0.191-0.783,0.063-0.777,0.467l0.054,3.885
			c0.018,1.228,3.731,5.967,6.551,6.495c2.818,0.528,7.997-2.548,8.456-3.685l1.507-3.729c0.153-0.381-0.165-0.775-0.57-0.714
			C294.928,146.149,292.405,146.153,288.944,145.506z"/>
		<path fill="#1471B9" d="M-61.272,323.109c-8.45-1.041-16.523,4.469-18.63,12.719c-1.022,4.003-0.554,7.991,1.029,11.42
			c1.467,3.177,1.873,6.753,1.069,10.158c-0.089,0.377-0.159,0.762-0.209,1.154c-0.199,1.562-0.042,3.103,0.401,4.542
			c0.212,0.69,0.609,1.317,1.18,1.761c1.107,0.859,3.362,1.996,7.928,2.85c4.856,0.91,7.517,0.422,8.849-0.092
			c0.667-0.256,1.225-0.722,1.637-1.305c0.889-1.258,1.527-2.723,1.829-4.336c0.033-0.176,0.062-0.354,0.086-0.529
			c0.489-3.539,2.31-6.718,4.845-9.236c2.373-2.357,4.08-5.434,4.743-8.972C-44.71,333.598-51.38,324.328-61.272,323.109z
			 M-58.391,327.995c-8.262-1.019-16.157,4.356-18.235,12.417c-0.316,1.226-0.422,2.93-0.461,4.299
			c-0.039,1.362-1.053-0.334-1.26-1.746c-0.277-1.892-0.19-3.875,0.322-5.862c1.834-7.116,8.805-11.862,16.099-10.963
			C-59.422,326.448-57.3,328.129-58.391,327.995z"/>
		<path fill="#1471B9" d="M-68.897,369.816c-3.481-0.652-5.831-1.498-7.418-2.352c-0.355-0.191-0.783,0.063-0.777,0.467l0.054,3.885
			c0.017,1.227,3.731,5.967,6.55,6.495s7.997-2.548,8.457-3.685l1.507-3.729c0.154-0.381-0.165-0.775-0.57-0.715
			C-62.913,370.459-65.436,370.464-68.897,369.816z"/>
		<polygon fill="#1471B9" points="774.834,131.768 789.981,145.064 810.104,146.243 802.138,164.759 807.234,184.26 
			787.164,182.406 770.192,193.279 765.754,173.617 750.168,160.837 767.495,150.54 		"/>
		<path fill="#1471B9" d="M-144.844,361.141l-40.558,15.873l-2.954,16.516l42.953,25.934l13.938-48.199L-144.844,361.141z
			 M-151.482,405.614c0,0-20.749-6.997-23.974-15.237c-4.465-11.408,10.672-18.75,15.343-6.814
			c-4.671-11.936,11.52-16.586,15.893-5.411C-140.995,386.391-151.482,405.614-151.482,405.614z"/>
		<path fill="#1471B9" d="M159.444,202.603c-8.452-1.027-16.516,4.496-18.609,12.749c-1.016,4.006-0.542,7.992,1.048,11.42
			c1.472,3.174,1.884,6.749,1.086,10.156c-0.088,0.375-0.157,0.761-0.207,1.154c-0.196,1.562-0.036,3.102,0.409,4.541
			c0.213,0.69,0.612,1.316,1.183,1.759c1.109,0.857,3.365,1.989,7.932,2.837c4.858,0.901,7.518,0.41,8.849-0.106
			c0.666-0.259,1.223-0.724,1.635-1.308c0.886-1.26,1.522-2.726,1.822-4.338c0.033-0.178,0.061-0.354,0.085-0.531
			c0.483-3.539,2.299-6.721,4.83-9.244c2.369-2.361,4.071-5.44,4.728-8.979C176.024,213.063,169.338,203.805,159.444,202.603z
			 M162.334,207.484c-8.264-1.006-16.15,4.383-18.215,12.447c-0.314,1.226-0.417,2.93-0.455,4.299
			c-0.037,1.362-1.053-0.333-1.263-1.744c-0.28-1.891-0.196-3.875,0.313-5.863c1.822-7.119,8.786-11.877,16.081-10.988
			C161.3,205.938,163.425,207.617,162.334,207.484z"/>
		<path fill="#1471B9" d="M151.896,249.322c-3.482-0.646-5.833-1.488-7.422-2.34c-0.355-0.189-0.782,0.064-0.776,0.469l0.06,3.885
			c0.019,1.227,3.741,5.961,6.561,6.484c2.819,0.523,7.992-2.561,8.45-3.699l1.501-3.73c0.153-0.381-0.167-0.775-0.572-0.713
			C157.882,249.955,155.359,249.964,151.896,249.322z"/>
		<path fill="#1471B9" d="M-120.596,448.934c-0.332-0.236-0.729-0.259-1.062-0.123c-0.333,0.136-0.6,0.431-0.672,0.831
			l-3.553,19.875c-0.098,0.55-0.038,1.116,0.173,1.634l12.492,30.566l8.085,3.065c4.091-1.672,6.789-2.774,10.88-4.446l3.624-7.852
			l-12.492-30.566c-0.211-0.517-0.565-0.963-1.021-1.287L-120.596,448.934z M-122.434,461.673c0,0,1.863,0.95,5.769-0.646
			s4.569-3.579,4.569-3.579l5.592,3.976c0.308,0.219,0.416,0.625,0.258,0.967l-2.318,5.022l-9.411,3.847l-5.172-1.961
			c-0.353-0.135-0.561-0.5-0.494-0.872L-122.434,461.673z"/>
		<path fill="#1471B9" d="M226.762,304.914l-40.558,15.873l-2.954,16.516l42.953,25.934l13.938-48.199L226.762,304.914z
			 M220.123,349.387c0,0-20.749-6.997-23.974-15.236c-4.465-11.409,10.672-18.75,15.343-6.815
			c-4.671-11.935,11.52-16.585,15.893-5.411C230.61,330.164,220.123,349.387,220.123,349.387z"/>
		<path fill="#1471B9" d="M417.169,268.582l-24.079-10.491c-4.157-1.813-7.453-5.003-9.28-8.981
			c-1.938-4.221-2.02-8.807-0.229-12.912c1.653-3.79,4.749-6.736,8.719-8.295c2.642-1.037,5.556-1.4,8.472-1.064
			c1.908-2.23,4.292-3.947,6.933-4.984c3.97-1.559,8.243-1.506,12.033,0.146c4.107,1.791,7.167,5.207,8.618,9.62
			c1.368,4.159,1.123,8.737-0.689,12.894L417.169,268.582z"/>
		<path fill="#1471B9" d="M708.352,56.297l-22.601-9.848c-3.902-1.701-6.995-4.694-8.711-8.429
			c-1.819-3.962-1.896-8.267-0.214-12.12c1.551-3.558,4.457-6.322,8.184-7.785c2.479-0.974,5.214-1.315,7.951-1
			c1.791-2.094,4.028-3.703,6.508-4.678c3.726-1.463,7.736-1.414,11.294,0.138c3.854,1.681,6.728,4.888,8.089,9.028
			c1.284,3.904,1.054,8.202-0.647,12.103L708.352,56.297z"/>
		<polygon fill="#1471B9" points="-124.513,538.099 -108.847,551.852 -88.036,553.07 -96.274,572.22 -91.002,592.389 
			-111.761,590.472 -129.313,601.717 -133.905,581.383 -150.024,568.164 -132.104,557.514 		"/>
		<path fill="#1471B9" d="M417.465,340.951l-0.3-0.453l0.017-0.058c0.845-3.081-1.09-6.235-4.221-6.876l-0.072-0.016
			c-0.865-0.177-1.763-0.107-2.591,0.201l-12.926,4.823l-0.004-0.074c-0.174-3.165-0.814-6.28-1.916-9.233
			c-3.483-9.337-10.377-6.439-11.072-5.227c-0.211,0.369-0.257,0.809-0.126,1.213l2.521,7.77l-0.009,0.088
			c-0.611,5.715-2.541,11.21-5.637,16.053l-0.038,0.059l-0.054-0.145c-0.479-1.282-1.907-1.934-3.189-1.455l-12.817,4.781
			c-1.283,0.479-1.935,1.906-1.457,3.189l8.023,21.504c0.479,1.283,1.906,1.936,3.189,1.457l12.817-4.782
			c1.283-0.478,1.934-1.906,1.456-3.188l-0.653-1.752c1.51,1.536,3.836,2.133,5.985,1.33l21.239-7.924
			c0.699-0.26,1.354-0.627,1.94-1.089l0.009-0.007c1.4-2.065,1.792-4.653,1.064-7.041l-0.012-0.039l0.018-0.032
			c1.055-2.052,1.024-4.493-0.083-6.519l-0.084-0.154l0.009-0.035C419.079,345.149,418.705,342.828,417.465,340.951z"/>
		<path fill="#1471B9" d="M501,119.565l-0.3-0.454l0.017-0.057c0.845-3.082-1.09-6.235-4.221-6.877l-0.072-0.015
			c-0.865-0.177-1.763-0.107-2.591,0.202l-12.926,4.822l-0.004-0.074c-0.174-3.166-0.814-6.28-1.916-9.232
			c-3.483-9.338-10.377-6.44-11.072-5.229c-0.211,0.369-0.257,0.809-0.126,1.213l2.521,7.77l-0.009,0.088
			c-0.611,5.716-2.541,11.211-5.637,16.054l-0.038,0.059l-0.054-0.144c-0.479-1.283-1.906-1.936-3.189-1.457l-12.817,4.781
			c-1.283,0.479-1.935,1.908-1.457,3.189l8.023,21.506c0.479,1.283,1.906,1.935,3.189,1.455l12.817-4.781
			c1.283-0.479,1.934-1.906,1.456-3.188l-0.653-1.751c1.51,1.535,3.836,2.131,5.985,1.33l21.239-7.925
			c0.698-0.261,1.353-0.628,1.94-1.089l0.009-0.007c1.4-2.065,1.792-4.653,1.065-7.042l-0.012-0.037l0.017-0.033
			c1.055-2.053,1.024-4.494-0.083-6.518l-0.084-0.155l0.009-0.034C502.614,123.764,502.24,121.443,501,119.565z"/>
		<path fill="#1471B9" d="M320.555,38.979l-0.3-0.454l0.017-0.057c0.845-3.082-1.09-6.236-4.221-6.877l-0.072-0.015
			c-0.865-0.177-1.763-0.107-2.591,0.202l-12.927,4.822l-0.004-0.074c-0.174-3.166-0.814-6.28-1.916-9.232
			c-3.483-9.338-10.377-6.441-11.072-5.229c-0.211,0.369-0.257,0.809-0.126,1.213l2.521,7.77l-0.009,0.088
			c-0.611,5.716-2.541,11.211-5.637,16.054l-0.038,0.059l-0.054-0.144c-0.479-1.283-1.906-1.936-3.189-1.457l-12.817,4.781
			c-1.283,0.479-1.935,1.907-1.456,3.189l8.023,21.506c0.479,1.283,1.906,1.935,3.189,1.455l12.817-4.781
			c1.283-0.479,1.935-1.906,1.456-3.189l-0.653-1.75c1.51,1.535,3.837,2.131,5.985,1.33l21.239-7.925
			c0.698-0.261,1.353-0.628,1.94-1.089l0.009-0.007c1.4-2.065,1.792-4.653,1.065-7.042l-0.012-0.037l0.017-0.033
			c1.055-2.053,1.024-4.494-0.083-6.518l-0.084-0.154l0.009-0.035C322.17,43.178,321.795,40.857,320.555,38.979z"/>
		<path fill="#1471B9" d="M2.313,572.557l-40.558,15.873l-2.954,16.516l42.953,25.934l13.938-48.199L2.313,572.557z M-4.325,617.029
			c0,0-20.75-6.997-23.974-15.236c-4.465-11.409,10.672-18.75,15.343-6.815c-4.671-11.935,11.52-16.585,15.893-5.41
			C6.162,597.807-4.325,617.029-4.325,617.029z"/>
		<path fill="#1471B9" d="M981.346,129.498c-0.331-0.236-0.729-0.259-1.062-0.123c-0.333,0.137-0.601,0.432-0.672,0.831
			l-3.553,19.876c-0.099,0.549-0.038,1.115,0.173,1.633l12.491,30.566l8.086,3.066c4.091-1.672,6.789-2.775,10.88-4.447l3.624-7.852
			l-12.491-30.566c-0.212-0.517-0.565-0.963-1.021-1.287L981.346,129.498z M979.509,142.237c0,0,1.863,0.951,5.769-0.646
			c3.905-1.596,4.569-3.579,4.569-3.579l5.592,3.976c0.308,0.219,0.415,0.625,0.257,0.967l-2.317,5.023l-9.411,3.846l-5.172-1.962
			c-0.353-0.134-0.561-0.499-0.494-0.871L979.509,142.237z"/>
		<path fill="#1471B9" d="M952.461,242.816l-26.908-11.723c-4.646-2.025-8.328-5.59-10.37-10.035
			c-2.166-4.717-2.257-9.842-0.255-14.43c1.846-4.236,5.307-7.527,9.742-9.27c2.952-1.158,6.208-1.565,9.467-1.189
			c2.133-2.492,4.796-4.41,7.748-5.568c4.436-1.742,9.211-1.684,13.445,0.162c4.59,2.002,8.01,5.819,9.631,10.75
			c1.528,4.647,1.255,9.764-0.771,14.408L952.461,242.816z"/>
		<path fill="#1471B9" d="M222.015,272.67c-1.043,0.064-2.1-0.375-2.783-1.269c-1.09-1.425-0.82-3.464,0.605-4.554
			c7.373-5.645,19.227-10.369,29.155-8.261c5.261-8.679,16.82-14.083,25.982-15.593c1.767-0.291,3.442,0.905,3.734,2.678
			c0.292,1.77-0.907,3.441-2.678,3.733c-7.476,1.231-17.405,5.714-21.537,12.642c-1.388,2.328-4.1,3.504-6.749,2.918
			c-7.877-1.728-17.941,2.437-23.958,7.041C223.254,272.413,222.637,272.631,222.015,272.67z"/>
		<path fill="#1471B9" d="M259.142,206.444c-3.129-0.166-6.976,0.763-10.744,2.355l12.285,28.397l0.316,0.715
			c0.353,0.801,0.053,1.738-0.703,2.176c-1.893,1.096-5.291,3.277-6.815,5.596c-2.223,3.379-2.943,6.145-3.138,7.984
			c4.974-6.665,14.644-11.377,22.638-13.074c0.843-0.178,1.309-1.078,0.967-1.869l-13.608-31.457
			C260.13,206.786,259.666,206.472,259.142,206.444z"/>
		<path fill="#1471B9" d="M242.009,204.879c-1.648,0.816-4.33,2.582-6.568,6.105c-3.634,5.725-2.802,10.715-2.802,10.715
			s-3.067-4.023-9.727-5.294c-4.101-0.782-7.224-0.036-8.946,0.606c-0.848,0.315-1.25,1.281-0.891,2.111l7.051,16.301l6.208,14.35
			c0.449,1.038,1.595,1.57,2.686,1.271c1.641-0.448,4.244-0.877,7.284-0.347c5.71,0.994,8.883,3.306,10.394,4.784
			c0.356,0.348,0.947,0.092,0.937-0.406c-0.043-2.111,0.445-6.008,3.63-10.85c1.697-2.58,3.792-4.185,5.243-5.073
			c0.964-0.591,1.358-1.789,0.909-2.827l-13.259-30.648C243.799,204.847,242.82,204.479,242.009,204.879z"/>
		<path fill="#1471B9" d="M203.375,230.568c2.022-2.394,5.333-4.561,9.073-6.217l12.285,28.398l0.305,0.719
			c0.341,0.805,1.23,1.229,2.067,0.978c2.095-0.63,6.011-1.612,8.745-1.136c3.985,0.693,6.494,2.062,7.968,3.18
			c-8.264-0.938-18.318,2.883-25.029,7.547c-0.708,0.492-1.683,0.216-2.025-0.575l-13.608-31.456
			C202.947,231.523,203.037,230.97,203.375,230.568z"/>
		<path fill="#1471B9" d="M-394.486,336.717c-1.043,0.064-2.1-0.375-2.783-1.268c-1.09-1.426-0.82-3.465,0.605-4.555
			c7.373-5.644,19.227-10.369,29.155-8.26c5.261-8.68,16.819-14.082,25.982-15.594c1.767-0.289,3.442,0.906,3.734,2.678
			c0.292,1.77-0.907,3.443-2.677,3.734c-7.477,1.231-17.405,5.713-21.538,12.641c-1.388,2.33-4.1,3.504-6.749,2.918
			c-7.877-1.727-17.941,2.438-23.958,7.042C-393.247,336.461-393.864,336.678-394.486,336.717z"/>
		<path fill="#1471B9" d="M-357.36,270.492c-3.129-0.166-6.976,0.763-10.744,2.355l12.285,28.397l0.315,0.715
			c0.353,0.8,0.053,1.737-0.703,2.175c-1.893,1.096-5.291,3.277-6.815,5.596c-2.223,3.379-2.943,6.145-3.138,7.985
			c4.974-6.665,14.643-11.377,22.638-13.074c0.843-0.179,1.309-1.079,0.967-1.87l-13.608-31.456
			C-356.371,270.834-356.836,270.52-357.36,270.492z"/>
		<path fill="#1471B9" d="M-374.492,268.928c-1.648,0.814-4.33,2.58-6.568,6.105c-3.634,5.723-2.802,10.713-2.802,10.713
			s-3.067-4.023-9.727-5.293c-4.101-0.783-7.224-0.037-8.947,0.605c-0.848,0.316-1.25,1.282-0.891,2.113l7.051,16.299l6.208,14.351
			c0.449,1.038,1.595,1.569,2.686,1.271c1.641-0.448,4.244-0.876,7.284-0.347c5.71,0.994,8.884,3.307,10.394,4.783
			c0.355,0.349,0.947,0.092,0.937-0.405c-0.043-2.112,0.445-6.008,3.63-10.851c1.697-2.58,3.793-4.184,5.244-5.072
			c0.963-0.59,1.357-1.789,0.909-2.826l-13.259-30.65C-372.702,268.895-373.682,268.525-374.492,268.928z"/>
		<path fill="#1471B9" d="M-413.126,294.616c2.022-2.394,5.333-4.562,9.073-6.217l12.285,28.397l0.305,0.72
			c0.341,0.805,1.23,1.229,2.067,0.978c2.095-0.63,6.011-1.612,8.744-1.137c3.985,0.693,6.494,2.063,7.969,3.181
			c-8.264-0.938-18.318,2.882-25.029,7.547c-0.708,0.491-1.683,0.216-2.025-0.575l-13.608-31.457
			C-413.554,295.571-413.465,295.018-413.126,294.616z"/>
		<path fill="#1471B9" d="M-281.956,43.838c-1.044,0.064-2.1-0.375-2.783-1.269c-1.09-1.425-0.82-3.464,0.605-4.554
			c7.373-5.645,19.227-10.369,29.154-8.26c5.261-8.68,16.82-14.083,25.983-15.594c1.767-0.29,3.442,0.905,3.734,2.678
			c0.292,1.77-0.907,3.442-2.678,3.734c-7.477,1.231-17.405,5.713-21.538,12.641c-1.388,2.328-4.099,3.504-6.749,2.918
			c-7.877-1.728-17.941,2.438-23.958,7.041C-280.717,43.582-281.334,43.799-281.956,43.838z"/>
		<path fill="#1471B9" d="M-244.83-22.388c-3.129-0.166-6.976,0.763-10.743,2.356l12.285,28.396l0.316,0.716
			c0.353,0.8,0.053,1.737-0.703,2.175c-1.893,1.096-5.291,3.277-6.816,5.596c-2.223,3.379-2.943,6.145-3.138,7.984
			c4.974-6.664,14.644-11.377,22.638-13.074c0.843-0.178,1.31-1.078,0.967-1.869l-13.608-31.456
			C-243.841-22.045-244.306-22.359-244.83-22.388z"/>
		<path fill="#1471B9" d="M-261.962-23.952c-1.648,0.815-4.33,2.581-6.568,6.105c-3.634,5.724-2.802,10.714-2.802,10.714
			s-3.067-4.023-9.727-5.294c-4.101-0.782-7.224-0.036-8.947,0.606c-0.848,0.316-1.25,1.281-0.891,2.112l7.052,16.3l6.208,14.35
			c0.449,1.038,1.595,1.57,2.686,1.271c1.641-0.447,4.244-0.875,7.284-0.347c5.71,0.994,8.884,3.306,10.394,4.784
			c0.355,0.348,0.947,0.092,0.937-0.405c-0.043-2.112,0.444-6.009,3.63-10.851c1.697-2.58,3.793-4.185,5.244-5.073
			c0.963-0.59,1.357-1.789,0.909-2.826l-13.259-30.649C-260.172-23.985-261.151-24.354-261.962-23.952z"/>
		<path fill="#1471B9" d="M-300.596,1.736c2.021-2.394,5.333-4.561,9.073-6.217l12.285,28.398l0.305,0.72
			c0.341,0.805,1.229,1.228,2.066,0.977c2.095-0.629,6.011-1.612,8.745-1.136c3.985,0.693,6.494,2.062,7.968,3.18
			c-8.263-0.938-18.318,2.883-25.029,7.547c-0.708,0.492-1.683,0.216-2.025-0.574l-13.608-31.457
			C-301.024,2.692-300.935,2.139-300.596,1.736z"/>
		<path fill="#1471B9" d="M355.7,132.646c-1.043,0.065-2.1-0.374-2.783-1.268c-1.09-1.425-0.82-3.464,0.605-4.554
			c7.374-5.645,19.227-10.369,29.155-8.261c5.261-8.679,16.82-14.082,25.982-15.593c1.768-0.291,3.442,0.905,3.734,2.678
			c0.292,1.77-0.906,3.441-2.677,3.734c-7.477,1.23-17.405,5.713-21.538,12.641c-1.388,2.328-4.099,3.504-6.749,2.918
			c-7.877-1.728-17.941,2.437-23.958,7.041C356.939,132.39,356.322,132.607,355.7,132.646z"/>
		<path fill="#1471B9" d="M392.826,66.42c-3.129-0.165-6.976,0.764-10.744,2.356l12.285,28.397l0.315,0.715
			c0.353,0.8,0.053,1.738-0.703,2.176c-1.893,1.096-5.291,3.277-6.815,5.596c-2.223,3.379-2.943,6.145-3.138,7.984
			c4.974-6.665,14.644-11.377,22.638-13.074c0.843-0.179,1.309-1.078,0.967-1.869l-13.608-31.457
			C393.815,66.763,393.35,66.448,392.826,66.42z"/>
		<path fill="#1471B9" d="M375.694,64.855c-1.648,0.816-4.33,2.582-6.568,6.105c-3.634,5.725-2.802,10.715-2.802,10.715
			s-3.067-4.023-9.727-5.294c-4.101-0.782-7.224-0.036-8.947,0.606c-0.848,0.315-1.25,1.281-0.891,2.111l7.052,16.301l6.208,14.35
			c0.449,1.038,1.595,1.57,2.686,1.271c1.641-0.448,4.244-0.876,7.284-0.347c5.71,0.993,8.884,3.307,10.394,4.784
			c0.356,0.348,0.947,0.092,0.937-0.406c-0.043-2.111,0.445-6.008,3.63-10.85c1.697-2.58,3.793-4.185,5.244-5.073
			c0.963-0.591,1.357-1.789,0.909-2.827l-13.259-30.648C377.484,64.823,376.504,64.455,375.694,64.855z"/>
		<path fill="#1471B9" d="M337.06,90.545c2.022-2.394,5.333-4.561,9.073-6.217l12.285,28.397l0.305,0.72
			c0.341,0.805,1.23,1.229,2.067,0.978c2.095-0.63,6.011-1.612,8.745-1.136c3.985,0.693,6.494,2.062,7.968,3.18
			c-8.263-0.938-18.318,2.883-25.029,7.547c-0.708,0.492-1.683,0.216-2.025-0.575L336.84,91.982
			C336.632,91.5,336.721,90.946,337.06,90.545z"/>
		<path fill="#1471B9" d="M915.554,79.133l-50.391,23.958c-3.741,1.778-5.165,6.604-3.181,10.777l12.898,27.13
			c1.984,4.174,6.626,6.115,10.367,4.336l4.619-2.196c1.296-0.616,3.237-0.372,4.333,1.933c0.428,0.899,1.06,2.233,2.775,5.846
			c0.747,1.578,1.558,1.393,1.769,1.322c0.837-0.275,1.388-1.33,2.729-4.161c0.555-1.173,2.04-4.343,4.414-9.448
			c1.034-2.224,3.78-4.904,4.73-5.357l25.019-11.895c3.742-1.779,5.167-6.605,3.182-10.78l-12.898-27.128
			C923.936,79.295,919.294,77.354,915.554,79.133z"/>
		<path fill="#1471B9" d="M130.257,72.365L79.867,96.324c-3.741,1.778-5.165,6.604-3.181,10.777l12.899,27.13
			c1.984,4.173,6.625,6.114,10.366,4.335l4.62-2.195c1.295-0.617,3.237-0.373,4.333,1.932c0.427,0.9,1.059,2.234,2.775,5.847
			c0.748,1.577,1.558,1.393,1.769,1.321c0.836-0.275,1.388-1.329,2.728-4.16c0.555-1.173,2.04-4.344,4.415-9.449
			c1.034-2.223,3.78-4.904,4.73-5.356l25.019-11.896c3.742-1.779,5.167-6.605,3.182-10.779l-12.898-27.129
			C138.639,72.528,133.998,70.587,130.257,72.365z"/>
		<path fill="#1471B9" d="M-204.815,254.328l-50.39,23.959c-3.741,1.777-5.166,6.604-3.181,10.776l12.899,27.13
			c1.984,4.174,6.626,6.115,10.367,4.336l4.62-2.196c1.296-0.616,3.237-0.372,4.333,1.933c0.428,0.9,1.06,2.234,2.776,5.846
			c0.748,1.578,1.558,1.393,1.769,1.322c0.836-0.275,1.387-1.329,2.728-4.16c0.555-1.174,2.04-4.344,4.415-9.449
			c1.034-2.223,3.78-4.904,4.73-5.356l25.019-11.896c3.742-1.779,5.166-6.605,3.182-10.779l-12.898-27.129
			C-196.434,254.49-201.074,252.549-204.815,254.328z"/>
		<path fill="#1471B9" d="M72.183,368.342l-50.39,23.959c-3.741,1.778-5.166,6.604-3.181,10.777l12.899,27.129
			c1.984,4.174,6.625,6.115,10.367,4.336l4.62-2.195c1.296-0.617,3.237-0.373,4.333,1.932c0.428,0.9,1.06,2.234,2.775,5.846
			c0.748,1.578,1.558,1.394,1.77,1.322c0.836-0.275,1.387-1.329,2.728-4.16c0.555-1.173,2.04-4.344,4.415-9.449
			c1.034-2.223,3.78-4.904,4.73-5.355l25.019-11.896c3.742-1.779,5.167-6.604,3.182-10.779l-12.898-27.129
			C80.565,368.505,75.924,366.563,72.183,368.342z"/>
		<polygon fill="#1471B9" points="491.541,350.212 507.185,363.99 527.994,365.244 519.724,384.38 524.962,404.558 504.207,402.605 
			486.636,413.822 482.078,393.48 465.98,380.235 483.918,369.615 		"/>
		<path fill="#1471B9" d="M728.713,305.19c-2.286-1.707-3.566-4.444-3.41-7.294l0.885-16.197c0.09-1.641-2.104-2.27-2.896-0.83
			l-12.735,23.104c-6.275-3.372-18.443-6.144-28.835-1.283c-10.324,4.827-15.898,16.03-17.4,22.97l-25.998-5.061
			c-1.613-0.314-2.536,1.771-1.22,2.755l12.997,9.706c2.286,1.707,3.566,4.445,3.41,7.293l-0.885,16.198
			c-0.09,1.641,2.104,2.27,2.896,0.831l12.785-23.197c6.289,3.299,18.46,6.203,28.785,1.375
			c10.392-4.857,16.066-15.973,17.502-22.949l28.087,5.467c1.081,0.211,1.7-1.188,0.817-1.846L728.713,305.19z"/>
		<path fill="#1471B9" d="M604.287,335.633l-40.583,15.807l-2.981,16.512l42.91,26.004l14.019-48.177L604.287,335.633z
			 M597.576,380.096c0,0-20.738-7.031-23.949-15.277c-4.446-11.416,10.703-18.732,15.355-6.789
			c-4.652-11.943,11.547-16.566,15.901-5.385C608.095,360.891,597.576,380.096,597.576,380.096z"/>
		<polygon fill="#1471B9" points="807.812,324.342 823.455,338.121 844.264,339.375 835.994,358.51 841.232,378.688 
			820.478,376.736 802.905,387.953 798.349,367.611 782.25,354.365 800.188,343.745 		"/>
		<path fill="#1471B9" d="M548.458,425.441c-0.331-0.236-0.729-0.26-1.062-0.124s-0.601,0.43-0.673,0.829l-3.585,19.87
			c-0.099,0.55-0.04,1.116,0.17,1.634l12.441,30.586l8.081,3.08c4.094-1.665,6.794-2.764,10.888-4.429l3.637-7.845l-12.441-30.588
			c-0.21-0.518-0.563-0.964-1.018-1.288L548.458,425.441z M546.6,438.178c0,0,1.862,0.955,5.77-0.635s4.575-3.572,4.575-3.572
			l5.585,3.984c0.307,0.219,0.415,0.626,0.256,0.969l-2.326,5.018l-9.417,3.831l-5.168-1.97c-0.353-0.135-0.56-0.502-0.492-0.873
			L546.6,438.178z"/>
		<path fill="#1471B9" d="M997.479,267.248l-40.583,15.807l-2.981,16.511l42.909,26.004l14.019-48.177L997.479,267.248z
			 M990.768,311.71c0,0-20.737-7.031-23.948-15.276c-4.446-11.416,10.703-18.732,15.354-6.789
			c-4.651-11.943,11.547-16.566,15.901-5.385C1001.287,292.505,990.768,311.71,990.768,311.71z"/>
		<polygon fill="#1471B9" points="530.126,524.338 545.771,538.117 566.579,539.37 558.31,558.506 563.547,578.684 542.792,576.732 
			525.221,587.949 520.664,567.607 504.566,554.361 522.504,543.741 		"/>
		<path fill="#1471B9" d="M667.898,501.08l-40.583,15.807l-2.981,16.51l42.91,26.005l14.018-48.177L667.898,501.08z
			 M661.188,545.542c0,0-20.738-7.032-23.949-15.276c-4.446-11.416,10.703-18.732,15.354-6.79
			c-4.651-11.942,11.547-16.565,15.901-5.384C671.706,526.336,661.188,545.542,661.188,545.542z"/>
		<path fill="#1471B9" d="M501.448,501.141l-24.062-10.53c-4.154-1.819-7.445-5.015-9.265-8.996
			c-1.932-4.224-2.005-8.81-0.208-12.913c1.659-3.787,4.76-6.729,8.732-8.28c2.643-1.032,5.558-1.392,8.474-1.051
			c1.912-2.228,4.298-3.939,6.941-4.972c3.972-1.553,8.246-1.493,12.032,0.166c4.104,1.797,7.159,5.219,8.603,9.633
			c1.361,4.162,1.108,8.74-0.711,12.893L501.448,501.141z"/>
		<polygon fill="#1471B9" points="1390.852,423.629 1405.999,436.926 1426.12,438.104 1418.154,456.619 1423.252,476.121 
			1403.181,474.267 1386.209,485.141 1381.771,465.479 1366.185,452.698 1383.512,442.401 		"/>
		<path fill="#1471B9" d="M943.728,459.553l-40.558,15.873l-2.954,16.516l42.952,25.934l13.939-48.199L943.728,459.553z
			 M937.089,504.025c0,0-20.749-6.997-23.975-15.237c-4.465-11.408,10.673-18.749,15.344-6.814
			c-4.671-11.935,11.52-16.585,15.894-5.411C947.576,484.803,937.089,504.025,937.089,504.025z"/>
		<path fill="#1471B9" d="M478.379,608.303l-40.558,15.873l-2.954,16.516l42.953,25.934l13.938-48.199L478.379,608.303z
			 M471.741,652.775c0,0-20.749-6.997-23.974-15.236c-4.465-11.409,10.672-18.75,15.343-6.815
			c-4.671-11.935,11.52-16.585,15.893-5.411C482.228,633.553,471.741,652.775,471.741,652.775z"/>
		<path fill="#1471B9" d="M775.461,494.464c-8.452-1.027-16.516,4.496-18.608,12.749c-1.017,4.006-0.542,7.992,1.048,11.42
			c1.473,3.174,1.884,6.749,1.086,10.155c-0.088,0.376-0.157,0.762-0.207,1.155c-0.196,1.562-0.036,3.102,0.409,4.541
			c0.213,0.689,0.611,1.316,1.183,1.758c1.108,0.858,3.365,1.99,7.933,2.838c4.857,0.901,7.517,0.409,8.848-0.106
			c0.666-0.259,1.224-0.724,1.635-1.309c0.887-1.259,1.522-2.725,1.822-4.338c0.032-0.177,0.061-0.354,0.085-0.53
			c0.483-3.539,2.299-6.721,4.829-9.244c2.369-2.361,4.071-5.44,4.729-8.979C792.041,504.925,785.355,495.666,775.461,494.464z
			 M778.351,499.345c-8.263-1.005-16.149,4.384-18.215,12.447c-0.313,1.226-0.417,2.93-0.454,4.3
			c-0.037,1.361-1.054-0.333-1.263-1.745c-0.28-1.89-0.196-3.874,0.313-5.862c1.823-7.119,8.786-11.877,16.081-10.989
			C777.317,497.8,779.442,499.478,778.351,499.345z"/>
		<path fill="#1471B9" d="M767.913,541.184c-3.481-0.646-5.833-1.488-7.423-2.34c-0.355-0.189-0.782,0.064-0.775,0.468l0.06,3.886
			c0.02,1.227,3.741,5.961,6.562,6.484c2.819,0.523,7.992-2.561,8.45-3.699l1.501-3.731c0.152-0.38-0.166-0.774-0.571-0.712
			C773.898,541.816,771.376,541.825,767.913,541.184z"/>
		<polygon fill="#1471B9" points="736.951,624.883 752.618,638.637 773.429,639.855 765.19,659.005 770.462,679.174 
			749.704,677.256 732.15,688.502 727.56,668.168 711.44,654.949 729.361,644.299 		"/>
		<path fill="#1471B9" d="M495.42,740.795c-0.331-0.236-0.729-0.26-1.062-0.123c-0.333,0.136-0.6,0.431-0.672,0.831l-3.553,19.875
			c-0.098,0.55-0.038,1.116,0.173,1.634l12.491,30.565l8.085,3.066c4.091-1.672,6.79-2.774,10.88-4.446l3.624-7.852l-12.492-30.566
			c-0.211-0.518-0.565-0.963-1.021-1.287L495.42,740.795z M493.583,753.534c0,0,1.863,0.95,5.769-0.646
			c3.905-1.596,4.569-3.58,4.569-3.58l5.592,3.976c0.307,0.22,0.416,0.626,0.257,0.968l-2.318,5.022l-9.411,3.847l-5.172-1.962
			c-0.353-0.134-0.561-0.5-0.494-0.872L493.583,753.534z"/>
		<path fill="#1471B9" d="M1033.187,560.442l-24.08-10.491c-4.157-1.813-7.452-5.002-9.28-8.98
			c-1.938-4.221-2.02-8.807-0.228-12.913c1.652-3.79,4.748-6.735,8.718-8.294c2.642-1.037,5.556-1.401,8.473-1.064
			c1.908-2.23,4.291-3.947,6.933-4.984c3.97-1.559,8.243-1.506,12.033,0.146c4.106,1.791,7.167,5.207,8.618,9.62
			c1.367,4.159,1.122,8.737-0.69,12.894L1033.187,560.442z"/>
		<path fill="#1471B9" d="M1121.667,463.577l-24.079-10.491c-4.157-1.813-7.453-5.002-9.28-8.98
			c-1.938-4.221-2.02-8.807-0.229-12.913c1.652-3.79,4.749-6.735,8.719-8.294c2.642-1.037,5.556-1.401,8.472-1.064
			c1.908-2.23,4.292-3.947,6.934-4.984c3.97-1.559,8.243-1.506,12.032,0.146c4.106,1.791,7.167,5.207,8.618,9.619
			c1.368,4.159,1.123,8.738-0.689,12.895L1121.667,463.577z"/>
		<path fill="#1471B9" d="M1324.369,348.158l-22.602-9.848c-3.902-1.701-6.995-4.695-8.71-8.429
			c-1.819-3.962-1.896-8.267-0.215-12.12c1.551-3.558,4.457-6.322,8.184-7.785c2.479-0.974,5.215-1.315,7.952-1
			c1.791-2.094,4.027-3.704,6.507-4.678c3.727-1.463,7.737-1.414,11.294,0.138c3.854,1.681,6.728,4.888,8.09,9.028
			c1.283,3.904,1.054,8.201-0.647,12.102L1324.369,348.158z"/>
		<path fill="#1471B9" d="M1092.581,485.44c-8.452-1.027-16.516,4.496-18.609,12.749c-1.016,4.006-0.541,7.992,1.049,11.42
			c1.472,3.174,1.884,6.749,1.086,10.156c-0.089,0.375-0.157,0.761-0.207,1.154c-0.196,1.562-0.036,3.102,0.408,4.541
			c0.214,0.689,0.611,1.316,1.184,1.759c1.108,0.857,3.365,1.989,7.932,2.837c4.858,0.901,7.518,0.41,8.849-0.106
			c0.666-0.258,1.224-0.724,1.635-1.309c0.887-1.259,1.522-2.725,1.822-4.338c0.032-0.177,0.061-0.354,0.085-0.53
			c0.482-3.539,2.299-6.721,4.829-9.244c2.369-2.361,4.071-5.44,4.728-8.979C1109.16,495.901,1102.476,486.643,1092.581,485.44z
			 M1095.471,490.321c-8.264-1.005-16.15,4.384-18.215,12.448c-0.313,1.225-0.418,2.929-0.454,4.299
			c-0.037,1.362-1.054-0.333-1.263-1.744c-0.28-1.891-0.197-3.875,0.313-5.863c1.822-7.119,8.785-11.877,16.081-10.989
			C1094.437,488.776,1096.563,490.454,1095.471,490.321z"/>
		<path fill="#1471B9" d="M1085.033,532.16c-3.482-0.646-5.834-1.488-7.423-2.34c-0.355-0.189-0.782,0.064-0.776,0.468l0.061,3.886
			c0.02,1.227,3.741,5.961,6.561,6.484c2.82,0.523,7.993-2.561,8.451-3.699l1.5-3.73c0.153-0.381-0.166-0.775-0.571-0.713
			C1091.019,532.793,1088.495,532.802,1085.033,532.16z"/>
		<polygon fill="#1471B9" points="166.083,666.767 181.75,680.52 202.561,681.738 194.323,700.889 199.594,721.058 178.836,719.14 
			161.283,730.386 156.692,710.051 140.572,696.832 158.493,686.183 		"/>
		<path fill="#1471B9" d="M1083.738,600.445c-2.289-1.703-3.574-4.439-3.423-7.287l0.858-16.199
			c0.087-1.642-2.107-2.267-2.897-0.826l-12.697,23.126c-6.28-3.361-18.453-6.112-28.837-1.236
			c-10.316,4.845-15.872,16.058-17.362,22.999l-26.007-5.018c-1.613-0.313-2.533,1.775-1.215,2.757l13.014,9.685
			c2.288,1.704,3.572,4.439,3.422,7.288l-0.858,16.199c-0.087,1.641,2.107,2.266,2.897,0.825l12.748-23.217
			c6.293,3.287,18.469,6.172,28.786,1.327c10.384-4.876,16.04-15.999,17.464-22.979l28.097,5.422
			c1.081,0.209,1.697-1.191,0.814-1.848L1083.738,600.445z"/>
		<polygon fill="#1471B9" points="1168.515,536.513 1184.182,550.266 1204.992,551.484 1196.754,570.635 1202.025,590.803 
			1181.268,588.886 1163.715,600.132 1159.123,579.797 1143.004,566.578 1160.925,555.928 		"/>
		<path fill="#1471B9" d="M983.153,571.596l-0.3-0.453l0.017-0.059c0.845-3.08-1.091-6.234-4.221-6.875l-0.072-0.016
			c-0.865-0.177-1.763-0.107-2.591,0.201l-12.927,4.822l-0.004-0.073c-0.174-3.165-0.813-6.28-1.916-9.233
			c-3.482-9.337-10.377-6.439-11.072-5.227c-0.211,0.369-0.257,0.809-0.126,1.213l2.521,7.77l-0.009,0.088
			c-0.611,5.715-2.541,11.209-5.638,16.053l-0.037,0.059l-0.054-0.145c-0.479-1.282-1.907-1.934-3.189-1.455l-12.816,4.781
			c-1.283,0.479-1.935,1.906-1.457,3.189l8.023,21.504c0.479,1.283,1.906,1.936,3.189,1.457l12.816-4.782
			c1.283-0.478,1.935-1.905,1.456-3.188l-0.653-1.752c1.511,1.536,3.837,2.132,5.985,1.33l21.238-7.924
			c0.699-0.26,1.354-0.627,1.94-1.089l0.009-0.007c1.4-2.065,1.792-4.653,1.065-7.041l-0.012-0.039l0.017-0.032
			c1.055-2.052,1.024-4.493-0.082-6.519L984.171,578l0.01-0.035C984.768,575.793,984.394,573.473,983.153,571.596z"/>
		<path fill="#1471B9" d="M226.037,615.157l-0.3-0.454l0.016-0.057c0.846-3.082-1.09-6.236-4.22-6.877l-0.072-0.015
			c-0.865-0.177-1.763-0.107-2.591,0.201l-12.927,4.823l-0.003-0.074c-0.174-3.166-0.814-6.28-1.916-9.232
			c-3.483-9.338-10.378-6.441-11.073-5.229c-0.211,0.369-0.257,0.809-0.125,1.213l2.521,7.77l-0.009,0.088
			c-0.611,5.716-2.541,11.211-5.637,16.053l-0.038,0.06l-0.054-0.144c-0.478-1.283-1.906-1.936-3.188-1.457l-12.817,4.781
			c-1.283,0.479-1.935,1.907-1.457,3.189l8.023,21.506c0.479,1.282,1.906,1.935,3.189,1.455l12.817-4.781
			c1.283-0.479,1.934-1.906,1.456-3.189l-0.654-1.75c1.511,1.535,3.837,2.131,5.985,1.33l21.239-7.925
			c0.699-0.261,1.354-0.628,1.94-1.089l0.009-0.007c1.401-2.065,1.792-4.653,1.065-7.042l-0.012-0.038l0.017-0.032
			c1.055-2.053,1.024-4.494-0.083-6.518l-0.084-0.155l0.009-0.034C227.651,619.355,227.277,617.035,226.037,615.157z"/>
		<path fill="#1471B9" d="M936.572,330.84l-0.3-0.453l0.016-0.057c0.846-3.082-1.09-6.236-4.22-6.877l-0.072-0.015
			c-0.865-0.177-1.764-0.107-2.591,0.201l-12.927,4.823l-0.004-0.074c-0.175-3.166-0.814-6.28-1.916-9.232
			c-3.483-9.338-10.378-6.441-11.072-5.229c-0.211,0.369-0.257,0.809-0.126,1.213l2.521,7.77l-0.009,0.088
			c-0.611,5.715-2.541,11.211-5.638,16.053l-0.038,0.06l-0.054-0.144c-0.478-1.283-1.906-1.936-3.188-1.457l-12.816,4.781
			c-1.283,0.479-1.936,1.907-1.457,3.19l8.023,21.505c0.479,1.282,1.906,1.935,3.189,1.455l12.816-4.781
			c1.283-0.479,1.935-1.906,1.456-3.189l-0.653-1.751c1.51,1.536,3.837,2.132,5.985,1.331l21.238-7.925
			c0.699-0.261,1.354-0.628,1.94-1.089l0.009-0.008c1.4-2.064,1.792-4.652,1.064-7.041l-0.012-0.038l0.018-0.032
			c1.055-2.053,1.023-4.494-0.083-6.519l-0.084-0.154l0.009-0.034C938.187,335.039,937.813,332.719,936.572,330.84z"/>
		<path fill="#1471B9" d="M678.845,426.047l-0.301-0.453l0.017-0.059c0.846-3.08-1.09-6.234-4.221-6.876l-0.072-0.015
			c-0.865-0.178-1.763-0.107-2.591,0.201l-12.927,4.822l-0.003-0.073c-0.175-3.166-0.814-6.28-1.916-9.233
			c-3.483-9.337-10.378-6.439-11.073-5.227c-0.211,0.368-0.257,0.808-0.125,1.213l2.521,7.769l-0.01,0.089
			c-0.611,5.715-2.541,11.209-5.637,16.053l-0.038,0.059l-0.054-0.145c-0.479-1.282-1.906-1.935-3.188-1.455l-12.817,4.781
			c-1.283,0.479-1.935,1.906-1.456,3.189l8.023,21.504c0.479,1.283,1.905,1.936,3.188,1.457l12.817-4.782
			c1.282-0.479,1.934-1.906,1.456-3.188l-0.654-1.752c1.511,1.536,3.837,2.132,5.985,1.33l21.239-7.924
			c0.698-0.26,1.354-0.628,1.939-1.089l0.009-0.007c1.401-2.066,1.792-4.654,1.065-7.041l-0.012-0.039l0.017-0.032
			c1.056-2.053,1.024-4.493-0.082-6.519l-0.085-0.154l0.01-0.035C680.459,430.244,680.084,427.924,678.845,426.047z"/>
		<path fill="#1471B9" d="M615.232,723.475l-0.3-0.453l0.017-0.058c0.846-3.081-1.09-6.235-4.221-6.876l-0.072-0.016
			c-0.865-0.177-1.763-0.107-2.591,0.201l-12.926,4.823l-0.004-0.073c-0.174-3.166-0.814-6.281-1.916-9.234
			c-3.483-9.337-10.377-6.439-11.072-5.227c-0.211,0.369-0.257,0.809-0.126,1.213l2.521,7.77l-0.009,0.088
			c-0.611,5.715-2.541,11.21-5.637,16.053l-0.038,0.059l-0.054-0.145c-0.479-1.282-1.906-1.934-3.189-1.455l-12.817,4.781
			c-1.283,0.479-1.935,1.906-1.457,3.189l8.023,21.504c0.479,1.283,1.906,1.936,3.189,1.457l12.817-4.781
			c1.283-0.479,1.934-1.906,1.456-3.189l-0.654-1.752c1.511,1.537,3.837,2.132,5.985,1.33l21.239-7.924
			c0.698-0.26,1.354-0.627,1.939-1.089l0.009-0.007c1.401-2.065,1.792-4.653,1.065-7.041l-0.012-0.039l0.017-0.031
			c1.055-2.053,1.024-4.494-0.082-6.52l-0.085-0.154l0.01-0.035C616.848,727.672,616.473,725.352,615.232,723.475z"/>
		<path fill="#1471B9" d="M292.91,701.225l-40.558,15.873l-2.954,16.516l42.953,25.934l13.938-48.199L292.91,701.225z
			 M286.271,745.697c0,0-20.749-6.996-23.974-15.236c-4.465-11.408,10.672-18.75,15.343-6.814
			c-4.671-11.936,11.52-16.586,15.893-5.411C296.759,726.475,286.271,745.697,286.271,745.697z"/>
		<path fill="#1471B9" d="M1597.363,421.359c-0.332-0.236-0.729-0.26-1.063-0.123c-0.332,0.136-0.6,0.431-0.672,0.831l-3.553,19.875
			c-0.098,0.55-0.038,1.116,0.174,1.634l12.491,30.566l8.085,3.065c4.092-1.672,6.79-2.774,10.881-4.446l3.624-7.852l-12.492-30.566
			c-0.211-0.518-0.565-0.963-1.021-1.287L1597.363,421.359z M1595.525,434.099c0,0,1.863,0.95,5.769-0.646s4.569-3.579,4.569-3.579
			l5.592,3.976c0.308,0.218,0.416,0.625,0.258,0.967l-2.318,5.023l-9.41,3.846l-5.172-1.962c-0.354-0.134-0.561-0.5-0.494-0.871
			L1595.525,434.099z"/>
		<path fill="#1471B9" d="M1301.344,421.359c-0.331-0.236-0.729-0.26-1.062-0.123c-0.333,0.136-0.601,0.431-0.672,0.831
			l-3.553,19.875c-0.099,0.55-0.038,1.116,0.173,1.634l12.492,30.566l8.085,3.065c4.091-1.672,6.79-2.774,10.881-4.446l3.623-7.852
			l-12.491-30.566c-0.211-0.518-0.565-0.963-1.021-1.287L1301.344,421.359z M1299.507,434.099c0,0,1.863,0.95,5.769-0.646
			s4.569-3.579,4.569-3.579l5.592,3.976c0.308,0.218,0.415,0.625,0.258,0.967l-2.318,5.023l-9.411,3.846l-5.172-1.962
			c-0.353-0.134-0.56-0.5-0.493-0.871L1299.507,434.099z"/>
		<path fill="#1471B9" d="M1259.325,496.402l-40.558,15.874l-2.954,16.515l42.953,25.934l13.938-48.199L1259.325,496.402z
			 M1252.688,540.876c0,0-20.75-6.997-23.975-15.237c-4.465-11.408,10.672-18.75,15.344-6.814
			c-4.672-11.936,11.52-16.586,15.893-5.41C1263.174,521.653,1252.688,540.876,1252.688,540.876z"/>
		<path fill="#1471B9" d="M1568.478,534.678l-26.907-11.723c-4.646-2.025-8.329-5.59-10.371-10.035
			c-2.166-4.717-2.257-9.842-0.255-14.431c1.847-4.235,5.307-7.526,9.743-9.269c2.951-1.158,6.208-1.565,9.467-1.189
			c2.132-2.493,4.795-4.41,7.747-5.568c4.437-1.742,9.212-1.685,13.446,0.162c4.589,2.002,8.009,5.819,9.631,10.75
			c1.527,4.646,1.254,9.764-0.771,14.408L1568.478,534.678z"/>
		<path fill="#1471B9" d="M841.835,691.027c-8.451-1.027-16.516,4.496-18.608,12.75c-1.016,4.005-0.541,7.992,1.048,11.419
			c1.473,3.174,1.884,6.749,1.086,10.156c-0.088,0.376-0.157,0.761-0.207,1.155c-0.196,1.561-0.036,3.102,0.409,4.541
			c0.213,0.689,0.611,1.316,1.183,1.758c1.109,0.858,3.365,1.99,7.933,2.838c4.857,0.9,7.518,0.409,8.848-0.107
			c0.667-0.258,1.224-0.724,1.635-1.308c0.887-1.26,1.523-2.726,1.822-4.338c0.033-0.177,0.061-0.354,0.085-0.53
			c0.483-3.54,2.299-6.722,4.829-9.244c2.369-2.361,4.071-5.441,4.729-8.979C858.415,701.489,851.729,692.23,841.835,691.027z
			 M844.726,695.909c-8.264-1.005-16.15,4.384-18.215,12.447c-0.314,1.226-0.418,2.93-0.455,4.3
			c-0.037,1.361-1.054-0.334-1.263-1.745c-0.279-1.89-0.196-3.874,0.313-5.862c1.823-7.119,8.786-11.877,16.081-10.989
			C843.691,694.364,845.816,696.042,844.726,695.909z"/>
		<path fill="#1471B9" d="M834.287,737.747c-3.481-0.646-5.833-1.487-7.422-2.339c-0.355-0.19-0.782,0.064-0.776,0.468l0.061,3.886
			c0.019,1.227,3.741,5.961,6.561,6.484c2.819,0.522,7.992-2.562,8.45-3.699l1.501-3.731c0.153-0.38-0.166-0.774-0.571-0.713
			C840.273,738.381,837.75,738.389,834.287,737.747z"/>
		<path fill="#1471B9" d="M838.032,564.53c-1.044,0.065-2.1-0.374-2.783-1.269c-1.091-1.424-0.82-3.463,0.605-4.553
			c7.373-5.645,19.227-10.369,29.154-8.261c5.261-8.679,16.819-14.083,25.982-15.593c1.768-0.291,3.442,0.905,3.733,2.678
			c0.292,1.77-0.906,3.441-2.677,3.733c-7.477,1.231-17.405,5.713-21.538,12.642c-1.388,2.328-4.099,3.504-6.748,2.918
			c-7.878-1.728-17.941,2.437-23.959,7.041C839.271,564.274,838.654,564.492,838.032,564.53z"/>
		<path fill="#1471B9" d="M875.158,498.305c-3.129-0.165-6.976,0.764-10.743,2.356l12.285,28.397l0.315,0.715
			c0.353,0.8,0.053,1.738-0.703,2.176c-1.893,1.096-5.291,3.277-6.815,5.595c-2.223,3.38-2.943,6.146-3.138,7.985
			c4.974-6.666,14.644-11.377,22.638-13.074c0.843-0.179,1.309-1.078,0.967-1.869l-13.608-31.457
			C876.147,498.647,875.683,498.333,875.158,498.305z"/>
		<path fill="#1471B9" d="M858.026,496.74c-1.648,0.816-4.33,2.582-6.568,6.105c-3.634,5.725-2.802,10.715-2.802,10.715
			s-3.067-4.023-9.727-5.295c-4.102-0.781-7.224-0.035-8.947,0.606c-0.848,0.316-1.249,1.282-0.891,2.112l7.052,16.301l6.208,14.35
			c0.449,1.038,1.595,1.57,2.686,1.271c1.642-0.448,4.244-0.877,7.284-0.348c5.71,0.994,8.884,3.307,10.394,4.785
			c0.355,0.348,0.947,0.092,0.938-0.406c-0.043-2.111,0.444-6.008,3.63-10.85c1.697-2.58,3.793-4.185,5.243-5.074
			c0.964-0.59,1.357-1.789,0.909-2.826l-13.259-30.649C859.816,496.708,858.837,496.34,858.026,496.74z"/>
		<path fill="#1471B9" d="M819.393,522.43c2.021-2.394,5.332-4.561,9.072-6.217l12.285,28.397l0.305,0.72
			c0.342,0.805,1.23,1.229,2.067,0.977c2.095-0.629,6.011-1.611,8.744-1.136c3.985,0.694,6.494,2.063,7.969,3.181
			c-8.264-0.939-18.318,2.883-25.029,7.547c-0.707,0.492-1.683,0.216-2.024-0.575l-13.608-31.456
			C818.965,523.385,819.054,522.831,819.393,522.43z"/>
		<path fill="#1471B9" d="M826.782,293.512c-1.044,0.065-2.1-0.374-2.783-1.268c-1.091-1.425-0.82-3.463,0.604-4.554
			c7.373-5.644,19.227-10.369,29.155-8.261c5.261-8.678,16.819-14.082,25.982-15.593c1.767-0.29,3.442,0.905,3.733,2.678
			c0.292,1.77-0.906,3.442-2.678,3.733c-7.476,1.232-17.404,5.713-21.537,12.642c-1.388,2.329-4.1,3.505-6.748,2.919
			c-7.878-1.729-17.941,2.436-23.959,7.041C828.021,293.256,827.404,293.474,826.782,293.512z"/>
		<path fill="#1471B9" d="M863.908,227.287c-3.129-0.166-6.976,0.764-10.743,2.355l12.284,28.398l0.316,0.715
			c0.353,0.799,0.053,1.737-0.703,2.175c-1.894,1.097-5.291,3.277-6.815,5.595c-2.224,3.38-2.944,6.146-3.139,7.986
			c4.974-6.666,14.644-11.377,22.638-13.074c0.844-0.18,1.31-1.079,0.968-1.869l-13.608-31.457
			C864.897,227.629,864.433,227.315,863.908,227.287z"/>
		<path fill="#1471B9" d="M846.775,225.723c-1.647,0.816-4.33,2.581-6.567,6.105c-3.634,5.724-2.802,10.714-2.802,10.714
			s-3.067-4.022-9.728-5.294c-4.101-0.782-7.224-0.036-8.946,0.606c-0.848,0.315-1.25,1.282-0.891,2.112l7.052,16.301l6.208,14.35
			c0.448,1.037,1.595,1.569,2.686,1.271c1.641-0.449,4.244-0.877,7.284-0.348c5.71,0.994,8.883,3.307,10.394,4.784
			c0.355,0.349,0.947,0.093,0.937-0.405c-0.043-2.112,0.444-6.008,3.631-10.851c1.696-2.58,3.792-4.185,5.243-5.073
			c0.964-0.59,1.357-1.789,0.909-2.826l-13.26-30.65C848.565,225.689,847.587,225.321,846.775,225.723z"/>
		<path fill="#1471B9" d="M808.142,251.412c2.022-2.395,5.333-4.562,9.073-6.217l12.285,28.396l0.305,0.721
			c0.341,0.805,1.23,1.229,2.066,0.977c2.096-0.629,6.012-1.611,8.745-1.136c3.985,0.693,6.494,2.062,7.969,3.181
			c-8.264-0.939-18.319,2.883-25.029,7.547c-0.708,0.491-1.683,0.215-2.025-0.576l-13.607-31.456
			C807.714,252.367,807.804,251.813,808.142,251.412z"/>
		<path fill="#1471B9" d="M548.588,332.463c-1.043,0.064-2.099-0.375-2.783-1.269c-1.091-1.425-0.82-3.464,0.605-4.554
			c7.373-5.645,19.227-10.369,29.154-8.26c5.261-8.68,16.82-14.084,25.983-15.594c1.767-0.291,3.442,0.905,3.733,2.678
			c0.292,1.77-0.906,3.441-2.678,3.734c-7.476,1.23-17.404,5.713-21.537,12.641c-1.388,2.328-4.099,3.504-6.749,2.918
			c-7.877-1.728-17.941,2.437-23.958,7.041C549.828,332.206,549.21,332.424,548.588,332.463z"/>
		<path fill="#1471B9" d="M585.715,266.237c-3.129-0.166-6.976,0.763-10.743,2.355l12.285,28.397l0.316,0.715
			c0.353,0.8,0.053,1.738-0.703,2.176c-1.893,1.096-5.291,3.277-6.816,5.596c-2.223,3.379-2.943,6.145-3.138,7.984
			c4.974-6.665,14.644-11.377,22.638-13.074c0.843-0.178,1.31-1.078,0.967-1.869l-13.608-31.457
			C586.704,266.579,586.239,266.266,585.715,266.237z"/>
		<path fill="#1471B9" d="M568.583,264.672c-1.648,0.816-4.33,2.582-6.568,6.106c-3.634,5.724-2.802,10.714-2.802,10.714
			s-3.067-4.023-9.727-5.294c-4.101-0.782-7.224-0.036-8.947,0.606c-0.848,0.315-1.25,1.281-0.891,2.111l7.052,16.301l6.208,14.35
			c0.449,1.038,1.595,1.57,2.686,1.271c1.641-0.448,4.244-0.876,7.284-0.347c5.71,0.994,8.884,3.306,10.394,4.784
			c0.356,0.348,0.947,0.092,0.938-0.406c-0.043-2.111,0.444-6.008,3.63-10.85c1.697-2.58,3.793-4.185,5.244-5.073
			c0.963-0.591,1.357-1.789,0.909-2.826l-13.259-30.649C570.373,264.64,569.394,264.271,568.583,264.672z"/>
		<path fill="#1471B9" d="M529.949,290.361c2.021-2.394,5.333-4.561,9.073-6.217l12.285,28.398l0.305,0.719
			c0.341,0.805,1.229,1.229,2.066,0.978c2.095-0.63,6.011-1.612,8.745-1.136c3.985,0.693,6.494,2.062,7.968,3.18
			c-8.263-0.938-18.318,2.883-25.029,7.547c-0.708,0.492-1.683,0.217-2.025-0.574l-13.608-31.457
			C529.521,291.316,529.61,290.763,529.949,290.361z"/>
		<path fill="#1471B9" d="M971.717,424.507c-1.044,0.065-2.1-0.374-2.783-1.269c-1.09-1.424-0.82-3.463,0.605-4.553
			c7.373-5.645,19.227-10.369,29.154-8.261c5.261-8.679,16.819-14.083,25.982-15.593c1.768-0.291,3.442,0.905,3.734,2.678
			c0.291,1.77-0.907,3.441-2.678,3.733c-7.477,1.231-17.405,5.713-21.537,12.642c-1.388,2.328-4.1,3.504-6.749,2.918
			c-7.878-1.728-17.941,2.437-23.959,7.041C972.956,424.25,972.339,424.469,971.717,424.507z"/>
		<path fill="#1471B9" d="M1008.843,358.281c-3.129-0.165-6.976,0.764-10.743,2.356l12.285,28.397l0.315,0.715
			c0.353,0.8,0.053,1.738-0.703,2.176c-1.893,1.096-5.291,3.277-6.815,5.595c-2.223,3.38-2.943,6.146-3.138,7.985
			c4.974-6.666,14.644-11.377,22.638-13.074c0.843-0.178,1.31-1.078,0.967-1.869l-13.607-31.457
			C1009.832,358.624,1009.367,358.31,1008.843,358.281z"/>
		<path fill="#1471B9" d="M991.711,356.717c-1.648,0.816-4.33,2.582-6.568,6.105c-3.634,5.725-2.802,10.715-2.802,10.715
			s-3.067-4.023-9.727-5.295c-4.101-0.781-7.224-0.035-8.947,0.607c-0.848,0.315-1.249,1.281-0.89,2.111l7.051,16.301l6.208,14.35
			c0.449,1.038,1.595,1.57,2.686,1.271c1.642-0.448,4.244-0.877,7.284-0.348c5.71,0.994,8.884,3.307,10.394,4.785
			c0.355,0.348,0.947,0.092,0.938-0.406c-0.043-2.111,0.444-6.008,3.63-10.851c1.697-2.579,3.793-4.185,5.243-5.072
			c0.964-0.591,1.357-1.79,0.909-2.827l-13.259-30.649C993.501,356.684,992.521,356.316,991.711,356.717z"/>
		<path fill="#1471B9" d="M953.077,382.406c2.021-2.395,5.332-4.561,9.073-6.217l12.284,28.398l0.306,0.719
			c0.341,0.805,1.229,1.229,2.066,0.977c2.095-0.629,6.011-1.611,8.744-1.136c3.985,0.694,6.494,2.062,7.969,3.181
			c-8.264-0.939-18.318,2.883-25.029,7.547c-0.707,0.492-1.683,0.216-2.024-0.575l-13.608-31.456
			C952.649,383.361,952.738,382.808,953.077,382.406z"/>
		<path fill="#1471B9" d="M868.318,588.638l-50.391,23.958c-3.741,1.779-5.165,6.604-3.181,10.777l12.898,27.131
			c1.984,4.173,6.626,6.114,10.367,4.336l4.619-2.197c1.296-0.615,3.237-0.371,4.333,1.934c0.428,0.898,1.06,2.232,2.775,5.846
			c0.748,1.577,1.558,1.393,1.77,1.32c0.836-0.274,1.387-1.328,2.728-4.16c0.555-1.172,2.04-4.343,4.414-9.447
			c1.034-2.225,3.78-4.906,4.73-5.357l25.019-11.895c3.742-1.779,5.167-6.606,3.182-10.781l-12.898-27.128
			C876.7,588.801,872.059,586.859,868.318,588.638z"/>
		<path fill="#1471B9" d="M1531.57,370.994l-50.391,23.958c-3.741,1.778-5.165,6.604-3.181,10.777l12.899,27.13
			c1.984,4.174,6.625,6.115,10.366,4.336l4.62-2.196c1.295-0.616,3.236-0.372,4.332,1.933c0.428,0.899,1.06,2.233,2.775,5.846
			c0.748,1.578,1.559,1.393,1.77,1.321c0.836-0.274,1.388-1.329,2.728-4.16c0.555-1.173,2.04-4.343,4.415-9.448
			c1.033-2.224,3.779-4.904,4.729-5.357l25.02-11.895c3.741-1.779,5.166-6.605,3.182-10.78l-12.898-27.129
			C1539.952,371.156,1535.312,369.215,1531.57,370.994z"/>
		<path fill="#1471B9" d="M746.274,364.227l-50.391,23.959c-3.741,1.777-5.165,6.604-3.181,10.777l12.898,27.129
			c1.984,4.174,6.626,6.115,10.367,4.336l4.619-2.195c1.296-0.617,3.237-0.373,4.333,1.932c0.428,0.9,1.06,2.234,2.775,5.846
			c0.747,1.578,1.558,1.394,1.769,1.322c0.837-0.275,1.388-1.329,2.729-4.16c0.555-1.173,2.04-4.344,4.414-9.449
			c1.034-2.223,3.78-4.904,4.73-5.356l25.019-11.896c3.742-1.779,5.167-6.605,3.182-10.779l-12.898-27.129
			C754.656,364.389,750.015,362.448,746.274,364.227z"/>
		<path fill="#1471B9" d="M667.808,615.105l-50.391,23.958c-3.741,1.778-5.165,6.604-3.181,10.777l12.899,27.13
			c1.984,4.174,6.625,6.115,10.366,4.336l4.62-2.196c1.296-0.616,3.236-0.372,4.332,1.933c0.428,0.899,1.06,2.233,2.775,5.846
			c0.748,1.578,1.559,1.393,1.77,1.322c0.836-0.275,1.388-1.33,2.728-4.161c0.556-1.173,2.04-4.343,4.415-9.448
			c1.033-2.223,3.779-4.904,4.729-5.356l25.02-11.896c3.741-1.779,5.166-6.605,3.182-10.779l-12.898-27.129
			C676.189,615.268,671.549,613.326,667.808,615.105z"/>
	</g>
</g>
</svg>
