<?xml version="1.0" encoding="utf-8"?>
<!-- Generator: Adobe Illustrator 16.0.0, SVG Export Plug-In . SVG Version: 6.00 Build 0)  -->
<!DOCTYPE svg PUBLIC "-//W3C//DTD SVG 1.1//EN" "http://www.w3.org/Graphics/SVG/1.1/DTD/svg11.dtd">
<svg version="1.1" id="Слой_1" xmlns="http://www.w3.org/2000/svg" xmlns:xlink="http://www.w3.org/1999/xlink" x="0px" y="0px"
	 width="1200px" height="720px" viewBox="0 0 1200 720" enable-background="new 0 0 1200 720" xml:space="preserve">
<g>
	<defs>
		<path id="SVGID_1_" d="M1159.998,1c-20.001,0-20.001,10-40.002,10c-19.998,0-19.998-10-39.996-10c-20.001,0-20.001,10-40.002,10
			s-20.001-10-40.002-10C979.998,1,979.998,11,960,11c-20.001,0-20.001-10-40.002-10s-20.001,10-40.002,10
			C859.998,11,859.998,1,840,1c-20.001,0-20.001,10-40.002,10S779.997,1,759.996,1C739.998,1,739.998,11,720,11
			c-20.001,0-20.001-10-40.002-10s-20.001,10-40.002,10C619.998,11,619.998,1,600,1c-20.001,0-20.001,10-40.002,10
			S539.997,1,519.996,1C499.998,1,499.998,11,480,11c-20.001,0-20.001-10-40.002-10s-20.001,10-40.002,10
			C379.998,11,379.998,1,360,1c-20.001,0-20.001,10-40.002,10S299.997,1,279.996,1C259.998,1,259.998,11,240,11
			c-20.001,0-20.001-10-40.002-10s-20.001,10-40.002,10C139.998,11,139.998,1,120,1C99.999,1,99.999,11,79.998,11S59.997,1,39.996,1
			C19.998,1,19.998,11,0,11v700c19.998,0,19.998,10,39.996,10c20.001,0,20.001-10,40.002-10S99.999,721,120,721
			c19.998,0,19.998-10,39.996-10c20.001,0,20.001,10,40.002,10s20.001-10,40.002-10c19.998,0,19.998,10,39.996,10
			c20.001,0,20.001-10,40.002-10s20.001,10,40.002,10c19.998,0,19.998-10,39.996-10c20.001,0,20.001,10,40.002,10
			s20.001-10,40.002-10c19.998,0,19.998,10,39.996,10c20.001,0,20.001-10,40.002-10s20.001,10,40.002,10
			c19.998,0,19.998-10,39.996-10c20.001,0,20.001,10,40.002,10s20.001-10,40.002-10c19.998,0,19.998,10,39.996,10
			c20.001,0,20.001-10,40.002-10s20.001,10,40.002,10c19.998,0,19.998-10,39.996-10c20.001,0,20.001,10,40.002,10
			s20.001-10,40.002-10c19.998,0,19.998,10,39.996,10c20.001,0,20.001-10,40.002-10s20.001,10,40.002,10
			c19.998,0,19.998-10,39.996-10c20.001,0,20.001,10,40.002,10s20.001-10,40.002-10V11C1179.999,11,1179.999,1,1159.998,1z"/>
	</defs>
	<clipPath id="SVGID_2_">
		<use xlink:href="#SVGID_1_"  overflow="visible"/>
	</clipPath>
	<g opacity="0.5" clip-path="url(#SVGID_2_)">
		<path fill="#DFDACD" d="M-101.833-20.034c-2.286-1.708-3.566-4.445-3.41-7.294l0.885-16.197c0.09-1.641-2.104-2.27-2.896-0.83
			l-12.735,23.104c-6.275-3.372-18.443-6.144-28.834-1.284c-10.325,4.828-15.899,16.031-17.401,22.971l-25.998-5.061
			c-1.613-0.314-2.537,1.771-1.22,2.755l12.998,9.706c2.286,1.707,3.565,4.445,3.41,7.293l-0.885,16.198
			c-0.089,1.641,2.104,2.27,2.896,0.831l12.786-23.197c6.288,3.298,18.459,6.203,28.784,1.375
			c10.392-4.858,16.066-15.973,17.502-22.95l28.087,5.468c1.081,0.211,1.7-1.188,0.817-1.847L-101.833-20.034z"/>
		<path fill="#DFDACD" d="M-226.257,10.408l-40.584,15.807l-2.981,16.511l42.91,26.004l14.018-48.177L-226.257,10.408z
			 M-232.969,54.871c0,0-20.738-7.032-23.949-15.277c-4.446-11.416,10.703-18.732,15.355-6.789
			c-4.652-11.943,11.547-16.566,15.902-5.385C-222.45,35.665-232.969,54.871-232.969,54.871z"/>
		<polygon fill="#DFDACD" points="-22.734,-0.883 -7.09,12.896 13.719,14.149 5.449,33.285 10.687,53.463 -10.068,51.512 
			-27.639,62.729 -32.197,42.386 -48.294,29.141 -30.356,18.521 		"/>
		<path fill="#DFDACD" d="M-67.559,96.98c-0.331-0.236-0.729-0.26-1.062-0.124c-0.333,0.135-0.601,0.43-0.673,0.829l-3.585,19.869
			c-0.099,0.55-0.04,1.117,0.17,1.634l12.441,30.587l8.081,3.08c4.094-1.666,6.794-2.764,10.888-4.429l3.637-7.846l-12.441-30.587
			c-0.21-0.518-0.563-0.964-1.018-1.289L-67.559,96.98z M-69.417,109.717c0,0,1.862,0.954,5.77-0.635
			c3.908-1.59,4.575-3.572,4.575-3.572l5.585,3.984c0.307,0.219,0.415,0.625,0.256,0.968l-2.326,5.019l-9.417,3.83l-5.168-1.97
			c-0.353-0.134-0.56-0.501-0.493-0.872L-69.417,109.717z"/>
		<path fill="#DFDACD" d="M512.088-21.917L471.504-6.11L468.523,10.4l42.91,26.004l14.018-48.177L512.088-21.917z M505.376,22.545
			c0,0-20.738-7.031-23.949-15.276c-4.446-11.416,10.703-18.732,15.354-6.79c-4.651-11.942,11.547-16.565,15.902-5.384
			C515.895,3.34,505.376,22.545,505.376,22.545z"/>
		<polygon fill="#DFDACD" points="-85.891,195.877 -70.247,209.655 -49.438,210.909 -57.708,230.045 -52.469,250.223 
			-73.225,248.271 -90.796,259.488 -95.354,239.146 -111.451,225.9 -93.513,215.279 		"/>
		<path fill="#DFDACD" d="M51.882,172.618l-40.584,15.807l-2.981,16.511l42.91,26.004l14.018-48.176L51.882,172.618z M45.17,217.08
			c0,0-20.737-7.031-23.949-15.276c-4.446-11.415,10.703-18.731,15.354-6.789c-4.651-11.942,11.547-16.566,15.902-5.385
			C55.689,197.875,45.17,217.08,45.17,217.08z"/>
		<path fill="#DFDACD" d="M211.35,137.026l-24.062-10.53c-4.154-1.82-7.445-5.015-9.266-8.996
			c-1.931-4.224-2.005-8.811-0.207-12.914c1.659-3.786,4.76-6.727,8.732-8.279c2.643-1.032,5.558-1.392,8.474-1.051
			c1.912-2.228,4.298-3.939,6.941-4.972c3.972-1.553,8.246-1.493,12.032,0.166c4.104,1.798,7.159,5.219,8.603,9.634
			c1.36,4.161,1.108,8.739-0.711,12.892L211.35,137.026z"/>
		<path fill="#DFDACD" d="M-114.569,172.68l-24.062-10.53c-4.154-1.82-7.444-5.015-9.265-8.996
			c-1.932-4.224-2.005-8.811-0.208-12.914c1.659-3.787,4.76-6.728,8.732-8.279c2.643-1.033,5.558-1.393,8.474-1.051
			c1.912-2.228,4.298-3.939,6.941-4.973c3.972-1.552,8.246-1.493,12.032,0.166c4.104,1.798,7.159,5.22,8.603,9.634
			c1.361,4.161,1.108,8.74-0.711,12.893L-114.569,172.68z"/>
		<path fill="#DFDACD" d="M296.569,62.198c-8.45-1.041-16.523,4.47-18.63,12.719c-1.022,4.003-0.555,7.991,1.029,11.421
			c1.467,3.177,1.873,6.753,1.069,10.158c-0.089,0.376-0.159,0.761-0.209,1.154c-0.199,1.562-0.042,3.102,0.401,4.542
			c0.212,0.69,0.609,1.317,1.18,1.761c1.107,0.859,3.362,1.995,7.928,2.85c4.856,0.91,7.517,0.422,8.849-0.092
			c0.667-0.257,1.225-0.722,1.637-1.306c0.888-1.258,1.527-2.722,1.829-4.335c0.033-0.177,0.062-0.354,0.086-0.529
			c0.489-3.539,2.31-6.718,4.845-9.236c2.373-2.358,4.08-5.435,4.743-8.972C313.131,72.688,306.461,63.418,296.569,62.198z
			 M299.451,67.085c-8.262-1.02-16.157,4.356-18.235,12.417c-0.316,1.226-0.422,2.929-0.461,4.299
			c-0.04,1.361-1.053-0.335-1.26-1.747c-0.277-1.891-0.19-3.874,0.322-5.862c1.834-7.116,8.805-11.861,16.099-10.963
			C298.419,65.538,300.542,67.219,299.451,67.085z"/>
		<path fill="#DFDACD" d="M288.944,108.905c-3.481-0.651-5.831-1.497-7.418-2.351c-0.355-0.191-0.783,0.063-0.777,0.466l0.054,3.886
			c0.018,1.227,3.731,5.967,6.551,6.495c2.818,0.527,7.997-2.548,8.456-3.686l1.507-3.729c0.153-0.38-0.165-0.774-0.57-0.714
			C294.928,109.549,292.405,109.554,288.944,108.905z"/>
		<path fill="#DFDACD" d="M-61.272,286.509c-8.45-1.041-16.523,4.47-18.63,12.719c-1.022,4.003-0.554,7.991,1.029,11.421
			c1.467,3.176,1.873,6.753,1.069,10.158c-0.089,0.376-0.159,0.761-0.209,1.154c-0.199,1.562-0.042,3.102,0.401,4.542
			c0.212,0.69,0.609,1.317,1.18,1.761c1.107,0.859,3.362,1.995,7.928,2.85c4.856,0.91,7.517,0.422,8.849-0.092
			c0.667-0.257,1.225-0.722,1.637-1.306c0.889-1.258,1.527-2.722,1.829-4.335c0.033-0.177,0.062-0.354,0.086-0.529
			c0.489-3.54,2.31-6.719,4.845-9.236c2.373-2.358,4.08-5.435,4.743-8.972C-44.71,296.998-51.38,287.728-61.272,286.509z
			 M-58.391,291.396c-8.262-1.02-16.157,4.356-18.235,12.417c-0.316,1.225-0.422,2.929-0.461,4.298
			c-0.039,1.362-1.053-0.334-1.26-1.746c-0.277-1.891-0.19-3.874,0.322-5.862c1.834-7.116,8.805-11.862,16.099-10.963
			C-59.422,289.849-57.3,291.529-58.391,291.396z"/>
		<path fill="#DFDACD" d="M-68.897,333.216c-3.481-0.652-5.831-1.497-7.418-2.351c-0.355-0.191-0.783,0.063-0.777,0.466l0.054,3.886
			c0.017,1.227,3.731,5.967,6.55,6.494c2.819,0.528,7.997-2.547,8.457-3.685l1.507-3.729c0.154-0.38-0.165-0.775-0.57-0.714
			C-62.913,333.859-65.436,333.863-68.897,333.216z"/>
		<polygon fill="#DFDACD" points="774.834,95.167 789.981,108.465 810.104,109.643 802.138,128.158 807.234,147.659 
			787.164,145.806 770.192,156.68 765.754,137.018 750.168,124.237 767.495,113.939 		"/>
		<path fill="#DFDACD" d="M-144.844,324.541l-40.558,15.873l-2.954,16.516l42.953,25.934l13.938-48.2L-144.844,324.541z
			 M-151.482,369.014c0,0-20.749-6.997-23.974-15.237c-4.465-11.408,10.672-18.749,15.343-6.814
			c-4.671-11.935,11.52-16.585,15.893-5.411C-140.995,349.791-151.482,369.014-151.482,369.014z"/>
		<path fill="#DFDACD" d="M159.444,166.002c-8.452-1.027-16.516,4.497-18.609,12.75c-1.016,4.005-0.542,7.992,1.048,11.419
			c1.472,3.174,1.884,6.749,1.086,10.156c-0.088,0.376-0.157,0.761-0.207,1.154c-0.196,1.562-0.036,3.103,0.409,4.542
			c0.213,0.689,0.612,1.316,1.183,1.758c1.109,0.858,3.365,1.99,7.932,2.838c4.858,0.901,7.518,0.409,8.849-0.107
			c0.666-0.258,1.223-0.724,1.635-1.308c0.886-1.26,1.522-2.725,1.822-4.338c0.033-0.177,0.061-0.354,0.085-0.53
			c0.483-3.54,2.299-6.722,4.83-9.244c2.369-2.361,4.071-5.441,4.728-8.979C176.024,176.464,169.338,167.205,159.444,166.002z
			 M162.334,170.884c-8.264-1.005-16.15,4.384-18.215,12.447c-0.314,1.226-0.417,2.93-0.455,4.3
			c-0.037,1.361-1.053-0.333-1.263-1.745c-0.28-1.891-0.196-3.874,0.313-5.862c1.822-7.119,8.786-11.877,16.081-10.989
			C161.3,169.339,163.425,171.017,162.334,170.884z"/>
		<path fill="#DFDACD" d="M151.896,212.722c-3.482-0.646-5.833-1.487-7.422-2.339c-0.355-0.19-0.782,0.064-0.776,0.468l0.06,3.885
			c0.019,1.228,3.741,5.962,6.561,6.484c2.819,0.523,7.992-2.561,8.45-3.698l1.501-3.731c0.153-0.38-0.167-0.774-0.572-0.713
			C157.882,213.355,155.359,213.364,151.896,212.722z"/>
		<path fill="#DFDACD" d="M-120.596,412.333c-0.332-0.235-0.729-0.259-1.062-0.122c-0.333,0.136-0.6,0.431-0.672,0.83l-3.553,19.875
			c-0.098,0.551-0.038,1.117,0.173,1.634l12.492,30.566l8.085,3.066c4.091-1.672,6.789-2.774,10.88-4.446l3.624-7.852
			l-12.492-30.566c-0.211-0.518-0.565-0.964-1.021-1.287L-120.596,412.333z M-122.434,425.073c0,0,1.863,0.95,5.769-0.646
			s4.569-3.58,4.569-3.58l5.592,3.976c0.308,0.219,0.416,0.625,0.258,0.968l-2.318,5.021l-9.411,3.847l-5.172-1.961
			c-0.353-0.134-0.561-0.5-0.494-0.872L-122.434,425.073z"/>
		<path fill="#DFDACD" d="M226.762,268.313l-40.558,15.874l-2.954,16.516l42.953,25.933l13.938-48.199L226.762,268.313z
			 M220.123,312.787c0,0-20.749-6.998-23.974-15.237c-4.465-11.409,10.672-18.75,15.343-6.814
			c-4.671-11.936,11.52-16.585,15.893-5.411C230.61,293.564,220.123,312.787,220.123,312.787z"/>
		<path fill="#DFDACD" d="M417.169,231.981L393.09,221.49c-4.157-1.813-7.453-5.002-9.28-8.98c-1.938-4.221-2.02-8.807-0.229-12.913
			c1.653-3.79,4.749-6.735,8.719-8.294c2.642-1.037,5.556-1.401,8.472-1.064c1.908-2.231,4.292-3.947,6.933-4.984
			c3.97-1.559,8.243-1.506,12.033,0.146c4.107,1.791,7.167,5.207,8.618,9.619c1.368,4.159,1.123,8.738-0.689,12.894L417.169,231.981
			z"/>
		<path fill="#DFDACD" d="M708.352,19.696L685.751,9.85c-3.902-1.701-6.995-4.695-8.711-8.43c-1.819-3.961-1.896-8.266-0.214-12.12
			c1.551-3.557,4.457-6.321,8.184-7.784c2.479-0.975,5.214-1.316,7.951-1c1.791-2.094,4.028-3.704,6.508-4.678
			c3.726-1.463,7.736-1.414,11.294,0.137c3.854,1.682,6.728,4.889,8.089,9.029c1.284,3.904,1.054,8.201-0.647,12.102L708.352,19.696
			z"/>
		<polygon fill="#DFDACD" points="-124.513,501.498 -108.847,515.251 -88.036,516.471 -96.274,535.62 -91.002,555.789 
			-111.761,553.871 -129.313,565.117 -133.905,544.783 -150.024,531.564 -132.104,520.914 		"/>
		<path fill="#DFDACD" d="M417.465,304.352l-0.3-0.454l0.017-0.058c0.845-3.081-1.09-6.235-4.221-6.876l-0.072-0.015
			c-0.865-0.178-1.763-0.107-2.591,0.201l-12.926,4.822l-0.004-0.073c-0.174-3.166-0.814-6.28-1.916-9.233
			c-3.483-9.338-10.377-6.44-11.072-5.228c-0.211,0.369-0.257,0.809-0.126,1.213l2.521,7.77l-0.009,0.088
			c-0.611,5.716-2.541,11.21-5.637,16.054l-0.038,0.059l-0.054-0.145c-0.479-1.282-1.907-1.935-3.189-1.456l-12.817,4.782
			c-1.283,0.479-1.935,1.906-1.457,3.188l8.023,21.505c0.479,1.283,1.906,1.936,3.189,1.456l12.817-4.781
			c1.283-0.479,1.934-1.906,1.456-3.189l-0.653-1.751c1.51,1.536,3.836,2.131,5.985,1.33l21.239-7.924
			c0.699-0.261,1.354-0.628,1.94-1.089l0.009-0.007c1.4-2.066,1.792-4.654,1.064-7.042l-0.012-0.038l0.018-0.032
			c1.055-2.053,1.024-4.494-0.083-6.519l-0.084-0.154l0.009-0.035C419.079,308.549,418.705,306.229,417.465,304.352z"/>
		<path fill="#DFDACD" d="M501,82.965l-0.3-0.453l0.017-0.058c0.845-3.081-1.09-6.235-4.221-6.876l-0.072-0.016
			c-0.865-0.176-1.763-0.106-2.591,0.202l-12.926,4.822l-0.004-0.073c-0.174-3.166-0.814-6.28-1.916-9.233
			c-3.483-9.338-10.377-6.44-11.072-5.228c-0.211,0.369-0.257,0.809-0.126,1.213l2.521,7.77l-0.009,0.088
			c-0.611,5.715-2.541,11.21-5.637,16.053l-0.038,0.06l-0.054-0.145c-0.479-1.282-1.906-1.935-3.189-1.456l-12.817,4.781
			c-1.283,0.479-1.935,1.907-1.457,3.189l8.023,21.505c0.479,1.283,1.906,1.936,3.189,1.456l12.817-4.781
			c1.283-0.479,1.934-1.906,1.456-3.189l-0.653-1.751c1.51,1.536,3.836,2.132,5.985,1.33l21.239-7.924
			c0.698-0.261,1.353-0.628,1.94-1.089l0.009-0.008c1.4-2.064,1.792-4.653,1.065-7.041l-0.012-0.038l0.017-0.032
			c1.055-2.053,1.024-4.494-0.083-6.519l-0.084-0.154l0.009-0.035C502.614,87.163,502.24,84.843,501,82.965z"/>
		<path fill="#DFDACD" d="M320.555,2.379l-0.3-0.453l0.017-0.058c0.845-3.081-1.09-6.235-4.221-6.876l-0.072-0.016
			c-0.865-0.176-1.763-0.106-2.591,0.202l-12.927,4.822l-0.004-0.073c-0.174-3.166-0.814-6.28-1.916-9.233
			c-3.483-9.338-10.377-6.44-11.072-5.228c-0.211,0.369-0.257,0.809-0.126,1.213l2.521,7.77l-0.009,0.088
			c-0.611,5.715-2.541,11.21-5.637,16.053l-0.038,0.06l-0.054-0.145c-0.479-1.282-1.906-1.935-3.189-1.456l-12.817,4.781
			c-1.283,0.479-1.935,1.907-1.456,3.189l8.023,21.505c0.479,1.283,1.906,1.936,3.189,1.456l12.817-4.781
			c1.283-0.479,1.935-1.906,1.456-3.189l-0.653-1.751c1.51,1.536,3.837,2.132,5.985,1.33l21.239-7.924
			c0.698-0.261,1.353-0.628,1.94-1.089l0.009-0.008c1.4-2.064,1.792-4.653,1.065-7.041l-0.012-0.038l0.017-0.032
			c1.055-2.053,1.024-4.494-0.083-6.519l-0.084-0.154l0.009-0.035C322.17,6.577,321.795,4.257,320.555,2.379z"/>
		<path fill="#DFDACD" d="M2.313,535.956l-40.558,15.874l-2.954,16.516l42.953,25.933l13.938-48.199L2.313,535.956z M-4.325,580.43
			c0,0-20.75-6.998-23.974-15.237c-4.465-11.409,10.672-18.75,15.343-6.815c-4.671-11.935,11.52-16.585,15.893-5.41
			C6.162,561.207-4.325,580.43-4.325,580.43z"/>
		<path fill="#DFDACD" d="M981.346,92.897c-0.331-0.235-0.729-0.259-1.062-0.122c-0.333,0.136-0.601,0.431-0.672,0.831
			l-3.553,19.875c-0.099,0.55-0.038,1.116,0.173,1.633l12.491,30.566l8.086,3.066c4.091-1.672,6.789-2.774,10.88-4.446l3.624-7.852
			l-12.491-30.566c-0.212-0.518-0.565-0.963-1.021-1.287L981.346,92.897z M979.509,105.638c0,0,1.863,0.95,5.769-0.646
			s4.569-3.58,4.569-3.58l5.592,3.976c0.308,0.219,0.415,0.626,0.257,0.968l-2.317,5.022l-9.411,3.846l-5.172-1.961
			c-0.353-0.134-0.561-0.5-0.494-0.872L979.509,105.638z"/>
		<path fill="#DFDACD" d="M952.461,206.217l-26.908-11.723c-4.646-2.026-8.328-5.59-10.37-10.036
			c-2.166-4.716-2.257-9.841-0.255-14.431c1.846-4.234,5.307-7.525,9.742-9.268c2.952-1.159,6.208-1.566,9.467-1.189
			c2.133-2.493,4.796-4.41,7.748-5.569c4.436-1.742,9.211-1.684,13.445,0.163c4.59,2.002,8.01,5.819,9.631,10.75
			c1.528,4.646,1.255,9.764-0.771,14.407L952.461,206.217z"/>
		<path fill="#DFDACD" d="M222.015,236.069c-1.043,0.064-2.1-0.375-2.783-1.269c-1.09-1.425-0.82-3.463,0.605-4.554
			c7.373-5.644,19.227-10.369,29.155-8.26c5.261-8.679,16.82-14.083,25.982-15.594c1.767-0.29,3.442,0.905,3.734,2.678
			c0.292,1.77-0.907,3.442-2.678,3.734c-7.476,1.231-17.405,5.713-21.537,12.641c-1.388,2.329-4.1,3.505-6.749,2.919
			c-7.877-1.729-17.941,2.436-23.958,7.041C223.254,235.813,222.637,236.03,222.015,236.069z"/>
		<path fill="#DFDACD" d="M259.142,169.844c-3.129-0.166-6.976,0.764-10.744,2.355l12.285,28.398l0.316,0.715
			c0.353,0.799,0.053,1.737-0.703,2.176c-1.893,1.096-5.291,3.277-6.815,5.595c-2.223,3.379-2.943,6.145-3.138,7.985
			c4.974-6.666,14.644-11.377,22.638-13.074c0.843-0.179,1.309-1.079,0.967-1.869l-13.608-31.457
			C260.13,170.187,259.666,169.872,259.142,169.844z"/>
		<path fill="#DFDACD" d="M242.009,168.279c-1.648,0.816-4.33,2.581-6.568,6.105c-3.634,5.724-2.802,10.714-2.802,10.714
			s-3.067-4.023-9.727-5.294c-4.101-0.782-7.224-0.036-8.946,0.606c-0.848,0.316-1.25,1.282-0.891,2.112l7.051,16.301l6.208,14.35
			c0.449,1.037,1.595,1.569,2.686,1.271c1.641-0.449,4.244-0.877,7.284-0.348c5.71,0.994,8.883,3.307,10.394,4.784
			c0.356,0.349,0.947,0.093,0.937-0.405c-0.043-2.112,0.445-6.008,3.63-10.851c1.697-2.58,3.792-4.185,5.243-5.073
			c0.964-0.59,1.358-1.789,0.909-2.826l-13.259-30.649C243.799,168.246,242.82,167.878,242.009,168.279z"/>
		<path fill="#DFDACD" d="M203.375,193.969c2.022-2.395,5.333-4.562,9.073-6.217l12.285,28.397l0.305,0.72
			c0.341,0.805,1.23,1.229,2.067,0.977c2.095-0.629,6.011-1.611,8.745-1.136c3.985,0.694,6.494,2.062,7.968,3.181
			c-8.264-0.939-18.318,2.882-25.029,7.547c-0.708,0.491-1.683,0.215-2.025-0.575l-13.608-31.457
			C202.947,194.924,203.037,194.369,203.375,193.969z"/>
		<path fill="#DFDACD" d="M-394.486,300.117c-1.043,0.064-2.1-0.375-2.783-1.269c-1.09-1.425-0.82-3.464,0.605-4.554
			c7.373-5.645,19.227-10.369,29.155-8.26c5.261-8.68,16.819-14.083,25.982-15.594c1.767-0.29,3.442,0.905,3.734,2.678
			c0.292,1.77-0.907,3.442-2.677,3.733c-7.477,1.232-17.405,5.714-21.538,12.642c-1.388,2.329-4.1,3.504-6.749,2.918
			c-7.877-1.728-17.941,2.437-23.958,7.041C-393.247,299.86-393.864,300.078-394.486,300.117z"/>
		<path fill="#DFDACD" d="M-357.36,233.892c-3.129-0.166-6.976,0.763-10.744,2.355l12.285,28.397l0.315,0.716
			c0.353,0.799,0.053,1.737-0.703,2.175c-1.893,1.096-5.291,3.277-6.815,5.596c-2.223,3.379-2.943,6.145-3.138,7.984
			c4.974-6.665,14.643-11.377,22.638-13.073c0.843-0.179,1.309-1.079,0.967-1.87l-13.608-31.456
			C-356.371,234.233-356.836,233.919-357.36,233.892z"/>
		<path fill="#DFDACD" d="M-374.492,232.327c-1.648,0.815-4.33,2.581-6.568,6.105c-3.634,5.724-2.802,10.714-2.802,10.714
			s-3.067-4.023-9.727-5.294c-4.101-0.782-7.224-0.036-8.947,0.606c-0.848,0.315-1.25,1.281-0.891,2.112l7.051,16.3l6.208,14.35
			c0.449,1.038,1.595,1.57,2.686,1.272c1.641-0.449,4.244-0.877,7.284-0.348c5.71,0.994,8.884,3.307,10.394,4.784
			c0.355,0.348,0.947,0.092,0.937-0.405c-0.043-2.112,0.445-6.009,3.63-10.851c1.697-2.58,3.793-4.185,5.244-5.073
			c0.963-0.59,1.357-1.789,0.909-2.826l-13.259-30.649C-372.702,232.294-373.682,231.926-374.492,232.327z"/>
		<path fill="#DFDACD" d="M-413.126,258.016c2.022-2.394,5.333-4.561,9.073-6.217l12.285,28.398l0.305,0.72
			c0.341,0.804,1.23,1.228,2.067,0.977c2.095-0.629,6.011-1.612,8.744-1.136c3.985,0.693,6.494,2.062,7.969,3.181
			c-8.264-0.939-18.318,2.882-25.029,7.546c-0.708,0.492-1.683,0.216-2.025-0.574l-13.608-31.457
			C-413.554,258.971-413.465,258.417-413.126,258.016z"/>
		<path fill="#DFDACD" d="M-281.956,7.237c-1.044,0.065-2.1-0.374-2.783-1.269c-1.09-1.425-0.82-3.463,0.605-4.554
			c7.373-5.644,19.227-10.369,29.154-8.26c5.261-8.679,16.82-14.083,25.983-15.593c1.767-0.291,3.442,0.905,3.734,2.678
			c0.292,1.77-0.907,3.441-2.678,3.733c-7.477,1.231-17.405,5.713-21.538,12.641c-1.388,2.329-4.099,3.505-6.749,2.919
			c-7.877-1.728-17.941,2.437-23.958,7.041C-280.717,6.981-281.334,7.199-281.956,7.237z"/>
		<path fill="#DFDACD" d="M-244.83-58.988c-3.129-0.165-6.976,0.764-10.743,2.356l12.285,28.397l0.316,0.715
			c0.353,0.8,0.053,1.737-0.703,2.176c-1.893,1.096-5.291,3.277-6.816,5.595c-2.223,3.38-2.943,6.145-3.138,7.985
			c4.974-6.666,14.644-11.377,22.638-13.074c0.843-0.179,1.31-1.078,0.967-1.869l-13.608-31.457
			C-243.841-58.646-244.306-58.96-244.83-58.988z"/>
		<path fill="#DFDACD" d="M-261.962-60.553c-1.648,0.816-4.33,2.582-6.568,6.105c-3.634,5.724-2.802,10.715-2.802,10.715
			s-3.067-4.023-9.727-5.295c-4.101-0.782-7.224-0.035-8.947,0.606c-0.848,0.316-1.25,1.282-0.891,2.112l7.052,16.301l6.208,14.35
			c0.449,1.038,1.595,1.57,2.686,1.271c1.641-0.448,4.244-0.877,7.284-0.348c5.71,0.994,8.884,3.307,10.394,4.785
			c0.355,0.348,0.947,0.092,0.937-0.406c-0.043-2.112,0.444-6.008,3.63-10.851c1.697-2.58,3.793-4.185,5.244-5.072
			c0.963-0.591,1.357-1.79,0.909-2.827l-13.259-30.649C-260.172-60.585-261.151-60.954-261.962-60.553z"/>
		<path fill="#DFDACD" d="M-300.596-34.863c2.021-2.394,5.333-4.562,9.073-6.217l12.285,28.397l0.305,0.72
			c0.341,0.805,1.229,1.229,2.066,0.978c2.095-0.63,6.011-1.612,8.745-1.137c3.985,0.694,6.494,2.063,7.968,3.181
			c-8.263-0.939-18.318,2.883-25.029,7.547c-0.708,0.492-1.683,0.216-2.025-0.575l-13.608-31.456
			C-301.024-33.908-300.935-34.462-300.596-34.863z"/>
		<path fill="#DFDACD" d="M355.7,96.046c-1.043,0.064-2.1-0.375-2.783-1.269c-1.09-1.425-0.82-3.463,0.605-4.554
			c7.374-5.644,19.227-10.369,29.155-8.26c5.261-8.679,16.82-14.083,25.982-15.594c1.768-0.29,3.442,0.905,3.734,2.678
			c0.292,1.77-0.906,3.442-2.677,3.734c-7.477,1.231-17.405,5.713-21.538,12.641c-1.388,2.329-4.099,3.505-6.749,2.919
			c-7.877-1.729-17.941,2.436-23.958,7.041C356.939,95.789,356.322,96.007,355.7,96.046z"/>
		<path fill="#DFDACD" d="M392.826,29.82c-3.129-0.166-6.976,0.764-10.744,2.355l12.285,28.398l0.315,0.715
			c0.353,0.799,0.053,1.737-0.703,2.176c-1.893,1.096-5.291,3.276-6.815,5.595c-2.223,3.379-2.943,6.145-3.138,7.985
			c4.974-6.666,14.644-11.377,22.638-13.074c0.843-0.179,1.309-1.079,0.967-1.869l-13.608-31.457
			C393.815,30.162,393.35,29.849,392.826,29.82z"/>
		<path fill="#DFDACD" d="M375.694,28.256c-1.648,0.816-4.33,2.581-6.568,6.105c-3.634,5.724-2.802,10.714-2.802,10.714
			s-3.067-4.023-9.727-5.294c-4.101-0.782-7.224-0.036-8.947,0.606c-0.848,0.315-1.25,1.282-0.891,2.112l7.052,16.301l6.208,14.35
			c0.449,1.038,1.595,1.569,2.686,1.271c1.641-0.449,4.244-0.877,7.284-0.348c5.71,0.994,8.884,3.307,10.394,4.784
			c0.356,0.349,0.947,0.093,0.937-0.405c-0.043-2.112,0.445-6.008,3.63-10.851c1.697-2.58,3.793-4.185,5.244-5.073
			c0.963-0.59,1.357-1.789,0.909-2.826l-13.259-30.649C377.484,28.223,376.504,27.854,375.694,28.256z"/>
		<path fill="#DFDACD" d="M337.06,53.945c2.022-2.395,5.333-4.562,9.073-6.217l12.285,28.397l0.305,0.72
			c0.341,0.805,1.23,1.229,2.067,0.977c2.095-0.629,6.011-1.611,8.745-1.136c3.985,0.693,6.494,2.062,7.968,3.181
			c-8.263-0.939-18.318,2.883-25.029,7.547c-0.708,0.491-1.683,0.215-2.025-0.575L336.84,55.382
			C336.632,54.9,336.721,54.346,337.06,53.945z"/>
		<path fill="#DFDACD" d="M915.554,42.532L865.163,66.49c-3.741,1.779-5.165,6.604-3.181,10.777l12.898,27.131
			c1.984,4.173,6.626,6.114,10.367,4.336l4.619-2.197c1.296-0.615,3.237-0.371,4.333,1.934c0.428,0.898,1.06,2.232,2.775,5.846
			c0.747,1.577,1.558,1.393,1.769,1.321c0.837-0.275,1.388-1.329,2.729-4.16c0.555-1.173,2.04-4.344,4.414-9.449
			c1.034-2.223,3.78-4.904,4.73-5.356l25.019-11.896c3.742-1.778,5.167-6.605,3.182-10.779l-12.898-27.129
			C923.936,42.695,919.294,40.754,915.554,42.532z"/>
		<path fill="#DFDACD" d="M130.257,35.766L79.867,59.724c-3.741,1.778-5.165,6.604-3.181,10.777l12.899,27.13
			c1.984,4.174,6.625,6.115,10.366,4.336l4.62-2.196c1.295-0.616,3.237-0.372,4.333,1.933c0.427,0.899,1.059,2.233,2.775,5.846
			c0.748,1.578,1.558,1.393,1.769,1.322c0.836-0.275,1.388-1.33,2.728-4.161c0.555-1.173,2.04-4.343,4.415-9.448
			c1.034-2.224,3.78-4.905,4.73-5.356L150.34,78.01c3.742-1.779,5.167-6.605,3.182-10.78l-12.898-27.128
			C138.639,35.928,133.998,33.986,130.257,35.766z"/>
		<path fill="#DFDACD" d="M-204.815,217.728l-50.39,23.959c-3.741,1.778-5.166,6.604-3.181,10.777l12.899,27.13
			c1.984,4.174,6.626,6.114,10.367,4.336l4.62-2.196c1.296-0.616,3.237-0.372,4.333,1.933c0.428,0.899,1.06,2.233,2.776,5.846
			c0.748,1.578,1.558,1.393,1.769,1.321c0.836-0.274,1.387-1.329,2.728-4.16c0.555-1.173,2.04-4.343,4.415-9.448
			c1.034-2.224,3.78-4.905,4.73-5.357l25.019-11.895c3.742-1.779,5.166-6.605,3.182-10.78l-12.898-27.129
			C-196.434,217.891-201.074,215.949-204.815,217.728z"/>
		<path fill="#DFDACD" d="M72.183,331.742L21.793,355.7c-3.741,1.779-5.166,6.604-3.181,10.777l12.899,27.13
			c1.984,4.174,6.625,6.115,10.367,4.336l4.62-2.196c1.296-0.616,3.237-0.372,4.333,1.933c0.428,0.899,1.06,2.233,2.775,5.846
			c0.748,1.578,1.558,1.393,1.77,1.322c0.836-0.275,1.387-1.329,2.728-4.161c0.555-1.173,2.04-4.343,4.415-9.448
			c1.034-2.223,3.78-4.904,4.73-5.356l25.019-11.896c3.742-1.779,5.167-6.605,3.182-10.78l-12.898-27.128
			C80.565,331.904,75.924,329.963,72.183,331.742z"/>
		<polygon fill="#DFDACD" points="491.541,313.611 507.185,327.391 527.994,328.644 519.724,347.779 524.962,367.957 
			504.207,366.006 486.636,377.223 482.078,356.881 465.98,343.635 483.918,333.015 		"/>
		<path fill="#DFDACD" d="M728.713,268.59c-2.286-1.707-3.566-4.444-3.41-7.293l0.885-16.197c0.09-1.642-2.104-2.27-2.896-0.831
			l-12.735,23.105c-6.275-3.372-18.443-6.144-28.835-1.284c-10.324,4.827-15.898,16.031-17.4,22.971L638.322,284
			c-1.613-0.314-2.536,1.771-1.22,2.754l12.997,9.707c2.286,1.707,3.566,4.444,3.41,7.293l-0.885,16.198
			c-0.09,1.641,2.104,2.269,2.896,0.83l12.785-23.196c6.289,3.298,18.46,6.203,28.785,1.375
			c10.392-4.858,16.066-15.973,17.502-22.95l28.087,5.468c1.081,0.21,1.7-1.188,0.817-1.847L728.713,268.59z"/>
		<path fill="#DFDACD" d="M604.287,299.033l-40.583,15.807l-2.981,16.511l42.91,26.004l14.019-48.177L604.287,299.033z
			 M597.576,343.495c0,0-20.738-7.031-23.949-15.276c-4.446-11.416,10.703-18.732,15.355-6.789
			c-4.652-11.943,11.547-16.566,15.901-5.385C608.095,324.29,597.576,343.495,597.576,343.495z"/>
		<polygon fill="#DFDACD" points="807.812,287.742 823.455,301.521 844.264,302.774 835.994,321.91 841.232,342.088 
			820.478,340.137 802.905,351.354 798.349,331.011 782.25,317.766 800.188,307.146 		"/>
		<path fill="#DFDACD" d="M548.458,388.842c-0.331-0.236-0.729-0.26-1.062-0.125c-0.333,0.136-0.601,0.431-0.673,0.83l-3.585,19.869
			c-0.099,0.55-0.04,1.116,0.17,1.634l12.441,30.587l8.081,3.08c4.094-1.666,6.794-2.764,10.888-4.43l3.637-7.845l-12.441-30.587
			c-0.21-0.518-0.563-0.965-1.018-1.289L548.458,388.842z M546.6,401.578c0,0,1.862,0.954,5.77-0.636
			c3.908-1.589,4.575-3.571,4.575-3.571l5.585,3.984c0.307,0.219,0.415,0.625,0.256,0.968l-2.326,5.019l-9.417,3.83l-5.168-1.97
			c-0.353-0.135-0.56-0.501-0.492-0.872L546.6,401.578z"/>
		<path fill="#DFDACD" d="M997.479,230.648l-40.583,15.807l-2.981,16.51l42.909,26.004l14.019-48.176L997.479,230.648z
			 M990.768,275.11c0,0-20.737-7.032-23.948-15.276c-4.446-11.416,10.703-18.732,15.354-6.79
			c-4.651-11.942,11.547-16.566,15.901-5.384C1001.287,255.904,990.768,275.11,990.768,275.11z"/>
		<polygon fill="#DFDACD" points="530.126,487.738 545.771,501.517 566.579,502.77 558.31,521.906 563.547,542.084 542.792,540.132 
			525.221,551.35 520.664,531.007 504.566,517.762 522.504,507.141 		"/>
		<path fill="#DFDACD" d="M667.898,464.479l-40.583,15.807l-2.981,16.511l42.91,26.004l14.018-48.176L667.898,464.479z
			 M661.188,508.941c0,0-20.738-7.031-23.949-15.276c-4.446-11.416,10.703-18.732,15.354-6.789
			c-4.651-11.943,11.547-16.566,15.901-5.385C671.706,489.736,661.188,508.941,661.188,508.941z"/>
		<path fill="#DFDACD" d="M501.448,464.541l-24.062-10.531c-4.154-1.819-7.445-5.014-9.265-8.995
			c-1.932-4.225-2.005-8.811-0.208-12.914c1.659-3.787,4.76-6.728,8.732-8.279c2.643-1.033,5.558-1.393,8.474-1.051
			c1.912-2.228,4.298-3.939,6.941-4.973c3.972-1.552,8.246-1.493,12.032,0.166c4.104,1.798,7.159,5.22,8.603,9.634
			c1.361,4.161,1.108,8.74-0.711,12.893L501.448,464.541z"/>
		<polygon fill="#DFDACD" points="1390.852,387.028 1405.999,400.326 1426.12,401.504 1418.154,420.02 1423.252,439.521 
			1403.181,437.667 1386.209,448.54 1381.771,428.879 1366.185,416.098 1383.512,405.801 		"/>
		<path fill="#DFDACD" d="M943.728,422.952l-40.558,15.874l-2.954,16.516l42.952,25.933l13.939-48.199L943.728,422.952z
			 M937.089,467.426c0,0-20.749-6.998-23.975-15.237c-4.465-11.409,10.673-18.75,15.344-6.815
			c-4.671-11.935,11.52-16.585,15.894-5.41C947.576,448.203,937.089,467.426,937.089,467.426z"/>
		<path fill="#DFDACD" d="M478.379,571.702l-40.558,15.874l-2.954,16.516l42.953,25.934l13.938-48.2L478.379,571.702z
			 M471.741,616.176c0,0-20.749-6.998-23.974-15.237c-4.465-11.409,10.672-18.75,15.343-6.814
			c-4.671-11.936,11.52-16.585,15.893-5.411C482.228,596.953,471.741,616.176,471.741,616.176z"/>
		<path fill="#DFDACD" d="M775.461,457.863c-8.452-1.027-16.516,4.496-18.608,12.749c-1.017,4.006-0.542,7.993,1.048,11.42
			c1.473,3.174,1.884,6.749,1.086,10.156c-0.088,0.376-0.157,0.761-0.207,1.155c-0.196,1.561-0.036,3.102,0.409,4.54
			c0.213,0.69,0.611,1.317,1.183,1.759c1.108,0.857,3.365,1.99,7.933,2.838c4.857,0.9,7.517,0.409,8.848-0.107
			c0.666-0.258,1.224-0.724,1.635-1.308c0.887-1.26,1.522-2.726,1.822-4.338c0.032-0.177,0.061-0.354,0.085-0.53
			c0.483-3.54,2.299-6.722,4.829-9.244c2.369-2.362,4.071-5.441,4.729-8.979C792.041,468.324,785.355,459.066,775.461,457.863z
			 M778.351,462.745c-8.263-1.006-16.149,4.383-18.215,12.447c-0.313,1.226-0.417,2.929-0.454,4.299
			c-0.037,1.362-1.054-0.333-1.263-1.744c-0.28-1.891-0.196-3.874,0.313-5.862c1.823-7.119,8.786-11.877,16.081-10.989
			C777.317,461.199,779.442,462.877,778.351,462.745z"/>
		<path fill="#DFDACD" d="M767.913,504.583c-3.481-0.646-5.833-1.487-7.423-2.339c-0.355-0.19-0.782,0.064-0.775,0.468l0.06,3.885
			c0.02,1.228,3.741,5.962,6.562,6.484c2.819,0.523,7.992-2.561,8.45-3.699l1.501-3.73c0.152-0.381-0.166-0.774-0.571-0.713
			C773.898,505.217,771.376,505.225,767.913,504.583z"/>
		<polygon fill="#DFDACD" points="736.951,588.283 752.618,602.036 773.429,603.255 765.19,622.404 770.462,642.574 
			749.704,640.656 732.15,651.902 727.56,631.567 711.44,618.349 729.361,607.699 		"/>
		<path fill="#DFDACD" d="M495.42,704.194c-0.331-0.235-0.729-0.259-1.062-0.123c-0.333,0.136-0.6,0.431-0.672,0.831l-3.553,19.875
			c-0.098,0.551-0.038,1.117,0.173,1.634l12.491,30.566l8.085,3.065c4.091-1.672,6.79-2.774,10.88-4.445l3.624-7.852l-12.492-30.566
			c-0.211-0.518-0.565-0.964-1.021-1.287L495.42,704.194z M493.583,716.934c0,0,1.863,0.951,5.769-0.645
			c3.905-1.596,4.569-3.58,4.569-3.58l5.592,3.976c0.307,0.219,0.416,0.625,0.257,0.968l-2.318,5.021l-9.411,3.847l-5.172-1.962
			c-0.353-0.133-0.561-0.5-0.494-0.871L493.583,716.934z"/>
		<path fill="#DFDACD" d="M1033.187,523.843l-24.08-10.491c-4.157-1.813-7.452-5.002-9.28-8.98
			c-1.938-4.221-2.02-8.807-0.228-12.913c1.652-3.79,4.748-6.735,8.718-8.294c2.642-1.037,5.556-1.401,8.473-1.064
			c1.908-2.231,4.291-3.947,6.933-4.984c3.97-1.559,8.243-1.507,12.033,0.146c4.106,1.791,7.167,5.207,8.618,9.619
			c1.367,4.159,1.122,8.738-0.69,12.894L1033.187,523.843z"/>
		<path fill="#DFDACD" d="M1121.667,426.978l-24.079-10.491c-4.157-1.813-7.453-5.002-9.28-8.98
			c-1.938-4.221-2.02-8.807-0.229-12.914c1.652-3.789,4.749-6.734,8.719-8.293c2.642-1.037,5.556-1.401,8.472-1.065
			c1.908-2.23,4.292-3.946,6.934-4.983c3.97-1.559,8.243-1.507,12.032,0.146c4.106,1.791,7.167,5.207,8.618,9.619
			c1.368,4.159,1.123,8.738-0.689,12.894L1121.667,426.978z"/>
		<path fill="#DFDACD" d="M1324.369,311.558l-22.602-9.847c-3.902-1.701-6.995-4.695-8.71-8.43
			c-1.819-3.961-1.896-8.266-0.215-12.12c1.551-3.557,4.457-6.322,8.184-7.785c2.479-0.974,5.215-1.315,7.952-0.999
			c1.791-2.094,4.027-3.705,6.507-4.678c3.727-1.463,7.737-1.414,11.294,0.137c3.854,1.682,6.728,4.888,8.09,9.029
			c1.283,3.903,1.054,8.201-0.647,12.102L1324.369,311.558z"/>
		<path fill="#DFDACD" d="M1092.581,448.84c-8.452-1.027-16.516,4.496-18.609,12.749c-1.016,4.006-0.541,7.993,1.049,11.42
			c1.472,3.174,1.884,6.749,1.086,10.156c-0.089,0.376-0.157,0.761-0.207,1.154c-0.196,1.562-0.036,3.103,0.408,4.541
			c0.214,0.69,0.611,1.317,1.184,1.759c1.108,0.857,3.365,1.99,7.932,2.838c4.858,0.901,7.518,0.409,8.849-0.107
			c0.666-0.258,1.224-0.724,1.635-1.308c0.887-1.26,1.522-2.725,1.822-4.338c0.032-0.177,0.061-0.354,0.085-0.53
			c0.482-3.54,2.299-6.722,4.829-9.244c2.369-2.362,4.071-5.441,4.728-8.979C1109.16,459.302,1102.476,450.043,1092.581,448.84z
			 M1095.471,453.722c-8.264-1.005-16.15,4.384-18.215,12.447c-0.313,1.226-0.418,2.93-0.454,4.3
			c-0.037,1.361-1.054-0.334-1.263-1.745c-0.28-1.891-0.197-3.874,0.313-5.862c1.822-7.119,8.785-11.877,16.081-10.989
			C1094.437,452.177,1096.563,453.854,1095.471,453.722z"/>
		<path fill="#DFDACD" d="M1085.033,495.56c-3.482-0.646-5.834-1.487-7.423-2.339c-0.355-0.19-0.782,0.064-0.776,0.468l0.061,3.885
			c0.02,1.228,3.741,5.962,6.561,6.484c2.82,0.523,7.993-2.561,8.451-3.699l1.5-3.73c0.153-0.381-0.166-0.774-0.571-0.713
			C1091.019,496.193,1088.495,496.202,1085.033,495.56z"/>
		<polygon fill="#DFDACD" points="166.083,630.167 181.75,643.92 202.561,645.139 194.323,664.288 199.594,684.457 178.836,682.54 
			161.283,693.786 156.692,673.451 140.572,660.232 158.493,649.582 		"/>
		<path fill="#DFDACD" d="M1083.738,563.846c-2.289-1.704-3.574-4.439-3.423-7.288l0.858-16.199
			c0.087-1.642-2.107-2.266-2.897-0.825l-12.697,23.125c-6.28-3.36-18.453-6.112-28.837-1.235
			c-10.316,4.844-15.872,16.057-17.362,22.999l-26.007-5.019c-1.613-0.312-2.533,1.776-1.215,2.757l13.014,9.686
			c2.288,1.703,3.572,4.438,3.422,7.287l-0.858,16.199c-0.087,1.641,2.107,2.267,2.897,0.826l12.748-23.217
			c6.293,3.287,18.469,6.172,28.786,1.326c10.384-4.875,16.04-15.999,17.464-22.979l28.097,5.421
			c1.081,0.209,1.697-1.19,0.814-1.848L1083.738,563.846z"/>
		<polygon fill="#DFDACD" points="1168.515,499.912 1184.182,513.665 1204.992,514.885 1196.754,534.034 1202.025,554.203 
			1181.268,552.286 1163.715,563.531 1159.123,543.197 1143.004,529.979 1160.925,519.328 		"/>
		<path fill="#DFDACD" d="M983.153,534.996l-0.3-0.454l0.017-0.058c0.845-3.081-1.091-6.235-4.221-6.876l-0.072-0.015
			c-0.865-0.178-1.763-0.107-2.591,0.201l-12.927,4.822l-0.004-0.073c-0.174-3.166-0.813-6.28-1.916-9.233
			c-3.482-9.338-10.377-6.44-11.072-5.228c-0.211,0.369-0.257,0.809-0.126,1.213l2.521,7.77l-0.009,0.088
			c-0.611,5.716-2.541,11.21-5.638,16.054l-0.037,0.059l-0.054-0.145c-0.479-1.283-1.907-1.935-3.189-1.456l-12.816,4.781
			c-1.283,0.479-1.935,1.907-1.457,3.19l8.023,21.504c0.479,1.283,1.906,1.936,3.189,1.456l12.816-4.781
			c1.283-0.479,1.935-1.906,1.456-3.189l-0.653-1.751c1.511,1.536,3.837,2.131,5.985,1.33l21.238-7.924
			c0.699-0.261,1.354-0.628,1.94-1.089l0.009-0.007c1.4-2.066,1.792-4.654,1.065-7.042l-0.012-0.038l0.017-0.033
			c1.055-2.052,1.024-4.493-0.082-6.518l-0.085-0.154l0.01-0.035C984.768,539.193,984.394,536.873,983.153,534.996z"/>
		<path fill="#DFDACD" d="M226.037,578.557l-0.3-0.453l0.016-0.058c0.846-3.081-1.09-6.235-4.22-6.876l-0.072-0.016
			c-0.865-0.177-1.763-0.107-2.591,0.202l-12.927,4.822l-0.003-0.073c-0.174-3.166-0.814-6.281-1.916-9.233
			c-3.483-9.338-10.378-6.44-11.073-5.228c-0.211,0.369-0.257,0.809-0.125,1.213l2.521,7.77l-0.009,0.088
			c-0.611,5.715-2.541,11.21-5.637,16.053l-0.038,0.059l-0.054-0.144c-0.478-1.282-1.906-1.935-3.188-1.456l-12.817,4.781
			c-1.283,0.479-1.935,1.906-1.457,3.189l8.023,21.505c0.479,1.283,1.906,1.935,3.189,1.456l12.817-4.781
			c1.283-0.479,1.934-1.906,1.456-3.189l-0.654-1.751c1.511,1.536,3.837,2.131,5.985,1.33l21.239-7.925
			c0.699-0.26,1.354-0.627,1.94-1.088l0.009-0.008c1.401-2.065,1.792-4.653,1.065-7.041l-0.012-0.038l0.017-0.032
			c1.055-2.053,1.024-4.494-0.083-6.519l-0.084-0.155l0.009-0.034C227.651,582.755,227.277,580.435,226.037,578.557z"/>
		<path fill="#DFDACD" d="M936.572,294.24l-0.3-0.453l0.016-0.058c0.846-3.081-1.09-6.235-4.22-6.876l-0.072-0.016
			c-0.865-0.177-1.764-0.107-2.591,0.202l-12.927,4.822l-0.004-0.073c-0.175-3.166-0.814-6.281-1.916-9.233
			c-3.483-9.338-10.378-6.44-11.072-5.228c-0.211,0.369-0.257,0.809-0.126,1.213l2.521,7.77l-0.009,0.088
			c-0.611,5.715-2.541,11.21-5.638,16.053l-0.038,0.059l-0.054-0.144c-0.478-1.282-1.906-1.935-3.188-1.456l-12.816,4.781
			c-1.283,0.479-1.936,1.906-1.457,3.189l8.023,21.505c0.479,1.283,1.906,1.935,3.189,1.456l12.816-4.782
			c1.283-0.478,1.935-1.905,1.456-3.188l-0.653-1.751c1.51,1.535,3.837,2.131,5.985,1.33l21.238-7.925
			c0.699-0.26,1.354-0.627,1.94-1.088l0.009-0.008c1.4-2.065,1.792-4.653,1.064-7.041l-0.012-0.038l0.018-0.033
			c1.055-2.052,1.023-4.493-0.083-6.518l-0.084-0.154l0.009-0.035C938.187,298.438,937.813,296.118,936.572,294.24z"/>
		<path fill="#DFDACD" d="M678.845,389.446l-0.301-0.453l0.017-0.058c0.846-3.081-1.09-6.235-4.221-6.876l-0.072-0.015
			c-0.865-0.178-1.763-0.107-2.591,0.201l-12.927,4.822l-0.003-0.074c-0.175-3.165-0.814-6.28-1.916-9.232
			c-3.483-9.338-10.378-6.44-11.073-5.228c-0.211,0.369-0.257,0.809-0.125,1.213l2.521,7.769l-0.01,0.089
			c-0.611,5.715-2.541,11.21-5.637,16.053l-0.038,0.06l-0.054-0.145c-0.479-1.283-1.906-1.936-3.188-1.456l-12.817,4.781
			c-1.283,0.479-1.935,1.907-1.456,3.189l8.023,21.505c0.479,1.283,1.905,1.936,3.188,1.456l12.817-4.782
			c1.282-0.479,1.934-1.906,1.456-3.188l-0.654-1.751c1.511,1.535,3.837,2.131,5.985,1.33l21.239-7.924
			c0.698-0.261,1.354-0.628,1.939-1.09l0.009-0.006c1.401-2.066,1.792-4.654,1.065-7.042l-0.012-0.038l0.017-0.033
			c1.056-2.052,1.024-4.493-0.082-6.518l-0.085-0.154l0.01-0.035C680.459,393.645,680.084,391.324,678.845,389.446z"/>
		<path fill="#DFDACD" d="M615.232,686.875l-0.3-0.454l0.017-0.058c0.846-3.081-1.09-6.234-4.221-6.876l-0.072-0.015
			c-0.865-0.178-1.763-0.107-2.591,0.201l-12.926,4.822l-0.004-0.073c-0.174-3.166-0.814-6.28-1.916-9.233
			c-3.483-9.338-10.377-6.439-11.072-5.228c-0.211,0.369-0.257,0.809-0.126,1.213l2.521,7.77l-0.009,0.088
			c-0.611,5.716-2.541,11.21-5.637,16.054l-0.038,0.059L578.805,695c-0.479-1.282-1.906-1.935-3.189-1.456l-12.817,4.781
			c-1.283,0.479-1.935,1.907-1.457,3.19l8.023,21.504c0.479,1.283,1.906,1.936,3.189,1.457l12.817-4.782
			c1.283-0.479,1.934-1.906,1.456-3.188l-0.654-1.752c1.511,1.536,3.837,2.132,5.985,1.33l21.239-7.924
			c0.698-0.261,1.354-0.628,1.939-1.089l0.009-0.007c1.401-2.066,1.792-4.654,1.065-7.042l-0.012-0.038l0.017-0.032
			c1.055-2.053,1.024-4.494-0.082-6.519l-0.085-0.154l0.01-0.035C616.848,691.072,616.473,688.752,615.232,686.875z"/>
		<path fill="#DFDACD" d="M292.91,664.625l-40.558,15.873l-2.954,16.516l42.953,25.934l13.938-48.2L292.91,664.625z
			 M286.271,709.098c0,0-20.749-6.997-23.974-15.237c-4.465-11.408,10.672-18.75,15.343-6.814
			c-4.671-11.936,11.52-16.585,15.893-5.411C296.759,689.875,286.271,709.098,286.271,709.098z"/>
		<path fill="#DFDACD" d="M1597.363,384.759c-0.332-0.235-0.729-0.259-1.063-0.122c-0.332,0.136-0.6,0.431-0.672,0.83l-3.553,19.875
			c-0.098,0.551-0.038,1.117,0.174,1.634l12.491,30.566l8.085,3.066c4.092-1.672,6.79-2.774,10.881-4.446l3.624-7.852
			l-12.492-30.566c-0.211-0.518-0.565-0.964-1.021-1.287L1597.363,384.759z M1595.525,397.498c0,0,1.863,0.951,5.769-0.645
			s4.569-3.58,4.569-3.58l5.592,3.976c0.308,0.219,0.416,0.625,0.258,0.968l-2.318,5.022l-9.41,3.846l-5.172-1.962
			c-0.354-0.133-0.561-0.499-0.494-0.871L1595.525,397.498z"/>
		<path fill="#DFDACD" d="M1301.344,384.759c-0.331-0.235-0.729-0.259-1.062-0.122c-0.333,0.136-0.601,0.431-0.672,0.83
			l-3.553,19.875c-0.099,0.551-0.038,1.117,0.173,1.634l12.492,30.566l8.085,3.066c4.091-1.672,6.79-2.774,10.881-4.446l3.623-7.852
			l-12.491-30.566c-0.211-0.518-0.565-0.964-1.021-1.287L1301.344,384.759z M1299.507,397.498c0,0,1.863,0.951,5.769-0.645
			s4.569-3.58,4.569-3.58l5.592,3.976c0.308,0.219,0.415,0.625,0.258,0.968l-2.318,5.022l-9.411,3.846l-5.172-1.962
			c-0.353-0.133-0.56-0.499-0.493-0.871L1299.507,397.498z"/>
		<path fill="#DFDACD" d="M1259.325,459.803l-40.558,15.873l-2.954,16.516l42.953,25.934l13.938-48.199L1259.325,459.803z
			 M1252.688,504.275c0,0-20.75-6.997-23.975-15.236c-4.465-11.409,10.672-18.75,15.344-6.815
			c-4.672-11.935,11.52-16.585,15.893-5.41C1263.174,485.053,1252.688,504.275,1252.688,504.275z"/>
		<path fill="#DFDACD" d="M1568.478,498.078l-26.907-11.723c-4.646-2.026-8.329-5.59-10.371-10.036
			c-2.166-4.717-2.257-9.842-0.255-14.431c1.847-4.234,5.307-7.526,9.743-9.268c2.951-1.159,6.208-1.566,9.467-1.189
			c2.132-2.493,4.795-4.411,7.747-5.57c4.437-1.741,9.212-1.683,13.446,0.164c4.589,2.001,8.009,5.818,9.631,10.749
			c1.527,4.647,1.254,9.765-0.771,14.408L1568.478,498.078z"/>
		<path fill="#DFDACD" d="M841.835,654.428c-8.451-1.027-16.516,4.496-18.608,12.749c-1.016,4.005-0.541,7.993,1.048,11.419
			c1.473,3.174,1.884,6.75,1.086,10.156c-0.088,0.377-0.157,0.762-0.207,1.155c-0.196,1.562-0.036,3.103,0.409,4.541
			c0.213,0.69,0.611,1.316,1.183,1.759c1.109,0.857,3.365,1.99,7.933,2.837c4.857,0.901,7.518,0.409,8.848-0.106
			c0.667-0.258,1.224-0.725,1.635-1.309c0.887-1.259,1.523-2.725,1.822-4.338c0.033-0.177,0.061-0.354,0.085-0.529
			c0.483-3.541,2.299-6.722,4.829-9.244c2.369-2.362,4.071-5.441,4.729-8.98C858.415,664.889,851.729,655.631,841.835,654.428z
			 M844.726,659.309c-8.264-1.005-16.15,4.384-18.215,12.447c-0.314,1.227-0.418,2.93-0.455,4.3
			c-0.037,1.362-1.054-0.333-1.263-1.744c-0.279-1.891-0.196-3.874,0.313-5.863c1.823-7.119,8.786-11.876,16.081-10.989
			C843.691,657.764,845.816,659.441,844.726,659.309z"/>
		<path fill="#DFDACD" d="M834.287,701.146c-3.481-0.646-5.833-1.487-7.422-2.338c-0.355-0.19-0.782,0.063-0.776,0.467l0.061,3.886
			c0.019,1.228,3.741,5.961,6.561,6.484c2.819,0.522,7.992-2.561,8.45-3.699l1.501-3.731c0.153-0.38-0.166-0.774-0.571-0.712
			C840.273,701.781,837.75,701.789,834.287,701.146z"/>
		<path fill="#DFDACD" d="M838.032,527.93c-1.044,0.065-2.1-0.374-2.783-1.268c-1.091-1.425-0.82-3.464,0.605-4.554
			c7.373-5.644,19.227-10.369,29.154-8.261c5.261-8.679,16.819-14.082,25.982-15.593c1.768-0.29,3.442,0.905,3.733,2.678
			c0.292,1.77-0.906,3.442-2.677,3.733c-7.477,1.232-17.405,5.713-21.538,12.642c-1.388,2.329-4.099,3.504-6.748,2.918
			c-7.878-1.728-17.941,2.437-23.959,7.042C839.271,527.674,838.654,527.892,838.032,527.93z"/>
		<path fill="#DFDACD" d="M875.158,461.705c-3.129-0.166-6.976,0.764-10.743,2.355l12.285,28.398l0.315,0.715
			c0.353,0.799,0.053,1.737-0.703,2.175c-1.893,1.096-5.291,3.277-6.815,5.596c-2.223,3.379-2.943,6.145-3.138,7.985
			c4.974-6.666,14.644-11.377,22.638-13.074c0.843-0.18,1.309-1.079,0.967-1.87l-13.608-31.456
			C876.147,462.047,875.683,461.732,875.158,461.705z"/>
		<path fill="#DFDACD" d="M858.026,460.141c-1.648,0.815-4.33,2.581-6.568,6.105c-3.634,5.724-2.802,10.714-2.802,10.714
			s-3.067-4.023-9.727-5.294c-4.102-0.782-7.224-0.036-8.947,0.606c-0.848,0.315-1.249,1.282-0.891,2.112l7.052,16.3l6.208,14.35
			c0.449,1.038,1.595,1.57,2.686,1.272c1.642-0.449,4.244-0.877,7.284-0.348c5.71,0.994,8.884,3.307,10.394,4.784
			c0.355,0.349,0.947,0.092,0.938-0.405c-0.043-2.112,0.444-6.008,3.63-10.852c1.697-2.579,3.793-4.184,5.243-5.072
			c0.964-0.59,1.357-1.789,0.909-2.826l-13.259-30.65C859.816,460.107,858.837,459.739,858.026,460.141z"/>
		<path fill="#DFDACD" d="M819.393,485.83c2.021-2.395,5.332-4.562,9.072-6.217l12.285,28.396l0.305,0.721
			c0.342,0.805,1.23,1.229,2.067,0.977c2.095-0.629,6.011-1.611,8.744-1.136c3.985,0.693,6.494,2.062,7.969,3.181
			c-8.264-0.939-18.318,2.883-25.029,7.547c-0.707,0.491-1.683,0.215-2.024-0.576l-13.608-31.456
			C818.965,486.785,819.054,486.23,819.393,485.83z"/>
		<path fill="#DFDACD" d="M826.782,256.912c-1.044,0.064-2.1-0.375-2.783-1.268c-1.091-1.426-0.82-3.464,0.604-4.555
			c7.373-5.644,19.227-10.369,29.155-8.26c5.261-8.679,16.819-14.082,25.982-15.593c1.767-0.29,3.442,0.905,3.733,2.677
			c0.292,1.771-0.906,3.443-2.678,3.734c-7.476,1.232-17.404,5.713-21.537,12.641c-1.388,2.329-4.1,3.505-6.748,2.919
			c-7.878-1.728-17.941,2.437-23.959,7.041C828.021,256.656,827.404,256.874,826.782,256.912z"/>
		<path fill="#DFDACD" d="M863.908,190.688c-3.129-0.166-6.976,0.763-10.743,2.355l12.284,28.397l0.316,0.716
			c0.353,0.799,0.053,1.736-0.703,2.175c-1.894,1.096-5.291,3.277-6.815,5.595c-2.224,3.38-2.944,6.145-3.139,7.985
			c4.974-6.665,14.644-11.377,22.638-13.073c0.844-0.18,1.31-1.079,0.968-1.87l-13.608-31.457
			C864.897,191.029,864.433,190.715,863.908,190.688z"/>
		<path fill="#DFDACD" d="M846.775,189.123c-1.647,0.815-4.33,2.58-6.567,6.105c-3.634,5.723-2.802,10.713-2.802,10.713
			s-3.067-4.022-9.728-5.293c-4.101-0.783-7.224-0.037-8.946,0.605c-0.848,0.316-1.25,1.282-0.891,2.113l7.052,16.3l6.208,14.35
			c0.448,1.038,1.595,1.57,2.686,1.271c1.641-0.448,4.244-0.876,7.284-0.347c5.71,0.994,8.883,3.307,10.394,4.783
			c0.355,0.349,0.947,0.093,0.937-0.405c-0.043-2.112,0.444-6.008,3.631-10.851c1.696-2.58,3.792-4.184,5.243-5.072
			c0.964-0.59,1.357-1.789,0.909-2.826l-13.26-30.65C848.565,189.09,847.587,188.721,846.775,189.123z"/>
		<path fill="#DFDACD" d="M808.142,214.812c2.022-2.394,5.333-4.562,9.073-6.217l12.285,28.397l0.305,0.721
			c0.341,0.804,1.23,1.228,2.066,0.977c2.096-0.63,6.012-1.612,8.745-1.137c3.985,0.694,6.494,2.063,7.969,3.182
			c-8.264-0.939-18.319,2.882-25.029,7.546c-0.708,0.492-1.683,0.216-2.025-0.575l-13.607-31.457
			C807.714,215.767,807.804,215.213,808.142,214.812z"/>
		<path fill="#DFDACD" d="M548.588,295.862c-1.043,0.064-2.099-0.375-2.783-1.269c-1.091-1.425-0.82-3.463,0.605-4.554
			c7.373-5.644,19.227-10.369,29.154-8.26c5.261-8.679,16.82-14.083,25.983-15.593c1.767-0.291,3.442,0.904,3.733,2.677
			c0.292,1.771-0.906,3.442-2.678,3.734c-7.476,1.231-17.404,5.713-21.537,12.641c-1.388,2.329-4.099,3.505-6.749,2.919
			c-7.877-1.729-17.941,2.437-23.958,7.041C549.828,295.606,549.21,295.823,548.588,295.862z"/>
		<path fill="#DFDACD" d="M585.715,229.637c-3.129-0.166-6.976,0.764-10.743,2.356l12.285,28.397l0.316,0.715
			c0.353,0.8,0.053,1.738-0.703,2.176c-1.893,1.096-5.291,3.277-6.816,5.595c-2.223,3.38-2.943,6.145-3.138,7.985
			c4.974-6.666,14.644-11.377,22.638-13.074c0.843-0.179,1.31-1.078,0.967-1.869l-13.608-31.457
			C586.704,229.979,586.239,229.665,585.715,229.637z"/>
		<path fill="#DFDACD" d="M568.583,228.072c-1.648,0.816-4.33,2.581-6.568,6.105c-3.634,5.724-2.802,10.714-2.802,10.714
			s-3.067-4.022-9.727-5.294c-4.101-0.782-7.224-0.036-8.947,0.606c-0.848,0.316-1.25,1.282-0.891,2.112l7.052,16.301l6.208,14.35
			c0.449,1.037,1.595,1.57,2.686,1.271c1.641-0.448,4.244-0.877,7.284-0.348c5.71,0.994,8.884,3.307,10.394,4.784
			c0.356,0.349,0.947,0.093,0.938-0.405c-0.043-2.112,0.444-6.008,3.63-10.851c1.697-2.58,3.793-4.185,5.244-5.073
			c0.963-0.59,1.357-1.789,0.909-2.826l-13.259-30.649C570.373,228.039,569.394,227.671,568.583,228.072z"/>
		<path fill="#DFDACD" d="M529.949,253.762c2.021-2.395,5.333-4.562,9.073-6.217l12.285,28.397l0.305,0.72
			c0.341,0.805,1.229,1.229,2.066,0.977c2.095-0.629,6.011-1.611,8.745-1.136c3.985,0.694,6.494,2.063,7.968,3.181
			c-8.263-0.939-18.318,2.883-25.029,7.547c-0.708,0.492-1.683,0.215-2.025-0.575l-13.608-31.457
			C529.521,254.717,529.61,254.162,529.949,253.762z"/>
		<path fill="#DFDACD" d="M971.717,387.906c-1.044,0.065-2.1-0.374-2.783-1.268c-1.09-1.425-0.82-3.463,0.605-4.554
			c7.373-5.644,19.227-10.369,29.154-8.261c5.261-8.678,16.819-14.082,25.982-15.593c1.768-0.29,3.442,0.905,3.734,2.678
			c0.291,1.77-0.907,3.442-2.678,3.733c-7.477,1.232-17.405,5.714-21.537,12.642c-1.388,2.329-4.1,3.504-6.749,2.918
			c-7.878-1.728-17.941,2.437-23.959,7.042C972.956,387.65,972.339,387.868,971.717,387.906z"/>
		<path fill="#DFDACD" d="M1008.843,321.682c-3.129-0.166-6.976,0.764-10.743,2.355l12.285,28.398l0.315,0.715
			c0.353,0.799,0.053,1.737-0.703,2.175c-1.893,1.097-5.291,3.277-6.815,5.596c-2.223,3.379-2.943,6.145-3.138,7.985
			c4.974-6.666,14.644-11.377,22.638-13.074c0.843-0.18,1.31-1.079,0.967-1.87l-13.607-31.456
			C1009.832,322.023,1009.367,321.709,1008.843,321.682z"/>
		<path fill="#DFDACD" d="M991.711,320.117c-1.648,0.816-4.33,2.581-6.568,6.105c-3.634,5.724-2.802,10.714-2.802,10.714
			s-3.067-4.023-9.727-5.294c-4.101-0.782-7.224-0.036-8.947,0.606c-0.848,0.315-1.249,1.282-0.89,2.112l7.051,16.3l6.208,14.35
			c0.449,1.038,1.595,1.57,2.686,1.272c1.642-0.449,4.244-0.877,7.284-0.348c5.71,0.994,8.884,3.307,10.394,4.784
			c0.355,0.349,0.947,0.093,0.938-0.405c-0.043-2.112,0.444-6.008,3.63-10.852c1.697-2.579,3.793-4.184,5.243-5.072
			c0.964-0.59,1.357-1.789,0.909-2.826l-13.259-30.65C993.501,320.084,992.521,319.716,991.711,320.117z"/>
		<path fill="#DFDACD" d="M953.077,345.807c2.021-2.395,5.332-4.562,9.073-6.217l12.284,28.396l0.306,0.721
			c0.341,0.805,1.229,1.229,2.066,0.977c2.095-0.629,6.011-1.611,8.744-1.136c3.985,0.693,6.494,2.062,7.969,3.181
			c-8.264-0.939-18.318,2.882-25.029,7.547c-0.707,0.491-1.683,0.215-2.024-0.576l-13.608-31.456
			C952.649,346.762,952.738,346.207,953.077,345.807z"/>
		<path fill="#DFDACD" d="M868.318,552.037l-50.391,23.959c-3.741,1.778-5.165,6.604-3.181,10.777l12.898,27.13
			c1.984,4.173,6.626,6.114,10.367,4.336l4.619-2.196c1.296-0.616,3.237-0.372,4.333,1.933c0.428,0.899,1.06,2.233,2.775,5.846
			c0.748,1.578,1.558,1.393,1.77,1.321c0.836-0.275,1.387-1.329,2.728-4.16c0.555-1.173,2.04-4.344,4.414-9.448
			c1.034-2.224,3.78-4.905,4.73-5.356l25.019-11.896c3.742-1.779,5.167-6.605,3.182-10.78l-12.898-27.129
			C876.7,552.2,872.059,550.26,868.318,552.037z"/>
		<path fill="#DFDACD" d="M1531.57,334.394l-50.391,23.958c-3.741,1.779-5.165,6.604-3.181,10.777l12.899,27.13
			c1.984,4.174,6.625,6.115,10.366,4.337l4.62-2.197c1.295-0.615,3.236-0.372,4.332,1.933c0.428,0.899,1.06,2.233,2.775,5.846
			c0.748,1.578,1.559,1.394,1.77,1.322c0.836-0.275,1.388-1.329,2.728-4.161c0.555-1.172,2.04-4.343,4.415-9.448
			c1.033-2.224,3.779-4.905,4.729-5.356l25.02-11.896c3.741-1.779,5.166-6.605,3.182-10.779l-12.898-27.129
			C1539.952,334.557,1535.312,332.615,1531.57,334.394z"/>
		<path fill="#DFDACD" d="M746.274,327.627l-50.391,23.958c-3.741,1.778-5.165,6.604-3.181,10.777l12.898,27.13
			c1.984,4.174,6.626,6.114,10.367,4.336l4.619-2.196c1.296-0.616,3.237-0.372,4.333,1.933c0.428,0.899,1.06,2.233,2.775,5.846
			c0.747,1.578,1.558,1.393,1.769,1.321c0.837-0.274,1.388-1.329,2.729-4.16c0.555-1.173,2.04-4.343,4.414-9.448
			c1.034-2.224,3.78-4.905,4.73-5.357l25.019-11.895c3.742-1.779,5.167-6.605,3.182-10.78l-12.898-27.129
			C754.656,327.789,750.015,325.848,746.274,327.627z"/>
		<path fill="#DFDACD" d="M667.808,578.505l-50.391,23.958c-3.741,1.779-5.165,6.604-3.181,10.777l12.899,27.131
			c1.984,4.173,6.625,6.114,10.366,4.336l4.62-2.197c1.296-0.615,3.236-0.371,4.332,1.934c0.428,0.899,1.06,2.233,2.775,5.846
			c0.748,1.578,1.559,1.393,1.77,1.321c0.836-0.275,1.388-1.329,2.728-4.16c0.556-1.173,2.04-4.344,4.415-9.448
			c1.033-2.224,3.779-4.905,4.729-5.357l25.02-11.895c3.741-1.779,5.166-6.605,3.182-10.78l-12.898-27.129
			C676.189,578.668,671.549,576.727,667.808,578.505z"/>
	</g>
</g>
</svg>
